<?xml version="1.0" encoding="UTF-8"?>
<svg version="1.1" xmlns="http://www.w3.org/2000/svg" width="1280" height="501">
<path d="M0 0 C1.20482529 -0.00637985 2.40965057 -0.0127597 3.65098572 -0.01933289 C4.94895584 -0.02044571 6.24692596 -0.02155853 7.58422852 -0.02270508 C8.93416886 -0.02592018 10.28410885 -0.02928445 11.63404846 -0.03279114 C14.46095589 -0.03877194 17.28783279 -0.04063209 20.11474609 -0.04003906 C23.7305748 -0.03993743 27.34620721 -0.05359577 30.9619894 -0.07081127 C33.7493021 -0.0819485 36.53656756 -0.08395775 39.32390022 -0.08342934 C41.3030607 -0.08517755 43.28220645 -0.09600586 45.26133728 -0.10697937 C46.46931473 -0.10390274 47.67729218 -0.10082611 48.921875 -0.09765625 C49.98236557 -0.09908127 51.04285614 -0.10050629 52.13548279 -0.10197449 C55.12739142 0.15396845 57.31565868 0.88549828 60.02563477 2.14526367 C60.02563477 2.80526367 60.02563477 3.46526367 60.02563477 4.14526367 C60.68563477 4.14526367 61.34563477 4.14526367 62.02563477 4.14526367 C62.27055664 4.62092773 62.51547852 5.0965918 62.76782227 5.58666992 C65.53359211 10.76533553 68.62775863 15.65366588 71.90063477 20.52026367 C72.33287354 21.16334473 72.7651123 21.80642578 73.21044922 22.46899414 C74.07270077 23.75098567 74.93508473 25.03288815 75.79760742 26.31469727 C77.58176272 28.97425918 79.34416031 31.64668342 81.08813477 34.33276367 C81.63598633 35.17194336 82.18383789 36.01112305 82.74829102 36.87573242 C83.94616683 39.00406835 84.58108016 40.7578408 85.02563477 43.14526367 C85.68563477 43.14526367 86.34563477 43.14526367 87.02563477 43.14526367 C89.06732961 46.05075249 90.02563477 47.54668413 90.02563477 51.14526367 C90.68563477 51.14526367 91.34563477 51.14526367 92.02563477 51.14526367 C93.49872588 53.24545381 94.83873112 55.32294096 96.15063477 57.52026367 C96.52317383 58.12354492 96.89571289 58.72682617 97.27954102 59.34838867 C100.02563477 63.87491683 100.02563477 63.87491683 100.02563477 66.14526367 C100.68563477 66.14526367 101.34563477 66.14526367 102.02563477 66.14526367 C102.35563477 67.13526367 102.68563477 68.12526367 103.02563477 69.14526367 C103.68563477 69.47526367 104.34563477 69.80526367 105.02563477 70.14526367 C105.25250977 69.49170898 105.47938477 68.8381543 105.71313477 68.16479492 C107.45953899 64.14702569 109.70566858 60.54139533 112.02563477 56.83276367 C112.47680664 56.09219727 112.92797852 55.35163086 113.39282227 54.58862305 C114.04637695 53.53964844 114.04637695 53.53964844 114.71313477 52.46948242 C115.10887695 51.83099365 115.50461914 51.19250488 115.91235352 50.53466797 C116.27973633 50.07616455 116.64711914 49.61766113 117.02563477 49.14526367 C117.68563477 49.14526367 118.34563477 49.14526367 119.02563477 49.14526367 C119.25508789 48.4775293 119.48454102 47.80979492 119.72094727 47.12182617 C121.39620188 43.2998381 123.59742226 39.99017425 125.90063477 36.52026367 C129.05126478 31.72598729 132.18060157 26.92409739 135.20922852 22.05151367 C135.73210449 21.21185059 136.25498047 20.3721875 136.79370117 19.50708008 C137.79653841 17.8923314 138.79516408 16.2749567 139.78881836 14.65454102 C147.72936821 1.91068586 147.72936821 1.91068586 153.02563477 0.14526367 C155.04388866 0.0462509 157.06526847 0.00699923 159.0859375 0 C160.33410751 -0.00637985 161.58227753 -0.0127597 162.86827087 -0.01933289 C164.23192303 -0.02086155 165.5955757 -0.02197552 166.95922852 -0.02270508 C168.35783421 -0.02591866 169.75643957 -0.02928281 171.15504456 -0.03279114 C174.08628112 -0.03877799 177.01748822 -0.04063147 179.94873047 -0.04003906 C183.70256686 -0.03993742 187.45621419 -0.05359358 191.21000576 -0.07081127 C194.09850429 -0.08193558 196.98695717 -0.08395815 199.87547493 -0.08342934 C201.25934565 -0.08460865 202.64321758 -0.08902772 204.02706718 -0.0967617 C205.96333247 -0.10657046 207.89965322 -0.102417 209.8359375 -0.09765625 C210.93719467 -0.09908127 212.03845184 -0.10050629 213.17308044 -0.10197449 C216.03307024 0.14590812 217.65340805 0.56303866 220.02563477 2.14526367 C221.58813477 4.64526367 221.58813477 4.64526367 222.02563477 8.14526367 C219.96335211 14.37507586 216.06957252 19.75200032 212.26000977 25.02807617 C209.20167162 29.29477869 206.24044291 33.62574934 203.27563477 37.95776367 C202.70844727 38.78268311 202.14125977 39.60760254 201.55688477 40.45751953 C199.35554628 43.67075304 197.20085172 46.84018459 195.26000977 50.21948242 C194.85266602 50.85499023 194.44532227 51.49049805 194.02563477 52.14526367 C193.36563477 52.14526367 192.70563477 52.14526367 192.02563477 52.14526367 C191.80262695 52.81299805 191.57961914 53.48073242 191.34985352 54.16870117 C189.62230118 58.05187191 187.28919426 61.31188001 184.83813477 64.77026367 C180.81468882 70.51068795 176.97961777 76.29267579 173.36547852 82.30151367 C172.92333008 82.90995117 172.48118164 83.51838867 172.02563477 84.14526367 C171.36563477 84.14526367 170.70563477 84.14526367 170.02563477 84.14526367 C169.69563477 85.46526367 169.36563477 86.78526367 169.02563477 88.14526367 C168.36563477 88.14526367 167.70563477 88.14526367 167.02563477 88.14526367 C166.80520508 88.80913086 166.58477539 89.47299805 166.35766602 90.15698242 C164.59661795 94.10772074 162.20703647 97.43715609 159.71313477 100.95776367 C158.75696463 102.31721645 157.80253284 103.67789357 156.84985352 105.03979492 C156.38111816 105.70833496 155.91238281 106.376875 155.42944336 107.06567383 C153.5379686 109.86768809 151.81626068 112.76255333 150.11474609 115.68310547 C149.57563599 116.40687378 149.57563599 116.40687378 149.02563477 117.14526367 C148.36563477 117.14526367 147.70563477 117.14526367 147.02563477 117.14526367 C147.57669385 121.09452047 148.41498847 124.49446541 150.02563477 128.14526367 C150.68563477 128.14526367 151.34563477 128.14526367 152.02563477 128.14526367 C152.59282227 129.15073242 153.16000977 130.15620117 153.74438477 131.19213867 C155.91348588 134.9861629 158.19859284 138.69659134 160.52563477 142.39526367 C160.94780273 143.06912109 161.3699707 143.74297852 161.80493164 144.43725586 C164.28353832 148.3889967 166.77623911 152.33164255 169.27563477 156.27026367 C169.81639648 157.12330078 170.3571582 157.97633789 170.91430664 158.85522461 C171.97108481 160.52109129 173.02961895 162.18584561 174.09008789 163.84936523 C174.57413086 164.61216797 175.05817383 165.3749707 175.55688477 166.16088867 C176.19980469 167.17070801 176.19980469 167.17070801 176.85571289 168.20092773 C179.79564996 173.08691664 180.13761141 175.36298515 179.02563477 181.14526367 C174.64296927 181.52092071 172.62772073 180.60123137 169.02563477 178.14526367 C167.65149126 177.22731356 166.27638752 176.3108002 164.90063477 175.39526367 C164.13364258 174.8822168 163.36665039 174.36916992 162.57641602 173.84057617 C159.75749494 171.96705129 156.9293682 170.10980406 154.08813477 168.27026367 C153.17161133 167.6747168 152.25508789 167.07916992 151.31079102 166.46557617 C149.17687303 164.97850447 149.17687303 164.97850447 147.02563477 165.14526367 C149.09254175 178.83674605 151.17988308 192.51601849 153.66235352 206.13891602 C154.44851581 210.480772 155.20503242 214.82798408 155.96459961 219.17456055 C156.50381769 222.2471677 157.05874704 225.31429979 157.65844727 228.37573242 C158.71123063 233.75085878 159.23242862 238.66522664 159.02563477 244.14526367 C155.83813477 244.45776367 155.83813477 244.45776367 152.02563477 244.14526367 C147.80035259 240.58819705 145.1328064 236.44681736 142.33813477 231.77026367 C138.51366271 225.50193509 134.5569601 219.35278618 130.42529297 213.2824707 C128.19843929 209.98922986 126.16976177 206.65263828 124.22241211 203.18310547 C121.49729217 198.54284106 118.47807664 194.08022124 115.52563477 189.58276367 C114.86176758 188.56762695 114.19790039 187.55249023 113.51391602 186.5065918 C110.37177849 181.70558127 107.21969103 176.91190376 104.02563477 172.14526367 C101.11159525 174.89935251 98.86929596 177.66880479 96.70532227 181.03979492 C95.78589844 182.46243652 95.78589844 182.46243652 94.84790039 183.91381836 C94.20530273 184.91832031 93.56270508 185.92282227 92.90063477 186.95776367 C91.55490309 189.04280099 90.20854817 191.12743619 88.86157227 193.21166992 C88.20640625 194.2276123 87.55124023 195.24355469 86.8762207 196.2902832 C84.46127601 200.0159248 82.00148233 203.7099278 79.52563477 207.39526367 C76.80867741 211.44773951 74.13111846 215.51991449 71.52563477 219.64526367 C68.67204551 224.15271464 65.77347934 228.62824954 62.83813477 233.08276367 C62.42176758 233.72213867 62.00540039 234.36151367 61.57641602 235.02026367 C55.96390175 243.49300155 55.96390175 243.49300155 52.26573181 244.73750305 C49.55387383 245.23113742 46.99241225 245.28026414 44.23486328 245.29052734 C43.0700795 245.2969072 41.90529572 245.30328705 40.70521545 245.30986023 C38.82388161 245.31152946 38.82388161 245.31152946 36.90454102 245.31323242 C34.96646828 245.31822502 34.96646828 245.31822502 32.98924255 245.32331848 C30.25649174 245.32929855 27.52377251 245.3311595 24.79101562 245.33056641 C21.29625243 245.33046477 17.80169234 245.34412307 14.30697727 245.36133862 C10.96449548 245.37515579 7.622051 245.37454789 4.27954102 245.37573242 C3.02734268 245.38291794 1.77514435 245.39010345 0.48500061 245.39750671 C-0.68293533 245.39443008 -1.85087128 245.39135345 -3.05419922 245.38818359 C-4.07916 245.38960861 -5.10412079 245.39103363 -6.16014099 245.39250183 C-10.27411095 245.03107706 -13.04432596 244.07530295 -15.97436523 241.14526367 C-16.56292536 235.62337935 -15.62618565 232.79133715 -12.41186523 228.33276367 C-11.68483398 227.3040918 -10.95780273 226.27541992 -10.20874023 225.21557617 C-9.47139648 224.20237305 -8.73405273 223.18916992 -7.97436523 222.14526367 C-6.70055793 220.33485251 -5.42948226 218.52251454 -4.16186523 216.70776367 C-3.34782227 215.56500977 -3.34782227 215.56500977 -2.51733398 214.39916992 C-0.89716622 212.1015937 -0.89716622 212.1015937 0.59985352 209.36010742 C1.07036133 208.62920898 1.54086914 207.89831055 2.02563477 207.14526367 C2.68563477 207.14526367 3.34563477 207.14526367 4.02563477 207.14526367 C4.42782227 206.05665039 4.42782227 206.05665039 4.83813477 204.94604492 C6.01233858 202.17662344 7.36506716 199.83606933 9.02563477 197.33276367 C9.54125977 196.54256836 10.05688477 195.75237305 10.58813477 194.93823242 C11.06250977 194.34655273 11.53688477 193.75487305 12.02563477 193.14526367 C12.68563477 193.14526367 13.34563477 193.14526367 14.02563477 193.14526367 C14.24606445 192.48139648 14.46649414 191.8175293 14.69360352 191.13354492 C16.45465158 187.1828066 18.84423306 183.85337126 21.33813477 180.33276367 C22.2943049 178.97331089 23.2487367 177.61263378 24.20141602 176.25073242 C24.67015137 175.58219238 25.13888672 174.91365234 25.62182617 174.22485352 C27.51330093 171.42283926 29.23500885 168.52797401 30.93652344 165.60742188 C31.47563354 164.88365356 31.47563354 164.88365356 32.02563477 164.14526367 C32.68563477 164.14526367 33.34563477 164.14526367 34.02563477 164.14526367 C34.33500977 163.36151367 34.64438477 162.57776367 34.96313477 161.77026367 C36.02563477 159.14526367 36.02563477 159.14526367 37.02563477 157.14526367 C37.68563477 157.14526367 38.34563477 157.14526367 39.02563477 157.14526367 C39.2615332 156.46463867 39.49743164 155.78401367 39.74047852 155.08276367 C41.31075654 151.49355676 43.39014873 148.36861499 45.58813477 145.14526367 C46.02488525 144.49243408 46.46163574 143.83960449 46.91162109 143.16699219 C49.11562583 139.88776642 51.36532324 136.65733626 53.72094727 133.48510742 C54.35021118 132.62369141 54.35021118 132.62369141 54.9921875 131.74487305 C56.1498075 130.16897283 57.32741563 128.60781268 58.50610352 127.04760742 C60.24371378 124.26208261 60.24371378 124.26208261 60.06079102 121.23901367 C58.72062207 117.23367856 56.69453129 114.14385512 54.27563477 110.70776367 C53.84508789 110.07805664 53.41454102 109.44834961 52.97094727 108.79956055 C51.21453635 106.24119555 49.44328578 103.70264976 47.58227539 101.21899414 C44.02563477 96.44461796 44.02563477 96.44461796 44.02563477 93.14526367 C43.36563477 93.14526367 42.70563477 93.14526367 42.02563477 93.14526367 C40.55254365 91.04507353 39.21253841 88.96758639 37.90063477 86.77026367 C37.5280957 86.16698242 37.15555664 85.56370117 36.77172852 84.94213867 C34.02563477 80.41561051 34.02563477 80.41561051 34.02563477 78.14526367 C33.36563477 78.14526367 32.70563477 78.14526367 32.02563477 78.14526367 C30.55254365 76.04507353 29.21253841 73.96758639 27.90063477 71.77026367 C27.5280957 71.16698242 27.15555664 70.56370117 26.77172852 69.94213867 C24.02563477 65.41561051 24.02563477 65.41561051 24.02563477 63.14526367 C23.36563477 63.14526367 22.70563477 63.14526367 22.02563477 63.14526367 C20.61328125 61.20922852 20.61328125 61.20922852 18.95922852 58.48120117 C16.27487741 54.14040055 13.53073099 49.8593985 10.68579102 45.62182617 C10.31118744 45.06291687 9.93658386 44.50400757 9.55062866 43.92816162 C8.0143326 41.63639782 6.47580538 39.34614701 4.93505859 37.05737305 C2.27442977 33.1023079 -0.35919597 29.13051426 -2.97436523 25.14526367 C-3.35683411 24.56788452 -3.73930298 23.99050537 -4.13336182 23.39562988 C-5.26208413 21.68263691 -6.37231639 19.9589584 -7.47827148 18.23120117 C-8.12739502 17.22879395 -8.77651855 16.22638672 -9.4453125 15.19360352 C-11.48140633 11.13441981 -12.57449641 7.21844409 -11.28686523 2.77026367 C-8.55098735 -0.61701371 -4.04614064 0.01455426 0 0 Z " fill="#76BA44" transform="translate(787.974365234375,133.854736328125)"/>
<path d="M0 0 C0.90893509 -0.00708481 1.81787018 -0.01416962 2.75434875 -0.02146912 C3.74999847 -0.0189917 4.74564819 -0.01651428 5.77146912 -0.01396179 C6.82254349 -0.01907272 7.87361786 -0.02418365 8.95654297 -0.02944946 C12.45146819 -0.04340602 15.94619695 -0.04238097 19.44114685 -0.04008484 C21.8856412 -0.04397484 24.33013488 -0.04831014 26.77462769 -0.05307007 C31.92040686 -0.06054987 37.06611751 -0.06023292 42.2118988 -0.05497742 C48.7324789 -0.04924853 55.2527688 -0.06594356 61.77330112 -0.08932209 C66.83817118 -0.1042479 71.90297491 -0.10490476 76.96786308 -0.10181236 C79.36625164 -0.10231846 81.76464465 -0.10741874 84.16301155 -0.11762428 C96.73423408 -0.16445799 109.11978138 0.19840741 121.62059021 1.60762024 C122.67308488 1.72548984 123.72557955 1.84335943 124.80996799 1.96480083 C143.43239807 4.28261688 158.13787903 11.09314872 171.5622406 24.26069641 C172.12813904 24.80210266 172.69403748 25.34350891 173.27708435 25.90132141 C187.44856923 40.78701906 190.24669726 64.06779678 189.81614685 83.66304016 C189.00983916 102.78347221 183.6402505 120.71393217 169.5622406 134.26069641 C168.93704529 134.90651672 168.31184998 135.55233704 167.66770935 136.21772766 C159.03787333 144.56634703 147.14631009 150.23278122 135.5622406 153.26069641 C134.92157654 153.45147766 134.28091248 153.64225891 133.62083435 153.83882141 C128.72093634 155.1405021 123.80185196 155.52438592 118.75584412 155.8092804 C118.00838456 155.85202559 117.26092501 155.89477079 116.49081516 155.9388113 C108.81453135 156.34693662 101.15002008 156.38853541 93.46458435 156.35835266 C92.18426331 156.35734558 90.90394226 156.3563385 89.58482361 156.3553009 C84.88978657 156.35014474 80.1947625 156.33618482 75.4997406 156.32319641 C64.9603656 156.30257141 54.4209906 156.28194641 43.5622406 156.26069641 C43.2322406 180.68069641 42.9022406 205.10069641 42.5622406 230.26069641 C34.4978656 230.28132141 26.4334906 230.30194641 18.1247406 230.32319641 C15.57570007 230.33230042 13.02665955 230.34140442 10.40037537 230.3507843 C8.39313306 230.3537033 6.38589018 230.35625189 4.37864685 230.35835266 C2.79932373 230.36602661 2.79932373 230.36602661 1.18809509 230.37385559 C-0.30397461 230.37403687 -0.30397461 230.37403687 -1.82618713 230.3742218 C-3.12857582 230.37755272 -3.12857582 230.37755272 -4.45727539 230.38095093 C-6.4377594 230.26069641 -6.4377594 230.26069641 -7.4377594 229.26069641 C-7.54238903 226.34489748 -7.58107633 223.45256684 -7.57820129 220.53610229 C-7.58117242 219.60969262 -7.58414354 218.68328294 -7.58720469 217.72880024 C-7.59593216 214.59953077 -7.59740333 211.47029938 -7.59889221 208.34101868 C-7.60351748 206.10769061 -7.60854173 203.87436333 -7.61393738 201.64103699 C-7.62709031 195.55644552 -7.6335118 189.4718651 -7.63794804 183.38726163 C-7.64087372 179.59096644 -7.64497751 175.79467431 -7.64945221 171.99838066 C-7.66156485 161.49586045 -7.67194598 150.99334205 -7.6753273 140.49081516 C-7.67554687 139.81820565 -7.67576643 139.14559614 -7.67599265 138.45260453 C-7.67621093 137.77835035 -7.67642921 137.10409618 -7.6766541 136.40941006 C-7.67709757 135.04302569 -7.67754414 133.67664132 -7.67799377 132.31025696 C-7.6782152 131.63247753 -7.67843663 130.9546981 -7.67866477 130.25637989 C-7.68261485 119.26790228 -7.70007437 108.2794909 -7.7233533 97.29103888 C-7.74703844 86.02025278 -7.75926959 74.74949881 -7.76069522 63.47868389 C-7.76174643 57.14610571 -7.76772122 50.81362091 -7.78551483 44.48106575 C-7.80191639 38.52790922 -7.80418976 32.57491704 -7.79537582 26.62174606 C-7.79460122 24.43111546 -7.79900334 22.24047631 -7.80883408 20.04986763 C-7.82142538 17.07047017 -7.8157472 14.09166624 -7.80525208 11.11227417 C-7.81330848 10.23553671 -7.82136488 9.35879925 -7.82966542 8.45549399 C-7.8096962 6.04914188 -7.8096962 6.04914188 -7.4377594 2.26069641 C-4.29631839 0.1664024 -3.5776401 0.00930391 0 0 Z M42.5622406 44.26069641 C42.51592599 52.94458145 42.48037589 61.62842405 42.45861626 70.31240559 C42.4481734 74.34461132 42.43400509 78.37673263 42.41136169 82.40888977 C42.38965113 86.29922505 42.37767576 90.18947905 42.37248611 94.07987022 C42.36878714 95.56505297 42.36156406 97.05023121 42.35078049 98.53537941 C42.33628912 100.61359438 42.33426164 102.69147235 42.33518982 104.76972961 C42.3307486 105.95331558 42.32630737 107.13690155 42.32173157 108.35635376 C42.34240791 111.45543327 42.34240791 111.45543327 44.5622406 114.26069641 C47.3111743 114.72145331 47.3111743 114.72145331 50.58152771 114.64888 C52.48006752 114.66306473 52.48006752 114.66306473 54.41696167 114.67753601 C55.80783904 114.67216129 57.19871358 114.66600711 58.58958435 114.65913391 C60.01769153 114.66115577 61.44579771 114.66406815 62.87390137 114.66783142 C65.8759895 114.67226237 68.87781045 114.66580789 71.87986755 114.65180969 C75.69932506 114.63485585 79.51814368 114.64446491 83.33757687 114.66252708 C86.293311 114.67346379 89.24889853 114.66987144 92.20463753 114.66214371 C93.61062765 114.66016158 95.01663169 114.66252999 96.42260551 114.66958237 C107.31716258 114.71217558 117.71209828 114.25848337 126.5622406 107.26069641 C127.6141156 106.47694641 128.6659906 105.69319641 129.7497406 104.88569641 C134.96722181 100.01604728 137.5572487 93.22551867 137.86302185 86.12397766 C138.03515276 72.89593393 137.23059912 62.1892799 127.5622406 52.26069641 C118.32078293 43.91626511 108.30670841 43.84219615 96.4684906 43.96772766 C94.91051138 43.97333114 93.35252683 43.97759768 91.79454041 43.98059082 C87.71740318 43.99198053 83.6405926 44.02139615 79.56358337 44.05470276 C75.39390988 44.0855312 71.224183 44.09912331 67.0544281 44.11421204 C58.89021662 44.14627232 50.72626938 44.19739638 42.5622406 44.26069641 Z " fill="#4C4C4B" transform="translate(197.43775939941406,141.7393035888672)"/>
<path d="M0 0 C1.99183626 0.00314132 3.98365424 -0.02111404 5.9753418 -0.0456543 C18.20682164 -0.05169453 30.13955413 1.55190447 41.44995117 6.44067383 C42.50678101 6.88963013 42.50678101 6.88963013 43.58496094 7.34765625 C54.88042267 12.35323648 64.87732875 19.8251721 72.82495117 29.31567383 C72.82495117 29.97567383 72.82495117 30.63567383 72.82495117 31.31567383 C73.48495117 31.31567383 74.14495117 31.31567383 74.82495117 31.31567383 C79.98116524 40.09666231 84.77301778 48.546077 87.82495117 58.31567383 C88.19620117 59.28504883 88.56745117 60.25442383 88.94995117 61.25317383 C91.68243889 70.81688083 92.14000059 80.36024177 92.07495117 90.25317383 C92.08268555 91.42557617 92.09041992 92.59797852 92.09838867 93.8059082 C92.04178317 119.43405136 83.8328025 141.38853383 66.77807617 160.44458008 C64.82495117 162.31567383 64.82495117 162.31567383 62.82495117 162.31567383 C62.82495117 162.97567383 62.82495117 163.63567383 62.82495117 164.31567383 C40.91917463 181.13693744 11.83896252 184.89083601 -14.94067383 181.85083008 C-32.29081978 179.38987205 -53.41060973 171.83381813 -65.17504883 158.31567383 C-65.17504883 157.65567383 -65.17504883 156.99567383 -65.17504883 156.31567383 C-65.83504883 156.31567383 -66.49504883 156.31567383 -67.17504883 156.31567383 C-77.95069904 144.40052957 -82.85193015 129.69849741 -86.17504883 114.31567383 C-86.43415039 113.36519165 -86.43415039 113.36519165 -86.69848633 112.39550781 C-92.81219889 85.71378786 -86.40253394 55.94651906 -72.17504883 33.10473633 C-68.96051394 28.32311569 -68.96051394 28.32311569 -67.17504883 26.31567383 C-66.51504883 26.31567383 -65.85504883 26.31567383 -65.17504883 26.31567383 C-64.96106445 25.75493164 -64.74708008 25.19418945 -64.52661133 24.61645508 C-57.71733223 13.02493661 -40.5175821 6.98896722 -28.30004883 3.50317383 C-26.59983612 3.07379808 -24.88957672 2.68375115 -23.17504883 2.31567383 C-22.18009399 2.06515259 -22.18009399 2.06515259 -21.16503906 1.80957031 C-14.11575529 0.17171067 -7.2197757 -0.02368866 0 0 Z M-28.48754883 51.56567383 C-34.65407612 59.00287948 -37.97467122 66.76721556 -39.17504883 76.31567383 C-39.30911133 77.34176758 -39.44317383 78.36786133 -39.58129883 79.42504883 C-41.38056731 97.1723789 -38.69901 115.57322167 -28.64379883 130.60473633 C-27.91676758 131.45165039 -27.91676758 131.45165039 -27.17504883 132.31567383 C-26.51504883 132.31567383 -25.85504883 132.31567383 -25.17504883 132.31567383 C-25.17504883 132.97567383 -25.17504883 133.63567383 -25.17504883 134.31567383 C-14.93438438 142.49043417 -2.97319117 143.16768621 9.61010742 142.07348633 C19.7757564 140.67231389 28.51517573 135.43285298 34.82495117 127.31567383 C42.15713174 115.82792499 43.30401156 103.45966701 43.13745117 90.12817383 C43.14228516 88.17621094 43.14228516 88.17621094 43.1472168 86.18481445 C43.07124944 72.57284579 40.70034195 60.05956793 31.82495117 49.31567383 C31.16495117 49.31567383 30.50495117 49.31567383 29.82495117 49.31567383 C29.82495117 48.65567383 29.82495117 47.99567383 29.82495117 47.31567383 C13.21712723 34.05823519 -14.10943197 36.38130743 -28.48754883 51.56567383 Z " fill="#4C4C4B" transform="translate(490.175048828125,194.684326171875)"/>
<path d="M0 0 C15.84 0 31.68 0 48 0 C48.02202655 30.30277161 48.04049796 60.60553776 48.05106533 90.908315 C48.05231611 94.48208957 48.05361042 98.05586413 48.05493164 101.62963867 C48.05519395 102.34114268 48.05545626 103.05264668 48.05572652 103.78571142 C48.0600833 115.32132168 48.06797089 126.85692699 48.0771528 138.39253431 C48.08648911 150.22037862 48.09205556 162.04822033 48.09408849 173.87606817 C48.09534006 180.52326311 48.09848474 187.1704488 48.10573006 193.8176403 C48.1124861 200.06621402 48.11461781 206.31477175 48.11310768 212.56334877 C48.1133842 214.86404889 48.11539177 217.1647495 48.11920547 219.46544647 C48.12413624 222.59176605 48.12300058 225.71802427 48.12025452 228.84434509 C48.12316736 229.76747795 48.1260802 230.6906108 48.12908131 231.64171737 C48.11412121 237.88587879 48.11412121 237.88587879 47 239 C45.56259647 239.09813987 44.12043673 239.1279828 42.6796875 239.12939453 C41.76203613 239.13254669 40.84438477 239.13569885 39.89892578 239.13894653 C38.90103027 239.1369223 37.90313477 239.13489807 36.875 239.1328125 C35.85776855 239.13376923 34.84053711 239.13472595 33.79248047 239.13571167 C31.63704364 239.13639361 29.48160478 239.13453835 27.32617188 239.13037109 C24.01427629 239.12502305 20.70251633 239.13031563 17.390625 239.13671875 C15.30208303 239.13605797 13.21354115 239.13477681 11.125 239.1328125 C9.62815674 239.13584885 9.62815674 239.13584885 8.10107422 239.13894653 C7.18342285 239.13579437 6.26577148 239.13264221 5.3203125 239.12939453 C4.50836426 239.12859894 3.69641602 239.12780334 2.85986328 239.12698364 C1 239 1 239 0 238 C-0.09803082 234.94072956 -0.12990898 231.90402112 -0.12025452 228.84434509 C-0.12110894 227.87160521 -0.12196337 226.89886532 -0.12284368 225.89664847 C-0.12450144 222.61068684 -0.11897229 219.32477535 -0.11352539 216.03881836 C-0.11324356 213.6938731 -0.11340118 211.34892775 -0.1139679 209.00398254 C-0.11425602 202.61580807 -0.10835693 196.2276522 -0.10139394 189.83948207 C-0.09579345 183.84648813 -0.09477212 177.8534942 -0.09374207 171.86049814 C-0.09155123 159.98699198 -0.08489031 148.11349267 -0.07543945 136.23999023 C-0.06626614 124.70320673 -0.05918491 113.16642508 -0.05493164 101.62963867 C-0.05466892 100.91899645 -0.05440619 100.20835422 -0.05413551 99.47617739 C-0.05283051 95.91123907 -0.05156679 92.34630075 -0.05032361 88.78136241 C-0.03995002 59.18756956 -0.0215112 29.5937873 0 0 Z " fill="#4D4C4B" transform="translate(612,133)"/>
<path d="M0 0 C0.87423111 -0.00630432 1.74846222 -0.01260864 2.64918518 -0.019104 C4.06021767 -0.01303131 4.06021767 -0.01303131 5.49975586 -0.00683594 C6.46739365 -0.00874939 7.43503143 -0.01066284 8.43199158 -0.01263428 C10.47712464 -0.01399522 12.52226636 -0.01030513 14.56738281 -0.00195312 C17.705844 0.00875918 20.84373426 -0.00185754 23.98217773 -0.01464844 C25.96720504 -0.01332705 27.952232 -0.0107651 29.93725586 -0.00683594 C31.35132469 -0.01290863 31.35132469 -0.01290863 32.79396057 -0.019104 C34.10057899 -0.00964752 34.10057899 -0.00964752 35.43359375 0 C36.5858419 0.00238678 36.5858419 0.00238678 37.7613678 0.00482178 C39.65209961 0.25878906 39.65209961 0.25878906 41.65209961 2.25878906 C41.90378189 5.16986847 41.90378189 5.16986847 41.90606689 8.97766113 C41.90918688 9.6762463 41.91230686 10.37483148 41.91552138 11.0945859 C41.92352999 13.44693092 41.91716674 15.79902002 41.91088867 18.15136719 C41.91359727 19.83312634 41.91715746 21.51488431 41.92150879 23.19664001 C41.93065071 27.77298562 41.92708114 32.34924137 41.92075062 36.92558861 C41.91569993 41.70662052 41.92037947 46.48764455 41.92352295 51.26867676 C41.92716532 59.29876085 41.9223564 67.3288082 41.9128418 75.35888672 C41.90195673 84.6531438 41.90548212 93.94731314 41.91649461 103.24156809 C41.92555978 111.21015886 41.92685654 119.17872315 41.92161727 127.14731741 C41.91849332 131.91154513 41.91809983 136.67573157 41.92469025 141.43995667 C41.93045191 145.91818426 41.92648855 150.39629834 41.91490173 154.87451363 C41.91224881 156.52170689 41.91303096 158.16890964 41.91742706 159.81609917 C41.92285918 162.05750239 41.91607722 164.29853748 41.90606689 166.53991699 C41.90531284 167.79648857 41.90455879 169.05306015 41.90378189 170.34770966 C41.65209961 173.25878906 41.65209961 173.25878906 39.65209961 175.25878906 C37.7166748 175.50602722 37.7166748 175.50602722 35.32592773 175.50170898 C34.43160034 175.50478561 33.53727295 175.50786224 32.61584473 175.5110321 C31.64812134 175.50384659 30.68039795 175.49666107 29.68334961 175.48925781 C28.69210083 175.48879959 27.70085205 175.48834137 26.67956543 175.48786926 C24.58136805 175.48484488 22.48317296 175.47695307 20.38500977 175.46459961 C17.16536544 175.4463642 13.94600889 175.44408975 10.72631836 175.44433594 C8.69115961 175.43942005 6.65600282 175.43359142 4.62084961 175.42675781 C3.16926453 175.42508858 3.16926453 175.42508858 1.68835449 175.42338562 C0.7940271 175.41700577 -0.10030029 175.41062592 -1.02172852 175.40405273 C-1.81067505 175.40024094 -2.59962158 175.39642914 -3.41247559 175.39250183 C-5.34790039 175.25878906 -5.34790039 175.25878906 -7.34790039 174.25878906 C-7.41789922 151.86733834 -7.47084372 129.47590559 -7.50333691 107.08436775 C-7.51882328 96.68820672 -7.53994652 86.29211357 -7.57421875 75.89599609 C-7.60406702 66.83754173 -7.6234625 57.77913651 -7.63016587 48.72063434 C-7.63408591 43.92167701 -7.64333506 39.12286029 -7.66509056 34.32394791 C-7.68538361 29.81126355 -7.69174884 25.29877835 -7.68722343 20.7860527 C-7.68805187 19.12594777 -7.69406018 17.46583648 -7.70551682 15.80577087 C-7.72034905 13.54662664 -7.71688864 11.28824352 -7.70866394 9.02908325 C-7.71142932 7.76253969 -7.7141947 6.49599613 -7.71704388 5.19107246 C-7.59522653 4.22341894 -7.47340918 3.25576542 -7.34790039 2.25878906 C-4.23131084 0.18106269 -3.53821337 0.00732151 0 0 Z " fill="#4D4C4B" transform="translate(710.347900390625,196.7412109375)"/>
<path d="M0 0 C1.20482529 -0.00637985 2.40965057 -0.0127597 3.65098572 -0.01933289 C4.94895584 -0.02044571 6.24692596 -0.02155853 7.58422852 -0.02270508 C8.93416886 -0.02592018 10.28410885 -0.02928445 11.63404846 -0.03279114 C14.46095589 -0.03877194 17.28783279 -0.04063209 20.11474609 -0.04003906 C23.7305748 -0.03993743 27.34620721 -0.05359577 30.9619894 -0.07081127 C33.7493021 -0.0819485 36.53656756 -0.08395775 39.32390022 -0.08342934 C41.3030607 -0.08517755 43.28220645 -0.09600586 45.26133728 -0.10697937 C46.46931473 -0.10390274 47.67729218 -0.10082611 48.921875 -0.09765625 C49.98236557 -0.09908127 51.04285614 -0.10050629 52.13548279 -0.10197449 C55.12739142 0.15396845 57.31565868 0.88549828 60.02563477 2.14526367 C60.02563477 2.80526367 60.02563477 3.46526367 60.02563477 4.14526367 C60.68563477 4.14526367 61.34563477 4.14526367 62.02563477 4.14526367 C62.27055664 4.62092773 62.51547852 5.0965918 62.76782227 5.58666992 C65.53359211 10.76533553 68.62775863 15.65366588 71.90063477 20.52026367 C72.33287354 21.16334473 72.7651123 21.80642578 73.21044922 22.46899414 C74.07270077 23.75098567 74.93508473 25.03288815 75.79760742 26.31469727 C77.58176272 28.97425918 79.34416031 31.64668342 81.08813477 34.33276367 C81.63598633 35.17194336 82.18383789 36.01112305 82.74829102 36.87573242 C83.94616683 39.00406835 84.58108016 40.7578408 85.02563477 43.14526367 C85.68563477 43.14526367 86.34563477 43.14526367 87.02563477 43.14526367 C89.06732961 46.05075249 90.02563477 47.54668413 90.02563477 51.14526367 C90.68563477 51.14526367 91.34563477 51.14526367 92.02563477 51.14526367 C93.49872588 53.24545381 94.83873112 55.32294096 96.15063477 57.52026367 C96.52317383 58.12354492 96.89571289 58.72682617 97.27954102 59.34838867 C100.02563477 63.87491683 100.02563477 63.87491683 100.02563477 66.14526367 C100.68563477 66.14526367 101.34563477 66.14526367 102.02563477 66.14526367 C102.35563477 67.13526367 102.68563477 68.12526367 103.02563477 69.14526367 C103.68563477 69.47526367 104.34563477 69.80526367 105.02563477 70.14526367 C105.25250977 69.49170898 105.47938477 68.8381543 105.71313477 68.16479492 C107.45953899 64.14702569 109.70566858 60.54139533 112.02563477 56.83276367 C112.47680664 56.09219727 112.92797852 55.35163086 113.39282227 54.58862305 C114.04637695 53.53964844 114.04637695 53.53964844 114.71313477 52.46948242 C115.10887695 51.83099365 115.50461914 51.19250488 115.91235352 50.53466797 C116.27973633 50.07616455 116.64711914 49.61766113 117.02563477 49.14526367 C117.68563477 49.14526367 118.34563477 49.14526367 119.02563477 49.14526367 C119.25508789 48.4775293 119.48454102 47.80979492 119.72094727 47.12182617 C121.39620188 43.2998381 123.59742226 39.99017425 125.90063477 36.52026367 C129.05126478 31.72598729 132.18060157 26.92409739 135.20922852 22.05151367 C135.73210449 21.21185059 136.25498047 20.3721875 136.79370117 19.50708008 C137.79653841 17.8923314 138.79516408 16.2749567 139.78881836 14.65454102 C147.72936821 1.91068586 147.72936821 1.91068586 153.02563477 0.14526367 C155.04388866 0.0462509 157.06526847 0.00699923 159.0859375 0 C160.33410751 -0.00637985 161.58227753 -0.0127597 162.86827087 -0.01933289 C164.23192303 -0.02086155 165.5955757 -0.02197552 166.95922852 -0.02270508 C168.35783421 -0.02591866 169.75643957 -0.02928281 171.15504456 -0.03279114 C174.08628112 -0.03877799 177.01748822 -0.04063147 179.94873047 -0.04003906 C183.70256686 -0.03993742 187.45621419 -0.05359358 191.21000576 -0.07081127 C194.09850429 -0.08193558 196.98695717 -0.08395815 199.87547493 -0.08342934 C201.25934565 -0.08460865 202.64321758 -0.08902772 204.02706718 -0.0967617 C205.96333247 -0.10657046 207.89965322 -0.102417 209.8359375 -0.09765625 C210.93719467 -0.09908127 212.03845184 -0.10050629 213.17308044 -0.10197449 C216.03307024 0.14590812 217.65340805 0.56303866 220.02563477 2.14526367 C221.58813477 4.64526367 221.58813477 4.64526367 222.02563477 8.14526367 C219.96335211 14.37507586 216.06957252 19.75200032 212.26000977 25.02807617 C209.20167162 29.29477869 206.24044291 33.62574934 203.27563477 37.95776367 C202.70844727 38.78268311 202.14125977 39.60760254 201.55688477 40.45751953 C199.35554628 43.67075304 197.20085172 46.84018459 195.26000977 50.21948242 C194.85266602 50.85499023 194.44532227 51.49049805 194.02563477 52.14526367 C193.36563477 52.14526367 192.70563477 52.14526367 192.02563477 52.14526367 C191.80262695 52.81299805 191.57961914 53.48073242 191.34985352 54.16870117 C189.62230118 58.05187191 187.28919426 61.31188001 184.83813477 64.77026367 C180.81468882 70.51068795 176.97961777 76.29267579 173.36547852 82.30151367 C172.92333008 82.90995117 172.48118164 83.51838867 172.02563477 84.14526367 C171.36563477 84.14526367 170.70563477 84.14526367 170.02563477 84.14526367 C169.69563477 85.46526367 169.36563477 86.78526367 169.02563477 88.14526367 C168.36563477 88.14526367 167.70563477 88.14526367 167.02563477 88.14526367 C166.80520508 88.80913086 166.58477539 89.47299805 166.35766602 90.15698242 C164.59661795 94.10772074 162.20703647 97.43715609 159.71313477 100.95776367 C158.75696463 102.31721645 157.80253284 103.67789357 156.84985352 105.03979492 C156.38111816 105.70833496 155.91238281 106.376875 155.42944336 107.06567383 C153.5379686 109.86768809 151.81626068 112.76255333 150.11474609 115.68310547 C149.57563599 116.40687378 149.57563599 116.40687378 149.02563477 117.14526367 C148.36563477 117.14526367 147.70563477 117.14526367 147.02563477 117.14526367 C147.57669385 121.09452047 148.41498847 124.49446541 150.02563477 128.14526367 C150.68563477 128.14526367 151.34563477 128.14526367 152.02563477 128.14526367 C152.59282227 129.15073242 153.16000977 130.15620117 153.74438477 131.19213867 C155.91348588 134.9861629 158.19859284 138.69659134 160.52563477 142.39526367 C160.94780273 143.06912109 161.3699707 143.74297852 161.80493164 144.43725586 C164.28353832 148.3889967 166.77623911 152.33164255 169.27563477 156.27026367 C169.81639648 157.12330078 170.3571582 157.97633789 170.91430664 158.85522461 C171.97108481 160.52109129 173.02961895 162.18584561 174.09008789 163.84936523 C174.57413086 164.61216797 175.05817383 165.3749707 175.55688477 166.16088867 C176.19980469 167.17070801 176.19980469 167.17070801 176.85571289 168.20092773 C179.79564996 173.08691664 180.13761141 175.36298515 179.02563477 181.14526367 C173.03145354 181.65905063 169.5779437 178.6859484 165.02563477 175.14526367 C167.00563477 175.47526367 168.98563477 175.80526367 171.02563477 176.14526367 C171.02563477 174.82526367 171.02563477 173.50526367 171.02563477 172.14526367 C170.36563477 172.14526367 169.70563477 172.14526367 169.02563477 172.14526367 C166.02563477 166.39526367 166.02563477 166.39526367 166.02563477 164.14526367 C165.36563477 164.14526367 164.70563477 164.14526367 164.02563477 164.14526367 C163.63891602 163.42081055 163.25219727 162.69635742 162.85375977 161.94995117 C159.50474946 155.66537852 159.50474946 155.66537852 155.71313477 149.64526367 C154.02563477 147.14526367 154.02563477 147.14526367 153.02563477 144.14526367 C152.55125977 143.71213867 152.07688477 143.27901367 151.58813477 142.83276367 C149.46067271 140.53510465 148.88435469 138.11775571 148.02563477 135.14526367 C147.36563477 135.14526367 146.70563477 135.14526367 146.02563477 135.14526367 C145.69563477 133.82526367 145.36563477 132.50526367 145.02563477 131.14526367 C144.36563477 131.14526367 143.70563477 131.14526367 143.02563477 131.14526367 C142.20726034 129.73198238 141.39617257 128.31448022 140.58813477 126.89526367 C140.13567383 126.10635742 139.68321289 125.31745117 139.21704102 124.50463867 C137.21762479 120.545139 137.21762479 120.545139 137.02563477 118.14526367 C138.17797852 116.20776367 138.17797852 116.20776367 139.96313477 114.14526367 C142.91115655 110.58062378 145.55323338 106.9536266 148.08813477 103.08276367 C150.27449123 99.75515422 152.46810983 96.48476781 154.90063477 93.33276367 C157.63823917 89.75846516 160.1154463 86.02983875 162.58813477 82.27026367 C166.38015431 76.51265602 170.33394939 70.89938663 174.40063477 65.33276367 C179.40645306 58.47597393 184.18015879 51.49766598 188.8527832 44.41040039 C192.10917674 39.48242044 195.50136391 34.68790979 199.01391602 29.93823242 C201.53708251 26.43519545 203.94441686 22.86257699 206.33813477 19.27026367 C206.7591748 18.63902588 207.18021484 18.00778809 207.61401367 17.35742188 C209.84341509 13.9935667 211.94554901 10.61207327 214.02563477 7.14526367 C193.89563477 7.14526367 173.76563477 7.14526367 153.02563477 7.14526367 C153.02563477 8.13526367 153.02563477 9.12526367 153.02563477 10.14526367 C152.36563477 10.14526367 151.70563477 10.14526367 151.02563477 10.14526367 C150.77555664 10.84264648 150.52547852 11.5400293 150.26782227 12.25854492 C148.85505076 15.54168373 147.10403612 18.33826379 145.15063477 21.33276367 C144.7598877 21.9337085 144.36914062 22.53465332 143.96655273 23.15380859 C140.22879195 28.8827606 136.4204038 34.56521219 132.61669922 40.25048828 C127.77766643 47.49177985 123.04004829 54.79610781 118.3293457 62.12133789 C117.02658605 64.14378687 115.71823596 66.16251748 114.40844727 68.18041992 C113.5932899 69.43950006 112.77818319 70.69861301 111.96313477 71.95776367 C111.2502832 73.05733398 110.53743164 74.1569043 109.80297852 75.28979492 C108.40125574 77.54179349 107.14683484 79.74601171 106.02563477 82.14526367 C104.15063477 81.89526367 104.15063477 81.89526367 102.02563477 81.14526367 C100.77563477 79.08276367 100.77563477 79.08276367 100.02563477 77.14526367 C99.36563477 77.14526367 98.70563477 77.14526367 98.02563477 77.14526367 C97.70272461 76.16879883 97.70272461 76.16879883 97.37329102 75.17260742 C95.52617267 71.0232836 93.01952792 67.45054485 90.46313477 63.70776367 C89.3723444 62.09251711 88.28250979 60.47662473 87.19360352 58.86010742 C86.65525879 58.0620166 86.11691406 57.26392578 85.56225586 56.44165039 C83.42334386 53.24517656 81.34293067 50.01335138 79.27563477 46.77026367 C75.27460821 40.50599394 71.16478621 34.31891328 67.02563477 28.14526367 C65.96295378 26.5412169 64.90043906 24.93705995 63.83813477 23.33276367 C62.03174955 20.60837942 60.15997364 17.95821495 58.21313477 15.33276367 C56.02563477 12.14526367 56.02563477 12.14526367 55.02563477 8.14526367 C25.32563477 7.65026367 25.32563477 7.65026367 -4.97436523 7.14526367 C-4.64436523 8.79526367 -4.31436523 10.44526367 -3.97436523 12.14526367 C-2.64338549 12.81661689 -1.30956727 13.48234757 0.02563477 14.14526367 C1.68887169 16.3483231 3.18131529 18.50731448 4.65063477 20.83276367 C5.54885226 22.21702103 6.44729535 23.60113204 7.34594727 24.98510742 C7.79744141 25.68748535 8.24893555 26.38986328 8.71411133 27.11352539 C10.61814197 30.06314248 12.57131799 32.97883457 14.52563477 35.89526367 C15.34105227 37.11771097 16.15613174 38.34038379 16.97094727 39.56323242 C17.66365723 40.60229736 17.66365723 40.60229736 18.37036133 41.66235352 C45.52563477 82.39526367 45.52563477 82.39526367 47.61547852 85.53198242 C49.39616077 88.20338322 51.18100781 90.87196897 52.96704102 93.53979492 C55.53685561 97.37975707 58.09602094 101.2266563 60.6496582 105.07739258 C61.86325135 106.90122756 63.08731382 108.71742138 64.31469727 110.53198242 C64.94118164 111.47686523 65.56766602 112.42174805 66.21313477 113.39526367 C66.74293945 114.18416992 67.27274414 114.97307617 67.81860352 115.78588867 C69.29171924 118.66537702 69.87202604 120.9109467 70.02563477 124.14526367 C68.87329102 126.27807617 68.87329102 126.27807617 67.08813477 128.27026367 C64.29779101 131.58139851 61.77421782 134.89662728 59.40063477 138.52026367 C51.80054153 150.06826526 44.03278673 161.5079662 35.83032227 172.63745117 C33.92595791 175.28377566 32.12768771 177.98259384 30.33813477 180.70776367 C25.32891458 188.29540368 19.9509684 195.6125754 14.60668945 202.96606445 C10.71178004 208.3344958 6.85884428 213.7326518 3.02563477 219.14526367 C2.61265137 219.72711426 2.19966797 220.30896484 1.77416992 220.90844727 C0.54054288 222.65062881 -0.68665618 224.3971547 -1.91186523 226.14526367 C-2.62213867 227.15588867 -3.33241211 228.16651367 -4.06420898 229.20776367 C-6.32268762 232.56022151 -6.32268762 232.56022151 -8.97436523 238.14526367 C10.82563477 238.14526367 30.62563477 238.14526367 51.02563477 238.14526367 C51.35563477 236.82526367 51.68563477 235.50526367 52.02563477 234.14526367 C53.29011894 231.98786357 54.58308949 229.91329087 55.96313477 227.83276367 C56.3664502 227.21522217 56.76976562 226.59768066 57.18530273 225.96142578 C60.38110921 221.08144285 63.62414582 216.23229538 66.87109375 211.38623047 C70.80532225 205.50465959 74.66646238 199.57626816 78.52563477 193.64526367 C84.30070888 184.77203894 90.13027697 175.93889792 96.02563477 167.14526367 C97.23452936 165.33313797 98.44294814 163.52069464 99.65063477 161.70776367 C100.44230143 160.52026367 101.2339681 159.33276367 102.02563477 158.14526367 C103.77172852 158.27416992 103.77172852 158.27416992 106.02563477 159.14526367 C107.99829102 161.67260742 107.99829102 161.67260742 110.08813477 165.08276367 C110.46446045 165.69087891 110.84078613 166.29899414 111.22851562 166.92553711 C112.05294316 168.26161484 112.87176731 169.60116177 113.68579102 170.94360352 C115.12563056 173.30957892 116.58960191 175.65949936 118.05688477 178.00854492 C119.06808119 179.63696723 120.07850876 181.26586724 121.08813477 182.89526367 C121.57741455 183.68151123 122.06669434 184.46775879 122.57080078 185.27783203 C123.02124756 186.01267822 123.47169434 186.74752441 123.93579102 187.50463867 C124.33934814 188.15916016 124.74290527 188.81368164 125.15869141 189.48803711 C126.02563477 191.14526367 126.02563477 191.14526367 126.02563477 193.14526367 C126.68563477 193.14526367 127.34563477 193.14526367 128.02563477 193.14526367 C129.15136719 194.63891602 129.15136719 194.63891602 130.38110352 196.73120117 C130.83517578 197.49239258 131.28924805 198.25358398 131.75708008 199.0378418 C132.23757813 199.85704102 132.71807617 200.67624023 133.21313477 201.52026367 C137.79814778 209.18485221 142.61175281 216.54455158 147.93579102 223.71948242 C151.4006563 228.47922549 153.88914053 232.33651535 155.02563477 238.14526367 C156.34563477 237.81526367 157.66563477 237.48526367 159.02563477 237.14526367 C159.02563477 239.45526367 159.02563477 241.76526367 159.02563477 244.14526367 C155.83813477 244.45776367 155.83813477 244.45776367 152.02563477 244.14526367 C147.80035259 240.58819705 145.1328064 236.44681736 142.33813477 231.77026367 C138.51366271 225.50193509 134.5569601 219.35278618 130.42529297 213.2824707 C128.19843929 209.98922986 126.16976177 206.65263828 124.22241211 203.18310547 C121.49729217 198.54284106 118.47807664 194.08022124 115.52563477 189.58276367 C114.86176758 188.56762695 114.19790039 187.55249023 113.51391602 186.5065918 C110.37177849 181.70558127 107.21969103 176.91190376 104.02563477 172.14526367 C101.11159525 174.89935251 98.86929596 177.66880479 96.70532227 181.03979492 C95.78589844 182.46243652 95.78589844 182.46243652 94.84790039 183.91381836 C94.20530273 184.91832031 93.56270508 185.92282227 92.90063477 186.95776367 C91.55490309 189.04280099 90.20854817 191.12743619 88.86157227 193.21166992 C88.20640625 194.2276123 87.55124023 195.24355469 86.8762207 196.2902832 C84.46127601 200.0159248 82.00148233 203.7099278 79.52563477 207.39526367 C76.80867741 211.44773951 74.13111846 215.51991449 71.52563477 219.64526367 C68.67204551 224.15271464 65.77347934 228.62824954 62.83813477 233.08276367 C62.42176758 233.72213867 62.00540039 234.36151367 61.57641602 235.02026367 C55.96390175 243.49300155 55.96390175 243.49300155 52.26573181 244.73750305 C49.55387383 245.23113742 46.99241225 245.28026414 44.23486328 245.29052734 C43.0700795 245.2969072 41.90529572 245.30328705 40.70521545 245.30986023 C38.82388161 245.31152946 38.82388161 245.31152946 36.90454102 245.31323242 C34.96646828 245.31822502 34.96646828 245.31822502 32.98924255 245.32331848 C30.25649174 245.32929855 27.52377251 245.3311595 24.79101562 245.33056641 C21.29625243 245.33046477 17.80169234 245.34412307 14.30697727 245.36133862 C10.96449548 245.37515579 7.622051 245.37454789 4.27954102 245.37573242 C3.02734268 245.38291794 1.77514435 245.39010345 0.48500061 245.39750671 C-0.68293533 245.39443008 -1.85087128 245.39135345 -3.05419922 245.38818359 C-4.07916 245.38960861 -5.10412079 245.39103363 -6.16014099 245.39250183 C-10.27411095 245.03107706 -13.04432596 244.07530295 -15.97436523 241.14526367 C-16.56292536 235.62337935 -15.62618565 232.79133715 -12.41186523 228.33276367 C-11.68483398 227.3040918 -10.95780273 226.27541992 -10.20874023 225.21557617 C-9.47139648 224.20237305 -8.73405273 223.18916992 -7.97436523 222.14526367 C-6.70055793 220.33485251 -5.42948226 218.52251454 -4.16186523 216.70776367 C-3.34782227 215.56500977 -3.34782227 215.56500977 -2.51733398 214.39916992 C-0.89716622 212.1015937 -0.89716622 212.1015937 0.59985352 209.36010742 C1.07036133 208.62920898 1.54086914 207.89831055 2.02563477 207.14526367 C2.68563477 207.14526367 3.34563477 207.14526367 4.02563477 207.14526367 C4.42782227 206.05665039 4.42782227 206.05665039 4.83813477 204.94604492 C6.01233858 202.17662344 7.36506716 199.83606933 9.02563477 197.33276367 C9.54125977 196.54256836 10.05688477 195.75237305 10.58813477 194.93823242 C11.06250977 194.34655273 11.53688477 193.75487305 12.02563477 193.14526367 C12.68563477 193.14526367 13.34563477 193.14526367 14.02563477 193.14526367 C14.24606445 192.48139648 14.46649414 191.8175293 14.69360352 191.13354492 C16.45465158 187.1828066 18.84423306 183.85337126 21.33813477 180.33276367 C22.2943049 178.97331089 23.2487367 177.61263378 24.20141602 176.25073242 C24.67015137 175.58219238 25.13888672 174.91365234 25.62182617 174.22485352 C27.51330093 171.42283926 29.23500885 168.52797401 30.93652344 165.60742188 C31.47563354 164.88365356 31.47563354 164.88365356 32.02563477 164.14526367 C32.68563477 164.14526367 33.34563477 164.14526367 34.02563477 164.14526367 C34.33500977 163.36151367 34.64438477 162.57776367 34.96313477 161.77026367 C36.02563477 159.14526367 36.02563477 159.14526367 37.02563477 157.14526367 C37.68563477 157.14526367 38.34563477 157.14526367 39.02563477 157.14526367 C39.2615332 156.46463867 39.49743164 155.78401367 39.74047852 155.08276367 C41.31075654 151.49355676 43.39014873 148.36861499 45.58813477 145.14526367 C46.02488525 144.49243408 46.46163574 143.83960449 46.91162109 143.16699219 C49.11562583 139.88776642 51.36532324 136.65733626 53.72094727 133.48510742 C54.35021118 132.62369141 54.35021118 132.62369141 54.9921875 131.74487305 C56.1498075 130.16897283 57.32741563 128.60781268 58.50610352 127.04760742 C60.24371378 124.26208261 60.24371378 124.26208261 60.06079102 121.23901367 C58.72062207 117.23367856 56.69453129 114.14385512 54.27563477 110.70776367 C53.84508789 110.07805664 53.41454102 109.44834961 52.97094727 108.79956055 C51.21453635 106.24119555 49.44328578 103.70264976 47.58227539 101.21899414 C44.02563477 96.44461796 44.02563477 96.44461796 44.02563477 93.14526367 C43.36563477 93.14526367 42.70563477 93.14526367 42.02563477 93.14526367 C40.55254365 91.04507353 39.21253841 88.96758639 37.90063477 86.77026367 C37.5280957 86.16698242 37.15555664 85.56370117 36.77172852 84.94213867 C34.02563477 80.41561051 34.02563477 80.41561051 34.02563477 78.14526367 C33.36563477 78.14526367 32.70563477 78.14526367 32.02563477 78.14526367 C30.55254365 76.04507353 29.21253841 73.96758639 27.90063477 71.77026367 C27.5280957 71.16698242 27.15555664 70.56370117 26.77172852 69.94213867 C24.02563477 65.41561051 24.02563477 65.41561051 24.02563477 63.14526367 C23.36563477 63.14526367 22.70563477 63.14526367 22.02563477 63.14526367 C20.61328125 61.20922852 20.61328125 61.20922852 18.95922852 58.48120117 C16.27487741 54.14040055 13.53073099 49.8593985 10.68579102 45.62182617 C10.31118744 45.06291687 9.93658386 44.50400757 9.55062866 43.92816162 C8.0143326 41.63639782 6.47580538 39.34614701 4.93505859 37.05737305 C2.27442977 33.1023079 -0.35919597 29.13051426 -2.97436523 25.14526367 C-3.35683411 24.56788452 -3.73930298 23.99050537 -4.13336182 23.39562988 C-5.26208413 21.68263691 -6.37231639 19.9589584 -7.47827148 18.23120117 C-8.12739502 17.22879395 -8.77651855 16.22638672 -9.4453125 15.19360352 C-11.48140633 11.13441981 -12.57449641 7.21844409 -11.28686523 2.77026367 C-8.55098735 -0.61701371 -4.04614064 0.01455426 0 0 Z " fill="#F2F8F1" transform="translate(787.974365234375,133.854736328125)"/>
<path d="M0 0 C2.61108792 0.89523014 4.98194155 2.05241079 7.4375 3.3125 C8.32953125 3.76753906 9.2215625 4.22257812 10.140625 4.69140625 C11.15382813 5.21541016 11.15382813 5.21541016 12.1875 5.75 C12.1875 6.41 12.1875 7.07 12.1875 7.75 C12.85394531 7.98332031 13.52039063 8.21664063 14.20703125 8.45703125 C18.00784259 10.10587601 21.38240356 12.22139389 24.875 14.4375 C25.93412598 15.10362305 25.93412598 15.10362305 27.01464844 15.78320312 C31.83882577 18.83770737 36.5530775 22.01587455 41.171875 25.375 C43.11543669 26.70084053 45.05951191 27.75310468 47.1875 28.75 C47.1875 29.41 47.1875 30.07 47.1875 30.75 C47.91364502 31.01804443 48.63979004 31.28608887 49.38793945 31.56225586 C52.15806672 32.73751261 54.47304642 34.09754609 56.98046875 35.75390625 C57.85767578 36.32947266 58.73488281 36.90503906 59.63867188 37.49804688 C60.54166016 38.09681641 61.44464844 38.69558594 62.375 39.3125 C64.18044256 40.50213269 65.98640636 41.69097482 67.79296875 42.87890625 C68.58856201 43.40556885 69.38415527 43.93223145 70.20385742 44.47485352 C72.14946133 45.77575703 72.14946133 45.77575703 74.1875 46.75 C74.1875 47.41 74.1875 48.07 74.1875 48.75 C74.88875 48.976875 75.59 49.20375 76.3125 49.4375 C80.70927975 51.44472554 84.32819843 53.79270199 86.3125 58.3125 C86.1875 60.75 86.1875 60.75 84.5546875 62.73046875 C81.88386159 65.00904465 79.43626911 66.18424851 76.1875 67.5 C75.15625 67.92796875 74.125 68.3559375 73.0625 68.796875 C70.1875 69.75 70.1875 69.75 66.1875 69.75 C66.80625 70.801875 67.425 71.85375 68.0625 72.9375 C69.70329108 75.80015677 71.05734453 78.64207246 72.1875 81.75 C72.8475 81.75 73.5075 81.75 74.1875 81.75 C75.80859375 84.015625 75.80859375 84.015625 77.625 87 C80.10522957 91.06391285 80.10522957 91.06391285 82.87890625 94.92578125 C84.8549839 97.68049248 84.72650388 99.44860125 84.1875 102.75 C80.57649003 107.02870616 76.80166113 109.29333334 71.8125 111.5625 C70.86117187 112.02946289 70.86117187 112.02946289 69.890625 112.50585938 C65.54016258 114.52571693 62.06635334 115.26763444 57.1875 114.75 C54.3214542 112.50700764 52.58821927 110.89050868 51.375 107.4375 C51.2821875 106.6021875 51.2821875 106.6021875 51.1875 105.75 C50.5275 105.75 49.8675 105.75 49.1875 105.75 C47.87475586 104.23706055 47.87475586 104.23706055 46.40234375 102.13671875 C45.87189453 101.38326172 45.34144531 100.62980469 44.79492188 99.85351562 C44.24384766 99.05623047 43.69277344 98.25894531 43.125 97.4375 C42.57005859 96.65181641 42.01511719 95.86613281 41.44335938 95.05664062 C37.32501334 89.16254003 37.32501334 89.16254003 36.1875 85.75 C35.5275 85.75 34.8675 85.75 34.1875 85.75 C33.878125 86.36875 33.56875 86.9875 33.25 87.625 C32.5625 89 31.875 90.375 31.1875 91.75 C30.5275 91.75 29.8675 91.75 29.1875 91.75 C29.1875 92.41 29.1875 93.07 29.1875 93.75 C28.5275 93.75 27.8675 93.75 27.1875 93.75 C26.960625 94.306875 26.73375 94.86375 26.5 95.4375 C24.21145941 99.46969057 21.01162102 102.20058599 17.1875 104.75 C11.74305556 104.30555556 11.74305556 104.30555556 9.1875 101.75 C8.64086914 99.46606445 8.64086914 99.46606445 8.22265625 96.61328125 C8.06410156 95.56930176 7.90554688 94.52532227 7.7421875 93.44970703 C7.57976563 92.33192871 7.41734375 91.21415039 7.25 90.0625 C6.89942253 87.75355783 6.54657048 85.44495983 6.19140625 83.13671875 C6.02012207 82.02345215 5.84883789 80.91018555 5.67236328 79.76318359 C5.11043175 76.27105922 4.42938607 72.83308097 3.6875 69.375 C1.53197313 59.03081397 0.17637692 48.54642776 -1.33056641 38.09228516 C-2.04415634 33.14342688 -2.76838377 28.19622203 -3.5 23.25 C-3.67885742 22.01407104 -3.67885742 22.01407104 -3.86132812 20.75317383 C-4.32188647 17.6394134 -4.81484352 14.74296944 -5.8125 11.75 C-6.38131666 4.58291011 -6.38131666 4.58291011 -4.0625 1.1875 C-1.8125 -0.25 -1.8125 -0.25 0 0 Z " fill="#78BA46" transform="translate(945.8125,307.25)"/>
<path d="M0 0 C2.61108792 0.89523014 4.98194155 2.05241079 7.4375 3.3125 C8.32953125 3.76753906 9.2215625 4.22257812 10.140625 4.69140625 C11.15382813 5.21541016 11.15382813 5.21541016 12.1875 5.75 C12.1875 6.41 12.1875 7.07 12.1875 7.75 C12.85394531 7.98332031 13.52039063 8.21664063 14.20703125 8.45703125 C18.00784259 10.10587601 21.38240356 12.22139389 24.875 14.4375 C25.93412598 15.10362305 25.93412598 15.10362305 27.01464844 15.78320312 C31.83882577 18.83770737 36.5530775 22.01587455 41.171875 25.375 C43.11543669 26.70084053 45.05951191 27.75310468 47.1875 28.75 C47.1875 29.41 47.1875 30.07 47.1875 30.75 C47.91364502 31.01804443 48.63979004 31.28608887 49.38793945 31.56225586 C52.15806672 32.73751261 54.47304642 34.09754609 56.98046875 35.75390625 C57.85767578 36.32947266 58.73488281 36.90503906 59.63867188 37.49804688 C60.54166016 38.09681641 61.44464844 38.69558594 62.375 39.3125 C64.18044256 40.50213269 65.98640636 41.69097482 67.79296875 42.87890625 C68.58856201 43.40556885 69.38415527 43.93223145 70.20385742 44.47485352 C72.14946133 45.77575703 72.14946133 45.77575703 74.1875 46.75 C74.1875 47.41 74.1875 48.07 74.1875 48.75 C74.88875 48.976875 75.59 49.20375 76.3125 49.4375 C80.70927975 51.44472554 84.32819843 53.79270199 86.3125 58.3125 C86.1875 60.75 86.1875 60.75 84.5546875 62.73046875 C81.88386159 65.00904465 79.43626911 66.18424851 76.1875 67.5 C75.15625 67.92796875 74.125 68.3559375 73.0625 68.796875 C70.1875 69.75 70.1875 69.75 66.1875 69.75 C66.80625 70.801875 67.425 71.85375 68.0625 72.9375 C69.70329108 75.80015677 71.05734453 78.64207246 72.1875 81.75 C72.8475 81.75 73.5075 81.75 74.1875 81.75 C75.80859375 84.015625 75.80859375 84.015625 77.625 87 C80.10522957 91.06391285 80.10522957 91.06391285 82.87890625 94.92578125 C84.8549839 97.68049248 84.72650388 99.44860125 84.1875 102.75 C80.57649003 107.02870616 76.80166113 109.29333334 71.8125 111.5625 C70.86117187 112.02946289 70.86117187 112.02946289 69.890625 112.50585938 C65.54016258 114.52571693 62.06635334 115.26763444 57.1875 114.75 C54.3214542 112.50700764 52.58821927 110.89050868 51.375 107.4375 C51.2821875 106.6021875 51.2821875 106.6021875 51.1875 105.75 C50.5275 105.75 49.8675 105.75 49.1875 105.75 C47.87475586 104.23706055 47.87475586 104.23706055 46.40234375 102.13671875 C45.87189453 101.38326172 45.34144531 100.62980469 44.79492188 99.85351562 C44.24384766 99.05623047 43.69277344 98.25894531 43.125 97.4375 C42.57005859 96.65181641 42.01511719 95.86613281 41.44335938 95.05664062 C37.32501334 89.16254003 37.32501334 89.16254003 36.1875 85.75 C35.5275 85.75 34.8675 85.75 34.1875 85.75 C33.878125 86.36875 33.56875 86.9875 33.25 87.625 C32.5625 89 31.875 90.375 31.1875 91.75 C30.5275 91.75 29.8675 91.75 29.1875 91.75 C29.1875 92.41 29.1875 93.07 29.1875 93.75 C28.5275 93.75 27.8675 93.75 27.1875 93.75 C26.960625 94.306875 26.73375 94.86375 26.5 95.4375 C24.21145941 99.46969057 21.01162102 102.20058599 17.1875 104.75 C11.74305556 104.30555556 11.74305556 104.30555556 9.1875 101.75 C8.64086914 99.46606445 8.64086914 99.46606445 8.22265625 96.61328125 C8.06410156 95.56930176 7.90554688 94.52532227 7.7421875 93.44970703 C7.57976563 92.33192871 7.41734375 91.21415039 7.25 90.0625 C6.89942253 87.75355783 6.54657048 85.44495983 6.19140625 83.13671875 C6.02012207 82.02345215 5.84883789 80.91018555 5.67236328 79.76318359 C5.11043175 76.27105922 4.42938607 72.83308097 3.6875 69.375 C1.53197313 59.03081397 0.17637692 48.54642776 -1.33056641 38.09228516 C-2.04415634 33.14342688 -2.76838377 28.19622203 -3.5 23.25 C-3.67885742 22.01407104 -3.67885742 22.01407104 -3.86132812 20.75317383 C-4.32188647 17.6394134 -4.81484352 14.74296944 -5.8125 11.75 C-6.38131666 4.58291011 -6.38131666 4.58291011 -4.0625 1.1875 C-1.8125 -0.25 -1.8125 -0.25 0 0 Z M2.1875 9.75 C1.80695356 20.59557361 3.35188854 31.29368274 6.1875 41.75 C8.06736757 49.25478382 8.76497274 56.83836415 9.40234375 64.53027344 C9.84398053 69.51418322 10.74927136 73.93788162 12.1875 78.75 C12.80995662 81.88323776 13.31419621 85.03242343 13.8125 88.1875 C13.9465625 89.01443359 14.080625 89.84136719 14.21875 90.69335938 C14.54540775 92.71163765 14.86698215 94.73073757 15.1875 96.75 C18.34293521 95.38696103 20.11938133 93.9317387 22.25 91.25 C24.19622186 88.81335088 25.52143182 87.52737879 28.1875 85.75 C29.20616229 84.09467377 30.20560813 82.42739862 31.1875 80.75 C32.625 78.875 32.625 78.875 34.1875 77.75 C37.79727844 78.19786897 38.22981605 78.80022196 40.73828125 81.77734375 C41.66992943 83.07283582 42.58994221 84.37675103 43.5 85.6875 C43.983479 86.36538574 44.46695801 87.04327148 44.96508789 87.74169922 C46.38407238 89.7366509 47.78805055 91.7413119 49.1875 93.75 C49.89132812 94.75417969 50.59515625 95.75835937 51.3203125 96.79296875 C52.4664867 98.43284136 53.6100281 100.07455976 54.75 101.71875 C56.46628724 104.14393849 58.28564716 106.46777659 60.1875 108.75 C64.08358498 107.26095825 67.77847018 105.50621287 71.5 103.625 C72.56863281 103.08617187 73.63726563 102.54734375 74.73828125 101.9921875 C75.54652344 101.58226562 76.35476563 101.17234375 77.1875 100.75 C76.55634357 96.77180188 74.55718084 94.03890966 72.3125 90.75 C71.61382813 89.71875 70.91515625 88.6875 70.1953125 87.625 C69.53273438 86.67625 68.87015625 85.7275 68.1875 84.75 C67.64867187 83.96625 67.10984375 83.1825 66.5546875 82.375 C66.10351562 81.83875 65.65234375 81.3025 65.1875 80.75 C64.5275 80.75 63.8675 80.75 63.1875 80.75 C62.8471875 79.7909375 62.8471875 79.7909375 62.5 78.8125 C60.70184174 74.61679739 58.44845979 70.71099444 56.1875 66.75 C58.8275 66.09 61.4675 65.43 64.1875 64.75 C64.1875 64.09 64.1875 63.43 64.1875 62.75 C65.09242188 62.56824219 65.09242188 62.56824219 66.015625 62.3828125 C66.81484375 62.21523438 67.6140625 62.04765625 68.4375 61.875 C69.22640625 61.71257812 70.0153125 61.55015625 70.828125 61.3828125 C73.15581144 60.75849925 75.07781952 59.90161458 77.1875 58.75 C74.11505298 55.47025535 70.83060823 52.9724422 67.125 50.4375 C66.54991699 50.04361084 65.97483398 49.64972168 65.38232422 49.24389648 C61.03600904 46.28377153 56.61966108 43.44530746 52.1640625 40.65234375 C49.84595174 39.17082152 47.55535645 37.6646652 45.2734375 36.12890625 C44.59716309 35.67378662 43.92088867 35.21866699 43.22412109 34.74975586 C41.88910211 33.84859404 40.55601767 32.94455814 39.22509766 32.03735352 C36.56145208 30.24014847 34.25214862 28.77154954 31.1875 27.75 C31.1875 27.09 31.1875 26.43 31.1875 25.75 C30.19363281 25.36199219 29.19976563 24.97398437 28.17578125 24.57421875 C23.88260622 22.73521328 20.19364543 20.22605268 16.375 17.5625 C12.13545091 14.1659232 12.13545091 14.1659232 7.1875 12.75 C6.8575 11.76 6.5275 10.77 6.1875 9.75 C4.8675 9.75 3.5475 9.75 2.1875 9.75 Z " fill="#EFF6ED" transform="translate(945.8125,307.25)"/>
<path d="M0 0 C0.83272934 0.00222061 1.66545868 0.00444122 2.52342224 0.00672913 C3.46432205 0.00680466 4.40522186 0.00688019 5.37463379 0.00695801 C6.39754013 0.01211929 7.42044647 0.01728058 8.47434998 0.02259827 C9.51614914 0.02401321 10.5579483 0.02542816 11.63131714 0.02688599 C14.97355467 0.03250372 18.31572629 0.04505922 21.65794373 0.05775452 C23.91770839 0.06276723 26.17747409 0.06733053 28.4372406 0.07142639 C33.98999763 0.08247891 39.54271597 0.09923428 45.09544373 0.12025452 C46.78303207 3.49543121 46.2369773 7.3188105 46.22825623 11.03041077 C46.22921295 11.91305099 46.23016968 12.79569122 46.2311554 13.70507812 C46.23183641 15.57206799 46.22998757 17.43906021 46.22581482 19.30604553 C46.22045912 22.1745074 46.22576571 25.04281313 46.23216248 27.91127014 C46.23150181 29.72181736 46.23022087 31.53236449 46.22825623 33.34291077 C46.23028046 34.20642654 46.23230469 35.06994232 46.23439026 35.95962524 C46.21039812 42.00530013 46.21039812 42.00530013 45.09544373 43.12025452 C30.06286624 45.27918852 13.12802121 45.27918852 -1.90455627 43.12025452 C-3.82712803 41.19768277 -3.03364052 38.33940344 -3.04350281 35.7815094 C-3.04147858 34.89298279 -3.03945435 34.00445618 -3.03736877 33.08900452 C-3.0383255 32.1827533 -3.03928223 31.27650208 -3.04026794 30.3427887 C-3.04094981 28.42274405 -3.0390951 26.50269711 -3.03492737 24.58265686 C-3.0295792 21.63289748 -3.03487215 18.68329038 -3.04127502 15.73353577 C-3.04061424 13.87285835 -3.03933308 12.01218102 -3.03736877 10.15150452 C-3.03939301 9.26297791 -3.04141724 8.37445129 -3.04350281 7.45899963 C-3.01547778 0.19039859 -3.01547778 0.19039859 0 0 Z " fill="#4A4D4C" transform="translate(705.9045562744141,132.87974548339844)"/>
<path d="M0 0 C1.18613892 -0.00303131 2.37227783 -0.00606262 3.59436035 -0.00918579 C5.53260681 0.00152451 5.53260681 0.00152451 7.51000977 0.01245117 C8.8657631 0.01326544 10.22151711 0.01330127 11.57727051 0.01260376 C15.20302707 0.01365162 18.8286168 0.0279035 22.45432663 0.04548264 C24.69775271 0.05540372 26.9411587 0.06169125 29.18460083 0.06668091 C57.22231951 0.12975471 85.28024734 0.3200655 113.26391602 2.24291992 C113.26391602 2.57291992 113.26391602 2.90291992 113.26391602 3.24291992 C73.99391602 3.24291992 34.72391602 3.24291992 -5.73608398 3.24291992 C-5.73608398 77.49291992 -5.73608398 151.74291992 -5.73608398 228.24291992 C-4.74608398 228.57291992 -3.75608398 228.90291992 -2.73608398 229.24291992 C-4.39223056 229.62510759 -6.06065423 229.95687094 -7.73608398 230.24291992 C-9.60757761 228.3714263 -8.86706167 225.67305665 -8.87915158 223.18186575 C-8.8782851 222.30289757 -8.87741862 221.42392939 -8.87652588 220.51832581 C-8.879497 219.59191613 -8.88246812 218.66550645 -8.88552928 217.71102375 C-8.89425675 214.58175428 -8.89572792 211.45252289 -8.8972168 208.32324219 C-8.90184206 206.08991412 -8.90686632 203.85658684 -8.91226196 201.6232605 C-8.92541489 195.53866903 -8.93183638 189.45408861 -8.93627262 183.36948514 C-8.9391983 179.57318995 -8.9433021 175.77689783 -8.94777679 171.98060417 C-8.95988944 161.47808396 -8.97027057 150.97556556 -8.97365189 140.47303867 C-8.97387145 139.80042916 -8.97409102 139.12781965 -8.97431724 138.43482804 C-8.97453552 137.76057386 -8.97475379 137.08631969 -8.97497869 136.39163357 C-8.97542216 135.0252492 -8.97586872 133.65886483 -8.97631836 132.29248047 C-8.97653979 131.61470104 -8.97676122 130.93692161 -8.97698936 130.23860341 C-8.98093943 119.25012579 -8.99839895 108.26171441 -9.02167788 97.27326239 C-9.04536303 86.00247629 -9.05759417 74.73172232 -9.0590198 63.4609074 C-9.06007102 57.12832922 -9.0660458 50.79584442 -9.08383942 44.46328926 C-9.10024098 38.51013273 -9.10251435 32.55714056 -9.09370041 26.60396957 C-9.0929258 24.41333897 -9.09732793 22.22269982 -9.10715866 20.03209114 C-9.11974997 17.05269368 -9.11407178 14.07388975 -9.10357666 11.09449768 C-9.11163306 10.21776022 -9.11968947 9.34102276 -9.12799001 8.4377175 C-9.10802078 6.03136539 -9.10802078 6.03136539 -8.73608398 2.24291992 C-5.2960339 -0.0504468 -4.04707377 -0.00554815 0 0 Z " fill="#5C4746" transform="translate(198.736083984375,141.757080078125)"/>
<path d="M0 0 C2.61108792 0.89523014 4.98194155 2.05241079 7.4375 3.3125 C8.32953125 3.76753906 9.2215625 4.22257812 10.140625 4.69140625 C11.15382813 5.21541016 11.15382813 5.21541016 12.1875 5.75 C12.1875 6.41 12.1875 7.07 12.1875 7.75 C12.84878906 7.98074219 13.51007812 8.21148437 14.19140625 8.44921875 C18.07894553 10.13702915 21.54548038 12.30577407 25.125 14.5625 C25.81529297 14.98853516 26.50558594 15.41457031 27.21679688 15.85351562 C33.69315982 19.91121791 39.40079486 23.90480225 43.1875 30.75 C43.1875 32.07 43.1875 33.39 43.1875 34.75 C38.69735376 33.25328459 34.70901236 30.91631659 31.1875 27.75 C31.1875 27.09 31.1875 26.43 31.1875 25.75 C30.45756836 25.63970459 29.72763672 25.52940918 28.97558594 25.41577148 C26.03363635 24.71325865 24.12171155 23.71276392 21.578125 22.09765625 C20.32322266 21.30391602 20.32322266 21.30391602 19.04296875 20.49414062 C18.18316406 19.93919922 17.32335937 19.38425781 16.4375 18.8125 C15.12458984 17.98588867 15.12458984 17.98588867 13.78515625 17.14257812 C7.32213556 13.01927113 7.32213556 13.01927113 6.1875 10.75 C4.8675 10.42 3.5475 10.09 2.1875 9.75 C2.1875 12.72 2.1875 15.69 2.1875 18.75 C1.5275 18.09 0.8675 17.43 0.1875 16.75 C-1.13446208 17.83794214 -1.13446208 17.83794214 -0.83203125 20.49609375 C-0.37069591 28.72178988 0.87280502 36.35974044 2.80639648 44.36645508 C4.11868411 49.95632495 4.55912356 54.98983488 4.1875 60.75 C3.5275 60.42 2.8675 60.09 2.1875 59.75 C1.6028937 57.05212607 1.14348184 54.41883616 0.75 51.69140625 C0.62439697 50.87308823 0.49879395 50.0547702 0.36938477 49.21165466 C-0.03303561 46.57980603 -0.42322959 43.94632284 -0.8125 41.3125 C-1.32978323 37.8757596 -1.85194825 34.43977285 -2.375 31.00390625 C-2.49934418 30.18045715 -2.62368835 29.35700806 -2.75180054 28.50860596 C-3.51113805 23.53239014 -4.36175504 18.59503941 -5.44384766 13.67700195 C-6.10778059 10.20652337 -6.17799701 7.28313774 -5.8125 3.75 C-2.97160838 -0.40987702 -2.97160838 -0.40987702 0 0 Z " fill="#EEF5EB" transform="translate(945.8125,307.25)"/>
<path d="M0 0 C1.07461739 0.00539291 1.07461739 0.00539291 2.17094421 0.01089478 C2.92211517 0.01074875 3.67328613 0.01060272 4.44721985 0.01045227 C6.94166404 0.01115153 9.43603448 0.01894452 11.9304657 0.02676392 C13.65539509 0.02862805 15.38032501 0.03005197 17.10525513 0.03105164 C21.65418448 0.03487719 26.20308211 0.04470779 30.7519989 0.05575562 C35.39025951 0.06596893 40.02852522 0.07054908 44.66679382 0.07559204 C53.77422967 0.08633003 62.88164192 0.1034069 71.98905945 0.12442017 C67.06453368 3.40743734 62.04159306 3.24904188 56.24931335 3.23794556 C55.59438589 3.23806609 54.93945843 3.23818663 54.26468468 3.23831081 C52.16496138 3.23757017 50.06532917 3.22998105 47.96562195 3.22207642 C46.67422302 3.22106934 45.3828241 3.22006226 44.05229187 3.21902466 C39.23953867 3.2138023 34.42679814 3.19984104 29.61405945 3.18692017 C13.46468445 3.15598267 13.46468445 3.15598267 -3.01094055 3.12442017 C-3.34094055 26.55442017 -3.67094055 49.98442017 -4.01094055 74.12442017 C-5.00094055 74.61942017 -5.00094055 74.61942017 -6.01094055 75.12442017 C-6.0340652 65.49329305 -6.05185626 55.86217542 -6.06275272 46.23102665 C-6.06798129 41.75936468 -6.07507844 37.28772163 -6.08638 32.81607056 C-6.09720984 28.50430044 -6.10321759 24.19254858 -6.10581779 19.88076591 C-6.10767187 18.23205719 -6.11129215 16.58334951 -6.11667061 14.93464851 C-6.12388233 12.63338145 -6.12493144 10.33219077 -6.12446594 8.03091431 C-6.12668655 6.71853287 -6.12890717 5.40615143 -6.13119507 4.05400085 C-5.93367175 -0.75796405 -4.36292921 0.00923747 0 0 Z " fill="#5A4846" transform="translate(244.0109405517578,294.8755798339844)"/>
<path d="M0 0 C0.99 0.495 0.99 0.495 2 1 C2.01030746 1.8224118 2.02061493 2.64482361 2.03123474 3.49215698 C2.12910168 11.23229914 2.23160056 18.97235937 2.33933926 26.71236992 C2.39456799 30.6918445 2.4479879 34.67132644 2.49731445 38.65087891 C2.54495877 42.48939641 2.59730158 46.32782341 2.65294075 50.16623306 C2.67336401 51.63266886 2.69207715 53.09912947 2.70907402 54.56560898 C2.73311876 56.61528265 2.763173 58.66478482 2.79467773 60.71435547 C2.81799416 62.466418 2.81799416 62.466418 2.84178162 64.25387573 C2.81641289 66.96201406 2.81641289 66.96201406 4 69 C4.6064183 69.01030746 5.21283661 69.02061493 5.83763123 69.03123474 C12.1811576 69.1398851 18.52455856 69.25443092 24.86791992 69.37231445 C27.23149985 69.41547674 29.59510722 69.45716399 31.95874023 69.49731445 C35.36710864 69.55547284 38.77534131 69.61903326 42.18359375 69.68359375 C43.23083115 69.70030624 44.27806854 69.71701874 45.35704041 69.73423767 C51.30178772 69.85276456 57.10111218 70.24689347 63 71 C63 71.33 63 71.66 63 72 C55.08114422 72.04628946 47.16234474 72.08185182 39.24338722 72.10362434 C35.5665065 72.11407274 31.88971817 72.12825102 28.21289062 72.15087891 C24.66620345 72.17256991 21.11960528 72.18456067 17.5728569 72.18975449 C16.21802748 72.193457 14.86320306 72.20068689 13.50841141 72.21146011 C11.61454243 72.22592448 9.72058436 72.22681649 7.82666016 72.22705078 C6.74744293 72.231492 5.66822571 72.23593323 4.55630493 72.24050903 C2 72 2 72 0 70 C-0.24050903 67.10202026 -0.24050903 67.10202026 -0.22705078 63.34716797 C-0.22734283 62.66412598 -0.22763489 61.98108398 -0.22793579 61.27734375 C-0.22654039 59.01549659 -0.21096967 56.75397724 -0.1953125 54.4921875 C-0.19158311 52.92563049 -0.18873579 51.35907116 -0.18673706 49.79251099 C-0.17909476 45.66605203 -0.15944124 41.53973349 -0.1373291 37.41333008 C-0.11688346 33.20395813 -0.1077381 28.99456352 -0.09765625 24.78515625 C-0.07619583 16.523373 -0.04205279 8.26170396 0 0 Z " fill="#5A4947" transform="translate(238,186)"/>
<path d="M0 0 C0.86625 0.37125 0.86625 0.37125 1.75 0.75 C0.7909375 1.183125 0.7909375 1.183125 -0.1875 1.625 C-2.40206079 2.57823451 -2.40206079 2.57823451 -3.25 4.75 C-3.75434551 10.19223993 -3.06515427 15.24028149 -1.88671875 20.5390625 C-0.83671094 25.83419389 -0.13081284 31.18418944 0.60864258 36.53051758 C1.15058603 40.31162949 1.77664867 43.84259933 2.8359375 47.5234375 C3.7089212 50.60499535 3.96214948 53.00654382 3.875 56.1875 C3.85695313 57.05246094 3.83890625 57.91742188 3.8203125 58.80859375 C3.78550781 59.76958984 3.78550781 59.76958984 3.75 60.75 C3.09 60.42 2.43 60.09 1.75 59.75 C1.1653937 57.05212607 0.70598184 54.41883616 0.3125 51.69140625 C0.18689697 50.87308823 0.06129395 50.0547702 -0.06811523 49.21165466 C-0.47053561 46.57980603 -0.86072959 43.94632284 -1.25 41.3125 C-1.76728323 37.8757596 -2.28944825 34.43977285 -2.8125 31.00390625 C-2.93684418 30.18045715 -3.06118835 29.35700806 -3.18930054 28.50860596 C-3.94863805 23.53239014 -4.79925504 18.59503941 -5.88134766 13.67700195 C-6.54528059 10.20652337 -6.61549701 7.28313774 -6.25 3.75 C-3.42884131 -0.38098237 -3.42884131 -0.38098237 0 0 Z " fill="#CBE1B9" transform="translate(946.25,307.25)"/>
<path d="M0 0 C1.19579933 0.02997826 1.19579933 0.02997826 2.41575623 0.06056213 C3.76704369 0.09070656 3.76704369 0.09070656 5.14562988 0.12145996 C6.12478867 0.14849503 7.10394745 0.17553009 8.11277771 0.2033844 C9.11018478 0.22699539 10.10759186 0.25060638 11.13522339 0.27493286 C14.33491008 0.35177942 17.53436738 0.43571294 20.73387146 0.51979065 C22.89727153 0.57299034 25.06068294 0.62573085 27.22410583 0.67799377 C32.54000435 0.80742276 37.8557312 0.94267758 43.17137146 1.08229065 C43.17137146 1.41229065 43.17137146 1.74229065 43.17137146 2.08229065 C29.31137146 2.08229065 15.45137146 2.08229065 1.17137146 2.08229065 C0.18318859 6.03502212 -0.04881833 9.65480677 -0.14503479 13.69166565 C-0.16581589 14.41847534 -0.18659698 15.14528503 -0.20800781 15.89411926 C-0.27318366 18.20675056 -0.33223894 20.51949158 -0.39112854 22.83229065 C-0.4343442 24.4039164 -0.47795946 25.97553121 -0.52198792 27.5471344 C-0.6288321 31.39207518 -0.73018878 35.23712589 -0.82862854 39.08229065 C-1.15862854 39.08229065 -1.48862854 39.08229065 -1.82862854 39.08229065 C-2.63647599 29.9507293 -2.93653861 20.8739034 -2.95362854 11.70729065 C-2.95814026 10.67853821 -2.96265198 9.64978577 -2.96730042 8.58985901 C-2.96536682 7.63087708 -2.96343323 6.67189514 -2.96144104 5.68385315 C-2.96031311 4.82098694 -2.95918518 3.95812073 -2.95802307 3.06910706 C-2.78963404 0.48354108 -2.59973689 0.11699152 0 0 Z " fill="#574846" transform="translate(705.8286285400391,132.91770935058594)"/>
<path d="M0 0 C0.66 0 1.32 0 2 0 C3.12573242 1.38598633 3.12573242 1.38598633 4.35546875 3.33203125 C4.80986328 4.04335205 5.26425781 4.75467285 5.73242188 5.48754883 C6.45268555 6.63839966 6.45268555 6.63839966 7.1875 7.8125 C7.67927734 8.58553467 8.17105469 9.35856934 8.67773438 10.1550293 C10.1251185 12.43257263 11.56350512 14.71557768 13 17 C14.33120398 19.10552754 15.66538789 21.20912845 17 23.3125 C17.515625 24.13363281 18.03125 24.95476562 18.5625 25.80078125 C19.96042691 28.04271782 19.96042691 28.04271782 21.75 30.04296875 C23 32 23 32 22.6875 34.25 C22.460625 34.8275 22.23375 35.405 22 36 C16.38432942 28.69480102 11.49986447 21.09394896 6.77026367 13.19580078 C6.32400635 12.45185059 5.87774902 11.70790039 5.41796875 10.94140625 C5.02375732 10.27826416 4.6295459 9.61512207 4.22338867 8.93188477 C3.00310866 6.9257022 3.00310866 6.9257022 1.34887695 4.94116211 C0 3 0 3 0 0 Z " fill="#F2EDE9" transform="translate(850,142)"/>
<path d="M0 0 C0.33 0 0.66 0 1 0 C1.63629738 25.23979592 1.63629738 25.23979592 -4 36 C-6 33 -6 33 -5.57421875 30.75 C-5.13529297 29.38875 -5.13529297 29.38875 -4.6875 28 C-2.84699707 21.42908163 -2.53343678 15.10431415 -2.37963867 8.32421875 C-2.19787206 2.19787206 -2.19787206 2.19787206 0 0 Z " fill="#5B4744" transform="translate(535,279)"/>
<path d="M0 0 C0.66 0 1.32 0 2 0 C0.69612507 3.56520929 -0.85770263 6.48551317 -3.046875 9.58203125 C-3.645 10.43216797 -4.243125 11.28230469 -4.859375 12.15820312 C-5.48328125 13.03412109 -6.1071875 13.91003906 -6.75 14.8125 C-7.3584375 15.67681641 -7.966875 16.54113281 -8.59375 17.43164062 C-12.30763157 22.68900502 -16.10565874 27.87496779 -20 33 C-20.66 32.67 -21.32 32.34 -22 32 C-20.68 29.69 -19.36 27.38 -18 25 C-17.34 25 -16.68 25 -16 25 C-15.690625 24.21625 -15.38125 23.4325 -15.0625 22.625 C-14 20 -14 20 -13 18 C-12.34 18 -11.68 18 -11 18 C-10.7628125 17.31550781 -10.525625 16.63101562 -10.28125 15.92578125 C-8.73491106 12.39465972 -6.69619934 9.33445017 -4.5 6.1875 C-3.89478516 5.2912793 -3.89478516 5.2912793 -3.27734375 4.37695312 C-2.23960218 2.87856389 -1.12524203 1.43384386 0 0 Z " fill="#F0F1E9" transform="translate(838,273)"/>
<path d="M0 0 C1.05960938 0.00676758 1.05960938 0.00676758 2.140625 0.01367188 C3.88545275 0.02546125 5.630237 0.04339676 7.375 0.0625 C6.715 0.7225 6.055 1.3825 5.375 2.0625 C1.085 2.0625 -3.205 2.0625 -7.625 2.0625 C-7.625 15.2625 -7.625 28.4625 -7.625 42.0625 C-7.955 42.0625 -8.285 42.0625 -8.625 42.0625 C-8.625 29.5225 -8.625 16.9825 -8.625 4.0625 C-9.285 4.0625 -9.945 4.0625 -10.625 4.0625 C-10.295 3.0725 -9.965 2.0825 -9.625 1.0625 C-6.55966836 -0.47016582 -3.35745728 -0.04026471 0 0 Z " fill="#5E5250" transform="translate(200.625,141.9375)"/>
<path d="M0 0 C0.99 0.33 1.98 0.66 3 1 C3 1.66 3 2.32 3 3 C3.66 3 4.32 3 5 3 C5.55300781 3.98355469 6.10601563 4.96710938 6.67578125 5.98046875 C9.0661315 10.16384507 11.61629977 14.23860125 14.1875 18.3125 C15.07763646 19.72474797 15.96699713 21.13748531 16.85546875 22.55078125 C17.24371826 23.16606689 17.63196777 23.78135254 18.03198242 24.4152832 C19 26 19 26 20 28 C17.18801436 27.66405313 16.21173396 27.26175138 14.40014648 25.0222168 C13.89555908 24.17312744 13.39097168 23.32403809 12.87109375 22.44921875 C12.31099609 21.52302734 11.75089844 20.59683594 11.17382812 19.64257812 C10.60083984 18.66740234 10.02785156 17.69222656 9.4375 16.6875 C8.29186456 14.7738408 7.14478097 12.86104765 5.99609375 10.94921875 C5.49263428 10.09674561 4.9891748 9.24427246 4.47045898 8.3659668 C3.040992 5.97672519 3.040992 5.97672519 1.31274414 3.81567383 C0 2 0 2 0 0 Z " fill="#F0EEE6" transform="translate(935,259)"/>
<path d="M0 0 C2.475 0.495 2.475 0.495 5 1 C5 1.66 5 2.32 5 3 C5.53753906 3.07992188 6.07507813 3.15984375 6.62890625 3.2421875 C10.95188492 4.62383142 14.39305081 7.72715976 18.02734375 10.3828125 C20.86140542 12.28052083 20.86140542 12.28052083 23.87890625 11.7421875 C24.57886719 11.49726563 25.27882813 11.25234375 26 11 C26.33 12.65 26.66 14.3 27 16 C18.14740617 13.78685154 11.10051028 8.9267682 3.55297852 3.98388672 C1.95924005 2.93757707 1.95924005 2.93757707 0 2 C0 1.34 0 0.68 0 0 Z " fill="#7DBC4D" transform="translate(933,295)"/>
<path d="M0 0 C0.33 0 0.66 0 1 0 C1 9.9 1 19.8 1 30 C0.34 30 -0.32 30 -1 30 C-2.57446809 9.46808511 -2.57446809 9.46808511 0 0 Z " fill="#584845" transform="translate(404,272)"/>
<path d="M0 0 C2.06856898 3.10285347 2.47921564 4.82505821 3.0625 8.4375 C3.67557924 12.25736319 3.67557924 12.25736319 4.5546875 16.01953125 C5.10615502 18.47211047 5.0955382 20.73909648 5.0625 23.25 C5.05347656 24.14203125 5.04445313 25.0340625 5.03515625 25.953125 C5.02355469 26.62859375 5.01195312 27.3040625 5 28 C4.34 27.67 3.68 27.34 3 27 C2.34831949 24.15412916 1.82423057 21.37874281 1.375 18.5 C1.2409375 17.72140625 1.106875 16.9428125 0.96875 16.140625 C0.08600116 10.70000968 -0.12121916 5.50996203 0 0 Z " fill="#DBE2C3" transform="translate(945,340)"/>
<path d="M0 0 C1.38227951 8.32051741 2.4237919 16.58432901 3 25 C2.34 25 1.68 25 1 25 C-0.32 17.08 -1.64 9.16 -3 1 C-1 0 -1 0 0 0 Z " fill="#EEEBDE" transform="translate(951,366)"/>
<path d="M0 0 C0.99 0 1.98 0 3 0 C4.18483019 2.17924124 5.34738133 4.36629415 6.5 6.5625 C6.83386719 7.17158203 7.16773438 7.78066406 7.51171875 8.40820312 C9.76828463 12.76015161 10.36065905 15.99585571 10 21 C8.46268622 18.69402933 7.3865865 16.78051141 6.30859375 14.27734375 C6.00373047 13.57416016 5.69886719 12.87097656 5.38476562 12.14648438 C5.07216797 11.41751953 4.75957031 10.68855469 4.4375 9.9375 C2.31103438 4.92624415 2.31103438 4.92624415 0 0 Z " fill="#584847" transform="translate(372,173)"/>
<path d="M0 0 C4.90410528 4.90410528 5.16377986 12.17491077 5.20654297 18.77905273 C5.17886938 22.18822541 5.10673687 25.59232662 5 29 C4.67 29 4.34 29 4 29 C3.96261719 28.02160156 3.92523438 27.04320312 3.88671875 26.03515625 C3.54806772 19.28205634 3.10967747 13.16908682 0.6328125 6.80859375 C-0.17742593 4.49291232 -0.235161 2.42999695 0 0 Z " fill="#5D4643" transform="translate(332,201)"/>
<path d="M0 0 C4.05680242 4.05680242 4.125 10.02901747 4.125 15.5 C4.09336832 17.00024516 4.0553116 18.50044115 4 20 C3.34 20.33 2.68 20.66 2 21 C1.80083984 19.31970703 1.80083984 19.31970703 1.59765625 17.60546875 C1.41943431 16.13279271 1.24103989 14.66013753 1.0625 13.1875 C0.97548828 12.44951172 0.88847656 11.71152344 0.79882812 10.95117188 C0.41783454 7.83266879 -0.00369374 4.98891878 -1 2 C-0.67 1.34 -0.34 0.68 0 0 Z " fill="#584947" transform="translate(531,258)"/>
<path d="M0 0 C4.95 0 9.9 0 15 0 C15 0.33 15 0.66 15 1 C17.64 1.33 20.28 1.66 23 2 C23 2.33 23 2.66 23 3 C15.74 3 8.48 3 1 3 C0.67 2.01 0.34 1.02 0 0 Z " fill="#673F3D" transform="translate(220,142)"/>
<path d="M0 0 C0.33 0.99 0.66 1.98 1 3 C-0.328125 5.59375 -0.328125 5.59375 -2.25 8.5 C-3.18585937 9.93859375 -3.18585937 9.93859375 -4.140625 11.40625 C-5.6507875 13.51286323 -7.09543991 15.26003152 -9 17 C-8.46014954 12.38127938 -6.56034183 9.47604931 -3.9375 5.6875 C-2.83728516 4.08455078 -2.83728516 4.08455078 -1.71484375 2.44921875 C-1.14894531 1.64097656 -0.58304688 0.83273438 0 0 Z " fill="#EEE9E4" transform="translate(850,255)"/>
<path d="M0 0 C0.33 0 0.66 0 1 0 C1.33768172 3.06203674 1.66936893 6.12469458 2 9.1875 C2.09539063 10.05181641 2.19078125 10.91613281 2.2890625 11.80664062 C2.72690189 15.88792925 3.13621913 19.88788502 3 24 C2.01 23.67 1.02 23.34 0 23 C0 15.41 0 7.82 0 0 Z " fill="#595351" transform="translate(749,346)"/>
<path d="M0 0 C4.93912821 4.23353847 7.32134512 9.12975632 10 15 C6.17090709 13.52663164 4.78616322 11.56408372 2.75 8.0625 C2.22921875 7.18722656 1.7084375 6.31195313 1.171875 5.41015625 C0 3 0 3 0 0 Z " fill="#EDF1E8" transform="translate(913,335)"/>
<path d="M0 0 C1.37562854 1.28965176 2.70766393 2.62689293 4 4 C4 4.66 4 5.32 4 6 C4.66 6 5.32 6 6 6 C6.99 7.98 7.98 9.96 9 12 C8.01 12 7.02 12 6 12 C4.39453125 10.390625 4.39453125 10.390625 2.8125 8.25 C2.01779297 7.20585937 2.01779297 7.20585937 1.20703125 6.140625 C0 4 0 4 0 0 Z " fill="#EAEADF" transform="translate(1014,383)"/>
<path d="M0 0 C3.49441809 3.2355723 6.64675619 6.84324556 9 11 C9 11.99 9 12.98 9 14 C8.34 14 7.68 14 7 14 C5.2734375 11.69921875 5.2734375 11.69921875 3.375 8.6875 C2.42753906 7.20830078 2.42753906 7.20830078 1.4609375 5.69921875 C0 3 0 3 0 0 Z " fill="#EEEEE8" transform="translate(790,163)"/>
<path d="M0 0 C0.66 0 1.32 0 2 0 C0.6744419 3.62276315 -0.94346955 6.63505348 -3.125 9.8125 C-3.66382813 10.60269531 -4.20265625 11.39289063 -4.7578125 12.20703125 C-5.37269531 13.09455078 -5.37269531 13.09455078 -6 14 C-6.70703125 12.328125 -6.70703125 12.328125 -7 10 C-5.63671875 7.421875 -5.63671875 7.421875 -3.6875 4.75 C-2.73423828 3.41195312 -2.73423828 3.41195312 -1.76171875 2.046875 C-1.18035156 1.37140625 -0.59898437 0.6959375 0 0 Z " fill="#EDEAE6" transform="translate(923,157)"/>
<path d="M0 0 C0.66 0 1.32 0 2 0 C0.50328459 4.49014624 -1.83368341 8.47848764 -5 12 C-5.66 12 -6.32 12 -7 12 C-5.66749209 8.4124787 -4.169283 5.1635377 -2 2 C-1.34 2 -0.68 2 0 2 C0 1.34 0 0.68 0 0 Z " fill="#EFF0EA" transform="translate(792,339)"/>
<path d="M0 0 C1.423125 0.2784375 1.423125 0.2784375 2.875 0.5625 C5.89868793 1.28686632 5.89868793 1.28686632 8 0 C8.433125 0.474375 8.86625 0.94875 9.3125 1.4375 C11.02309613 3.23686957 11.02309613 3.23686957 14 4 C14 4.66 14 5.32 14 6 C8.00581877 6.51378696 4.55230893 3.54068472 0 0 Z " fill="#CEE7BF" transform="translate(953,309)"/>
<path d="M0 0 C0.66 0 1.32 0 2 0 C3.57300962 5.73303505 4.24327778 10.15659442 3 16 C2.67 16 2.34 16 2 16 C1.34 10.72 0.68 5.44 0 0 Z " fill="#5A4947" transform="translate(577,257)"/>
<path d="M0 0 C0.99 0.66 1.98 1.32 3 2 C1.3790787 3.17232685 -0.24686833 4.3377077 -1.875 5.5 C-2.77992188 6.1496875 -3.68484375 6.799375 -4.6171875 7.46875 C-7 9 -7 9 -9 9 C-7.83709195 5.51127585 -6.86032391 4.90023136 -3.9375 2.8125 C-3.20402344 2.28269531 -2.47054688 1.75289062 -1.71484375 1.20703125 C-1.14894531 0.80871094 -0.58304687 0.41039062 0 0 Z " fill="#564948" transform="translate(437,209)"/>
<path d="M0 0 C0.66 0 1.32 0 2 0 C0.125 4.75 0.125 4.75 -1 7 C-2.875 6.8125 -2.875 6.8125 -5 6 C-6.25 3.4375 -6.25 3.4375 -7 1 C-5 1 -5 1 -3.375 2.5 C-2.92125 2.995 -2.4675 3.49 -2 4 C-1.34 2.68 -0.68 1.36 0 0 Z " fill="#EBF4E9" transform="translate(895,200)"/>
<path d="M0 0 C0.33 0.99 0.66 1.98 1 3 C-1.10889262 6.82724957 -2.79609368 9.49860488 -7 11 C-5.5140084 6.40693504 -3.14985318 3.56430755 0 0 Z " fill="#92CC70" transform="translate(801,338)"/>
<path d="M0 0 C0.99 0 1.98 0 3 0 C1.68139111 4.61513112 -0.21355437 8.09897612 -3 12 C-3.66 11.67 -4.32 11.34 -5 11 C-4.72285156 10.45730469 -4.44570313 9.91460937 -4.16015625 9.35546875 C-3.79792969 8.64003906 -3.43570312 7.92460937 -3.0625 7.1875 C-2.52302734 6.12595703 -2.52302734 6.12595703 -1.97265625 5.04296875 C-0.89269484 2.88189715 -0.89269484 2.88189715 0 0 Z " fill="#604846" transform="translate(333,235)"/>
<path d="M0 0 C0.66 0 1.32 0 2 0 C2 2.31 2 4.62 2 7 C-1.375 7.125 -1.375 7.125 -5 7 C-5.66 6.34 -6.32 5.68 -7 5 C-4.69 5.33 -2.38 5.66 0 6 C-0.2784375 4.7934375 -0.2784375 4.7934375 -0.5625 3.5625 C-0.706875 2.716875 -0.85125 1.87125 -1 1 C-0.67 0.67 -0.34 0.34 0 0 Z " fill="#E1ECD8" transform="translate(945,371)"/>
<path d="M0 0 C0.66 0 1.32 0 2 0 C1.67 0.99 1.34 1.98 1 3 C-0.32 3 -1.64 3 -3 3 C-3 4.65 -3 6.3 -3 8 C-4.5 6.6875 -4.5 6.6875 -6 5 C-6 4.01 -6 3.02 -6 2 C-3 1 -3 1 0 2 C0 1.34 0 0.68 0 0 Z " fill="#EFEBE6" transform="translate(1015,374)"/>
<path d="M0 0 C3.78786597 0.5260925 6.17152224 1.38103911 9 4 C9 4.66 9 5.32 9 6 C5.9168649 4.80100302 2.93720508 3.52299523 0 2 C0 1.34 0 0.68 0 0 Z " fill="#4E4544" transform="translate(510,235)"/>
<path d="M0 0 C0.66 0.66 1.32 1.32 2 2 C0.35 4.64 -1.3 7.28 -3 10 C-3.66 9.34 -4.32 8.68 -5 8 C-3.35 5.36 -1.7 2.72 0 0 Z " fill="#EEF1EA" transform="translate(861,346)"/>
<path d="M0 0 C1.98 0.99 1.98 0.99 4 2 C4 3.98 4 5.96 4 8 C3.01 8.33 2.02 8.66 1 9 C0.67 6.03 0.34 3.06 0 0 Z " fill="#ECEEE7" transform="translate(1026,402)"/>
<path d="M0 0 C0.66 0 1.32 0 2 0 C3.2890625 1.4609375 3.2890625 1.4609375 4.625 3.375 C5.29402344 4.31472656 5.29402344 4.31472656 5.9765625 5.2734375 C7 7 7 7 7 9 C3.17475764 7.549046 1.80909034 5.61818068 0 2 C0 1.34 0 0.68 0 0 Z " fill="#EBEDE2" transform="translate(927,358)"/>
<path d="M0 0 C3.43927579 1.2419607 6.25207819 2.55740284 9 5 C9 5.66 9 6.32 9 7 C5.56072421 5.7580393 2.74792181 4.44259716 0 2 C0 1.34 0 0.68 0 0 Z " fill="#F3F9F7" transform="translate(1004,345)"/>
<path d="M0 0 C1.3921875 0.2784375 1.3921875 0.2784375 2.8125 0.5625 C6.01343771 1.24123881 6.01343771 1.24123881 9 0 C9.33 1.65 9.66 3.3 10 5 C8.51800098 4.55090939 7.03944764 4.09043436 5.5625 3.625 C4.73878906 3.36976563 3.91507813 3.11453125 3.06640625 2.8515625 C1 2 1 2 0 0 Z " fill="#93C764" transform="translate(950,306)"/>
<path d="M0 0 C0.66 0 1.32 0 2 0 C0.68775452 3.93673644 -0.91910327 6.22719294 -4 9 C-3.4739075 5.21213403 -2.61896089 2.82847776 0 0 Z " fill="#EBF2E8" transform="translate(871,331)"/>
<path d="M0 0 C0.99 0.33 1.98 0.66 3 1 C-0.465 3.97 -0.465 3.97 -4 7 C-4.66 6.67 -5.32 6.34 -6 6 C-4.02 4.02 -2.04 2.04 0 0 Z " fill="#D8EAD3" transform="translate(980,384)"/>
<path d="M0 0 C0.99 0 1.98 0 3 0 C4.75 2.3125 4.75 2.3125 6 5 C5.67 5.99 5.34 6.98 5 8 C2.74754119 5.31158141 1.11786042 3.35358125 0 0 Z " fill="#EEF0E8" transform="translate(955,291)"/>
<path d="M0 0 C2.5625 2.25 2.5625 2.25 5 5 C4.8125 7.3125 4.8125 7.3125 4 9 C0 3.375 0 3.375 0 0 Z " fill="#EBEADD" transform="translate(868,169)"/>
<path d="M0 0 C0 3.99904969 -1.72586967 5.80200422 -4 9 C-4.66 8.34 -5.32 7.68 -6 7 C-2.25 1.125 -2.25 1.125 0 0 Z " fill="#EFECE6" transform="translate(935,140)"/>
<path d="M0 0 C0.99 0.33 1.98 0.66 3 1 C2.21654285 2.17219543 1.42297164 3.33763668 0.625 4.5 C0.18414063 5.1496875 -0.25671875 5.799375 -0.7109375 6.46875 C-1.13632812 6.9740625 -1.56171875 7.479375 -2 8 C-2.66 8 -3.32 8 -4 8 C-2.87548273 5.0280615 -1.77706209 2.66559313 0 0 Z " fill="#EBEEE7" transform="translate(849,364)"/>
<path d="M0 0 C0.66 0.99 1.32 1.98 2 3 C0.35 4.32 -1.3 5.64 -3 7 C-3.66 6.67 -4.32 6.34 -5 6 C-3.35 4.02 -1.7 2.04 0 0 Z " fill="#4F4442" transform="translate(521,325)"/>
<path d="M0 0 C0.66 0 1.32 0 2 0 C0.68775452 3.93673644 -0.91910327 6.22719294 -4 9 C-3.4739075 5.21213403 -2.61896089 2.82847776 0 0 Z " fill="#EDE8DF" transform="translate(838,273)"/>
<path d="M0 0 C3.82946843 1.45255699 5.12050295 3.42895561 7 7 C5.1875 6.875 5.1875 6.875 3 6 C1.25 2.9375 1.25 2.9375 0 0 Z " fill="#E6F0E0" transform="translate(987,400)"/>
<path d="M0 0 C0.66 0 1.32 0 2 0 C0.8141763 3.37503669 -0.27573689 5.64722731 -3 8 C-2.67 6.02 -2.34 4.04 -2 2 C-1.34 2 -0.68 2 0 2 C0 1.34 0 0.68 0 0 Z " fill="#E7EDE3" transform="translate(907,181)"/>
<path d="M0 0 C1.9375 0.625 1.9375 0.625 4 2 C4.75 5.125 4.75 5.125 5 8 C2.20127563 5.47211993 0.54226981 3.79588866 0 0 Z " fill="#EFECEA" transform="translate(863,163)"/>
<path d="M0 0 C0.66 0.66 1.32 1.32 2 2 C0.7260411 4.03833424 -0.61061923 6.03852126 -2 8 C-2.66 8 -3.32 8 -4 8 C-2.87548273 5.0280615 -1.77706209 2.66559313 0 0 Z " fill="#E9F2E6" transform="translate(998,157)"/>
<path d="M0 0 C2.475 0.495 2.475 0.495 5 1 C4.01 1.66 3.02 2.32 2 3 C1.26656572 6.06556598 1.26656572 6.06556598 1 9 C0.67 9 0.34 9 0 9 C0 6.03 0 3.06 0 0 Z " fill="#96CC77" transform="translate(948,317)"/>
<path d="M0 0 C0.94875 0.350625 1.8975 0.70125 2.875 1.0625 C2.875 1.7225 2.875 2.3825 2.875 3.0625 C-2.875 2.3125 -2.875 2.3125 -5.125 0.0625 C-3.125 -0.9375 -3.125 -0.9375 0 0 Z " fill="#4E4441" transform="translate(350.125,151.9375)"/>
</svg>
