<?xml version="1.0" encoding="UTF-8"?>
<svg xmlns="http://www.w3.org/2000/svg" xmlns:xlink="http://www.w3.org/1999/xlink" width="104px" height="90px" viewBox="0 0 104 90" version="1.1">
<g id="surface1">
<path style=" stroke:none;fill-rule:nonzero;fill:rgb(47.058824%,72.156864%,28.235295%);fill-opacity:1;" d="M 56.882812 15.246094 C 57.007812 15.242188 57.132812 15.242188 57.261719 15.242188 C 57.671875 15.234375 58.082031 15.234375 58.488281 15.234375 C 58.777344 15.230469 59.0625 15.230469 59.347656 15.226562 C 59.945312 15.226562 60.546875 15.222656 61.144531 15.222656 C 61.910156 15.222656 62.675781 15.214844 63.445312 15.207031 C 64.035156 15.203125 64.625 15.199219 65.214844 15.199219 C 65.496094 15.199219 65.78125 15.199219 66.0625 15.195312 C 66.457031 15.1875 66.851562 15.191406 67.246094 15.191406 C 67.472656 15.191406 67.695312 15.191406 67.925781 15.1875 C 68.496094 15.300781 68.496094 15.300781 68.925781 15.722656 C 69.28125 16.3125 69.3125 16.703125 69.324219 17.390625 C 69.328125 17.613281 69.335938 17.839844 69.339844 18.070312 C 69.34375 18.304688 69.34375 18.535156 69.347656 18.777344 C 69.355469 19.128906 69.355469 19.128906 69.363281 19.492188 C 69.378906 20.074219 69.386719 20.65625 69.394531 21.238281 C 69.660156 21.152344 69.660156 21.152344 69.929688 21.058594 C 69.929688 20.941406 69.929688 20.824219 69.929688 20.699219 C 70.226562 20.429688 70.535156 20.171875 70.851562 19.921875 C 71.019531 19.785156 71.191406 19.652344 71.367188 19.507812 C 71.542969 19.367188 71.722656 19.226562 71.902344 19.078125 C 72.0625 18.925781 72.21875 18.773438 72.382812 18.613281 C 73.042969 18.066406 73.644531 18.023438 74.480469 17.996094 C 74.621094 17.992188 74.765625 17.984375 74.914062 17.980469 C 75.371094 17.964844 75.828125 17.957031 76.285156 17.953125 C 76.441406 17.953125 76.59375 17.949219 76.753906 17.949219 C 79.921875 17.933594 79.921875 17.933594 81.214844 19.140625 C 81.691406 19.691406 82.09375 20.261719 82.484375 20.878906 C 82.601562 20.9375 82.71875 21 82.839844 21.058594 C 82.839844 21.179688 82.839844 21.296875 82.839844 21.421875 C 82.941406 21.460938 83.039062 21.5 83.140625 21.542969 C 83.679688 21.847656 84.054688 22.238281 84.488281 22.679688 C 84.648438 22.839844 84.804688 23 84.96875 23.164062 C 85.878906 24.148438 85.601562 25.683594 85.613281 26.964844 C 85.617188 27.300781 85.625 27.636719 85.636719 27.976562 C 85.726562 31.136719 85.726562 31.136719 84.984375 32.007812 C 84.753906 32.207031 84.519531 32.398438 84.277344 32.578125 C 84.042969 32.800781 83.8125 33.027344 83.582031 33.253906 C 83.351562 33.46875 83.121094 33.683594 82.886719 33.894531 C 82.652344 34.113281 82.417969 34.328125 82.183594 34.546875 C 82.082031 34.640625 81.980469 34.734375 81.875 34.832031 C 81.675781 35.015625 81.488281 35.207031 81.300781 35.40625 C 81.046875 35.640625 81.046875 35.640625 80.691406 35.640625 C 80.691406 35.757812 80.691406 35.878906 80.691406 36 C 80.570312 36 80.453125 36 80.332031 36 C 80.332031 36.117188 80.332031 36.238281 80.332031 36.359375 C 80.210938 36.417969 80.09375 36.480469 79.972656 36.539062 C 80.125 36.578125 80.277344 36.617188 80.433594 36.660156 C 81.734375 37.023438 82.753906 37.402344 83.738281 38.339844 C 83.835938 38.433594 83.9375 38.527344 84.039062 38.625 C 85.609375 40.289062 85.738281 42.375 85.738281 44.550781 C 85.738281 44.738281 85.742188 44.921875 85.742188 45.113281 C 85.746094 45.726562 85.746094 46.339844 85.746094 46.953125 C 85.746094 47.382812 85.75 47.808594 85.75 48.238281 C 85.75 49.136719 85.753906 50.035156 85.753906 50.933594 C 85.753906 52.078125 85.757812 53.222656 85.765625 54.367188 C 85.765625 55.253906 85.769531 56.140625 85.769531 57.023438 C 85.769531 57.445312 85.769531 57.867188 85.773438 58.289062 C 85.804688 64.242188 85.804688 64.242188 83.757812 66.421875 C 82.554688 67.558594 81.167969 68.058594 79.519531 68.066406 C 79.214844 68.070312 79.214844 68.070312 78.90625 68.070312 C 78.6875 68.070312 78.464844 68.070312 78.238281 68.070312 C 78.003906 68.074219 77.773438 68.074219 77.53125 68.074219 C 76.757812 68.078125 75.988281 68.082031 75.214844 68.082031 C 74.949219 68.082031 74.679688 68.085938 74.414062 68.085938 C 73.160156 68.089844 71.90625 68.089844 70.65625 68.09375 C 69.210938 68.09375 67.769531 68.097656 66.324219 68.105469 C 65.207031 68.113281 64.089844 68.113281 62.972656 68.113281 C 62.304688 68.117188 61.640625 68.117188 60.972656 68.121094 C 60.226562 68.125 59.484375 68.125 58.738281 68.125 C 58.410156 68.128906 58.410156 68.128906 58.078125 68.132812 C 56.558594 68.121094 55.328125 67.820312 53.972656 67.140625 C 53.972656 67.019531 53.972656 66.902344 53.972656 66.78125 C 53.867188 66.738281 53.765625 66.699219 53.660156 66.65625 C 53.253906 66.421875 53.253906 66.421875 52.972656 65.964844 C 52.425781 65.40625 52.144531 65.410156 51.390625 65.390625 C 51.242188 65.390625 51.09375 65.390625 50.9375 65.394531 C 50.785156 65.390625 50.628906 65.386719 50.472656 65.382812 C 49.980469 65.375 49.488281 65.375 48.996094 65.375 C 48.664062 65.371094 48.328125 65.363281 47.996094 65.359375 C 47.179688 65.347656 46.363281 65.34375 45.542969 65.339844 C 45.546875 65.566406 45.550781 65.796875 45.554688 66.03125 C 45.570312 67.371094 44.859375 68.414062 43.964844 69.367188 C 42.960938 70.308594 41.863281 70.804688 40.523438 71.101562 C 40.164062 71.066406 40.164062 71.066406 39.789062 71.003906 C 38.660156 70.851562 37.605469 70.808594 36.632812 71.496094 C 35.25 72.628906 34.035156 73.992188 32.863281 75.34375 C 32.308594 75.972656 31.804688 76.375 31.019531 76.679688 C 30.390625 76.660156 29.957031 76.636719 29.441406 76.265625 C 28.964844 75.585938 28.824219 75.097656 28.832031 74.265625 C 28.835938 74.078125 28.835938 73.894531 28.835938 73.703125 C 28.84375 73.417969 28.84375 73.417969 28.847656 73.125 C 28.847656 72.929688 28.851562 72.738281 28.851562 72.535156 C 28.855469 72.058594 28.863281 71.578125 28.867188 71.101562 C 28.71875 71.101562 28.566406 71.105469 28.40625 71.105469 C 26.964844 71.125 25.523438 71.136719 24.082031 71.148438 C 23.339844 71.152344 22.597656 71.15625 21.855469 71.167969 C 21.136719 71.179688 20.421875 71.183594 19.703125 71.183594 C 19.433594 71.1875 19.160156 71.191406 18.886719 71.195312 C 16.660156 71.234375 14.777344 70.902344 13 69.445312 C 11.96875 68.4375 11.1875 67.144531 11.09375 65.675781 C 11.089844 65.535156 11.089844 65.394531 11.089844 65.25 C 11.089844 65.089844 11.085938 64.925781 11.085938 64.761719 C 11.082031 64.496094 11.082031 64.496094 11.082031 64.226562 C 11.082031 64.042969 11.078125 63.855469 11.078125 63.664062 C 11.074219 63.046875 11.070312 62.429688 11.066406 61.8125 C 11.066406 61.601562 11.066406 61.390625 11.066406 61.171875 C 11.058594 60.054688 11.058594 58.9375 11.054688 57.820312 C 11.050781 56.894531 11.046875 55.972656 11.039062 55.050781 C 11.03125 53.933594 11.027344 52.816406 11.023438 51.699219 C 11.023438 51.273438 11.019531 50.851562 11.015625 50.425781 C 10.976562 46.140625 10.976562 46.140625 12.015625 44.460938 C 12.078125 44.351562 12.144531 44.246094 12.214844 44.132812 C 13.011719 43.03125 14.464844 42.132812 15.792969 41.867188 C 16.554688 41.785156 17.308594 41.753906 18.074219 41.753906 C 18.339844 41.757812 18.339844 41.757812 18.605469 41.757812 C 18.738281 41.757812 18.871094 41.757812 19.007812 41.761719 C 19.003906 41.609375 19.003906 41.460938 19.003906 41.304688 C 18.992188 39.878906 18.984375 38.449219 18.980469 37.023438 C 18.976562 36.289062 18.972656 35.554688 18.964844 34.824219 C 18.960938 34.113281 18.957031 33.402344 18.957031 32.695312 C 18.953125 32.425781 18.953125 32.15625 18.949219 31.886719 C 18.914062 28.507812 19.59375 25.960938 21.953125 23.480469 C 23.511719 21.992188 25.558594 21.035156 27.730469 21.039062 C 27.933594 21.039062 28.140625 21.039062 28.355469 21.039062 C 28.578125 21.039062 28.804688 21.039062 29.039062 21.039062 C 29.277344 21.039062 29.519531 21.039062 29.757812 21.039062 C 30.410156 21.039062 31.0625 21.039062 31.714844 21.042969 C 32.394531 21.042969 33.078125 21.042969 33.757812 21.042969 C 35.050781 21.042969 36.339844 21.046875 37.628906 21.046875 C 39.097656 21.050781 40.570312 21.050781 42.039062 21.050781 C 45.058594 21.054688 48.082031 21.054688 51.101562 21.058594 C 51.128906 20.832031 51.15625 20.605469 51.183594 20.371094 C 51.359375 18.878906 51.957031 17.570312 53.074219 16.558594 C 54.269531 15.660156 55.378906 15.257812 56.882812 15.246094 Z M 56.882812 15.246094 "/>
<path style=" stroke:none;fill-rule:nonzero;fill:rgb(98.431373%,98.823529%,98.039216%);fill-opacity:1;" d="M 56.882812 15.246094 C 57.007812 15.242188 57.132812 15.242188 57.261719 15.242188 C 57.671875 15.234375 58.082031 15.234375 58.488281 15.234375 C 58.777344 15.230469 59.0625 15.230469 59.347656 15.226562 C 59.945312 15.226562 60.546875 15.222656 61.144531 15.222656 C 61.910156 15.222656 62.675781 15.214844 63.445312 15.207031 C 64.035156 15.203125 64.625 15.199219 65.214844 15.199219 C 65.496094 15.199219 65.78125 15.199219 66.0625 15.195312 C 66.457031 15.1875 66.851562 15.191406 67.246094 15.191406 C 67.472656 15.191406 67.695312 15.191406 67.925781 15.1875 C 68.496094 15.300781 68.496094 15.300781 68.925781 15.722656 C 69.28125 16.3125 69.3125 16.703125 69.324219 17.390625 C 69.328125 17.613281 69.335938 17.839844 69.339844 18.070312 C 69.34375 18.304688 69.34375 18.535156 69.347656 18.777344 C 69.355469 19.128906 69.355469 19.128906 69.363281 19.492188 C 69.378906 20.074219 69.386719 20.65625 69.394531 21.238281 C 69.660156 21.152344 69.660156 21.152344 69.929688 21.058594 C 69.929688 20.941406 69.929688 20.824219 69.929688 20.699219 C 70.226562 20.429688 70.535156 20.171875 70.851562 19.921875 C 71.019531 19.785156 71.191406 19.652344 71.367188 19.507812 C 71.542969 19.367188 71.722656 19.226562 71.902344 19.078125 C 72.0625 18.925781 72.21875 18.773438 72.382812 18.613281 C 73.042969 18.066406 73.644531 18.023438 74.480469 17.996094 C 74.621094 17.992188 74.765625 17.984375 74.914062 17.980469 C 75.371094 17.964844 75.828125 17.957031 76.285156 17.953125 C 76.441406 17.953125 76.59375 17.949219 76.753906 17.949219 C 79.921875 17.933594 79.921875 17.933594 81.214844 19.140625 C 81.691406 19.691406 82.09375 20.261719 82.484375 20.878906 C 82.601562 20.9375 82.71875 21 82.839844 21.058594 C 82.839844 21.179688 82.839844 21.296875 82.839844 21.421875 C 82.941406 21.460938 83.039062 21.5 83.140625 21.542969 C 83.679688 21.847656 84.054688 22.238281 84.488281 22.679688 C 84.648438 22.839844 84.804688 23 84.96875 23.164062 C 85.878906 24.148438 85.601562 25.683594 85.613281 26.964844 C 85.617188 27.300781 85.625 27.636719 85.636719 27.976562 C 85.726562 31.136719 85.726562 31.136719 84.984375 32.007812 C 84.753906 32.207031 84.519531 32.398438 84.277344 32.578125 C 84.042969 32.800781 83.8125 33.027344 83.582031 33.253906 C 83.351562 33.46875 83.121094 33.683594 82.886719 33.894531 C 82.652344 34.113281 82.417969 34.328125 82.183594 34.546875 C 82.082031 34.640625 81.980469 34.734375 81.875 34.832031 C 81.675781 35.015625 81.488281 35.207031 81.300781 35.40625 C 81.046875 35.640625 81.046875 35.640625 80.691406 35.640625 C 80.691406 35.757812 80.691406 35.878906 80.691406 36 C 80.570312 36 80.453125 36 80.332031 36 C 80.332031 36.117188 80.332031 36.238281 80.332031 36.359375 C 80.210938 36.417969 80.09375 36.480469 79.972656 36.539062 C 80.125 36.578125 80.277344 36.617188 80.433594 36.660156 C 81.734375 37.023438 82.753906 37.402344 83.738281 38.339844 C 83.835938 38.433594 83.9375 38.527344 84.039062 38.625 C 85.609375 40.289062 85.738281 42.375 85.738281 44.550781 C 85.738281 44.738281 85.742188 44.921875 85.742188 45.113281 C 85.746094 45.726562 85.746094 46.339844 85.746094 46.953125 C 85.746094 47.382812 85.75 47.808594 85.75 48.238281 C 85.75 49.136719 85.753906 50.035156 85.753906 50.933594 C 85.753906 52.078125 85.757812 53.222656 85.765625 54.367188 C 85.765625 55.253906 85.769531 56.140625 85.769531 57.023438 C 85.769531 57.445312 85.769531 57.867188 85.773438 58.289062 C 85.804688 64.242188 85.804688 64.242188 83.757812 66.421875 C 82.554688 67.558594 81.167969 68.058594 79.519531 68.066406 C 79.214844 68.070312 79.214844 68.070312 78.90625 68.070312 C 78.6875 68.070312 78.464844 68.070312 78.238281 68.070312 C 78.003906 68.074219 77.773438 68.074219 77.53125 68.074219 C 76.757812 68.078125 75.988281 68.082031 75.214844 68.082031 C 74.949219 68.082031 74.679688 68.085938 74.414062 68.085938 C 73.160156 68.089844 71.90625 68.089844 70.65625 68.09375 C 69.210938 68.09375 67.769531 68.097656 66.324219 68.105469 C 65.207031 68.113281 64.089844 68.113281 62.972656 68.113281 C 62.304688 68.117188 61.640625 68.117188 60.972656 68.121094 C 60.226562 68.125 59.484375 68.125 58.738281 68.125 C 58.410156 68.128906 58.410156 68.128906 58.078125 68.132812 C 56.558594 68.121094 55.328125 67.820312 53.972656 67.140625 C 53.972656 67.019531 53.972656 66.902344 53.972656 66.78125 C 53.867188 66.738281 53.765625 66.699219 53.660156 66.65625 C 53.253906 66.421875 53.253906 66.421875 52.972656 65.964844 C 52.425781 65.40625 52.144531 65.410156 51.390625 65.390625 C 51.242188 65.390625 51.09375 65.390625 50.9375 65.394531 C 50.785156 65.390625 50.628906 65.386719 50.472656 65.382812 C 49.980469 65.375 49.488281 65.375 48.996094 65.375 C 48.664062 65.371094 48.328125 65.363281 47.996094 65.359375 C 47.179688 65.347656 46.363281 65.34375 45.542969 65.339844 C 45.546875 65.566406 45.550781 65.796875 45.554688 66.03125 C 45.570312 67.371094 44.859375 68.414062 43.964844 69.367188 C 42.960938 70.308594 41.863281 70.804688 40.523438 71.101562 C 40.164062 71.066406 40.164062 71.066406 39.789062 71.003906 C 38.660156 70.851562 37.605469 70.808594 36.632812 71.496094 C 35.25 72.628906 34.035156 73.992188 32.863281 75.34375 C 32.308594 75.972656 31.804688 76.375 31.019531 76.679688 C 30.390625 76.660156 29.957031 76.636719 29.441406 76.265625 C 28.964844 75.585938 28.824219 75.097656 28.832031 74.265625 C 28.835938 74.078125 28.835938 73.894531 28.835938 73.703125 C 28.84375 73.417969 28.84375 73.417969 28.847656 73.125 C 28.847656 72.929688 28.851562 72.738281 28.851562 72.535156 C 28.855469 72.058594 28.863281 71.578125 28.867188 71.101562 C 28.71875 71.101562 28.566406 71.105469 28.40625 71.105469 C 26.964844 71.125 25.523438 71.136719 24.082031 71.148438 C 23.339844 71.152344 22.597656 71.15625 21.855469 71.167969 C 21.136719 71.179688 20.421875 71.183594 19.703125 71.183594 C 19.433594 71.1875 19.160156 71.191406 18.886719 71.195312 C 16.660156 71.234375 14.777344 70.902344 13 69.445312 C 11.96875 68.4375 11.1875 67.144531 11.09375 65.675781 C 11.089844 65.535156 11.089844 65.394531 11.089844 65.25 C 11.089844 65.089844 11.085938 64.925781 11.085938 64.761719 C 11.082031 64.496094 11.082031 64.496094 11.082031 64.226562 C 11.082031 64.042969 11.078125 63.855469 11.078125 63.664062 C 11.074219 63.046875 11.070312 62.429688 11.066406 61.8125 C 11.066406 61.601562 11.066406 61.390625 11.066406 61.171875 C 11.058594 60.054688 11.058594 58.9375 11.054688 57.820312 C 11.050781 56.894531 11.046875 55.972656 11.039062 55.050781 C 11.03125 53.933594 11.027344 52.816406 11.023438 51.699219 C 11.023438 51.273438 11.019531 50.851562 11.015625 50.425781 C 10.976562 46.140625 10.976562 46.140625 12.015625 44.460938 C 12.078125 44.351562 12.144531 44.246094 12.214844 44.132812 C 13.011719 43.03125 14.464844 42.132812 15.792969 41.867188 C 16.554688 41.785156 17.308594 41.753906 18.074219 41.753906 C 18.339844 41.757812 18.339844 41.757812 18.605469 41.757812 C 18.738281 41.757812 18.871094 41.757812 19.007812 41.761719 C 19.003906 41.609375 19.003906 41.460938 19.003906 41.304688 C 18.992188 39.878906 18.984375 38.449219 18.980469 37.023438 C 18.976562 36.289062 18.972656 35.554688 18.964844 34.824219 C 18.960938 34.113281 18.957031 33.402344 18.957031 32.695312 C 18.953125 32.425781 18.953125 32.15625 18.949219 31.886719 C 18.914062 28.507812 19.59375 25.960938 21.953125 23.480469 C 23.511719 21.992188 25.558594 21.035156 27.730469 21.039062 C 27.933594 21.039062 28.140625 21.039062 28.355469 21.039062 C 28.578125 21.039062 28.804688 21.039062 29.039062 21.039062 C 29.277344 21.039062 29.519531 21.039062 29.757812 21.039062 C 30.410156 21.039062 31.0625 21.039062 31.714844 21.042969 C 32.394531 21.042969 33.078125 21.042969 33.757812 21.042969 C 35.050781 21.042969 36.339844 21.046875 37.628906 21.046875 C 39.097656 21.050781 40.570312 21.050781 42.039062 21.050781 C 45.058594 21.054688 48.082031 21.054688 51.101562 21.058594 C 51.128906 20.832031 51.15625 20.605469 51.183594 20.371094 C 51.359375 18.878906 51.957031 17.570312 53.074219 16.558594 C 54.269531 15.660156 55.378906 15.257812 56.882812 15.246094 Z M 22.953125 26.101562 C 21.570312 27.964844 21.464844 29.703125 21.464844 31.960938 C 21.464844 32.226562 21.460938 32.488281 21.460938 32.753906 C 21.457031 33.46875 21.457031 34.183594 21.457031 34.898438 C 21.457031 35.34375 21.457031 35.792969 21.457031 36.238281 C 21.453125 37.804688 21.449219 39.367188 21.449219 40.933594 C 21.449219 42.386719 21.445312 43.839844 21.441406 45.292969 C 21.4375 46.542969 21.433594 47.792969 21.433594 49.046875 C 21.433594 49.792969 21.433594 50.539062 21.429688 51.28125 C 21.425781 51.984375 21.425781 52.6875 21.429688 53.390625 C 21.429688 53.644531 21.429688 53.902344 21.425781 54.15625 C 21.40625 56.816406 21.949219 59.003906 23.785156 60.980469 C 26.050781 63.089844 28.269531 62.820312 31.378906 62.820312 C 31.378906 66.144531 31.378906 69.472656 31.378906 72.898438 C 32.054688 72.5625 32.382812 72.292969 32.902344 71.761719 C 33.054688 71.605469 33.207031 71.449219 33.363281 71.289062 C 33.523438 71.128906 33.679688 70.964844 33.84375 70.796875 C 34.15625 70.476562 34.46875 70.15625 34.785156 69.835938 C 34.921875 69.695312 35.058594 69.554688 35.203125 69.40625 C 35.683594 68.941406 35.683594 68.941406 36 68.6875 C 36.796875 68.050781 37.292969 67.421875 37.816406 66.546875 C 38.941406 64.8125 40.328125 63.34375 42.394531 62.855469 C 46.039062 62.285156 49.824219 62.511719 53.492188 62.625 C 55.441406 62.683594 57.390625 62.707031 59.34375 62.730469 C 59.632812 62.734375 59.921875 62.738281 60.210938 62.742188 C 60.351562 62.742188 60.496094 62.742188 60.640625 62.746094 C 61.472656 62.757812 62.304688 62.773438 63.140625 62.796875 C 63.65625 62.8125 64.175781 62.824219 64.695312 62.835938 C 65.046875 62.84375 65.394531 62.855469 65.746094 62.867188 C 67.835938 62.910156 69.753906 62.414062 71.367188 61.019531 C 72.835938 59.492188 73.535156 57.679688 73.542969 55.570312 C 73.546875 55.226562 73.546875 55.226562 73.550781 54.878906 C 73.550781 54.625 73.550781 54.375 73.550781 54.125 C 73.554688 53.859375 73.554688 53.589844 73.554688 53.324219 C 73.5625 52.453125 73.5625 51.582031 73.566406 50.710938 C 73.566406 50.410156 73.566406 50.105469 73.570312 49.804688 C 73.574219 48.550781 73.578125 47.300781 73.578125 46.046875 C 73.582031 44.253906 73.585938 42.460938 73.597656 40.671875 C 73.605469 39.410156 73.609375 38.148438 73.609375 36.882812 C 73.609375 36.132812 73.613281 35.378906 73.617188 34.625 C 73.621094 33.917969 73.625 33.207031 73.621094 32.5 C 73.621094 32.242188 73.625 31.980469 73.625 31.722656 C 73.652344 29.546875 73.277344 27.726562 71.871094 26.019531 C 70.304688 24.421875 68.386719 23.53125 66.144531 23.507812 C 65.992188 23.507812 65.84375 23.507812 65.6875 23.507812 C 65.441406 23.507812 65.441406 23.507812 65.191406 23.503906 C 64.644531 23.503906 64.097656 23.503906 63.550781 23.503906 C 63.15625 23.503906 62.761719 23.5 62.367188 23.5 C 61.300781 23.496094 60.234375 23.496094 59.167969 23.496094 C 58.277344 23.496094 57.382812 23.492188 56.492188 23.492188 C 54.265625 23.488281 52.042969 23.488281 49.816406 23.488281 C 47.886719 23.492188 45.957031 23.488281 44.03125 23.480469 C 42.046875 23.476562 40.0625 23.472656 38.078125 23.472656 C 36.964844 23.472656 35.851562 23.472656 34.738281 23.46875 C 33.691406 23.464844 32.644531 23.464844 31.597656 23.46875 C 31.214844 23.46875 30.835938 23.46875 30.453125 23.464844 C 27.445312 23.445312 25.0625 23.6875 22.953125 26.101562 Z M 22.953125 26.101562 "/>
<path style=" stroke:none;fill-rule:nonzero;fill:rgb(31.37255%,31.37255%,31.37255%);fill-opacity:1;" d="M 75.847656 37.800781 C 76.617188 37.773438 77.386719 37.757812 78.15625 37.742188 C 78.371094 37.734375 78.589844 37.730469 78.8125 37.722656 C 80.605469 37.695312 81.839844 38.085938 83.175781 39.296875 C 84.226562 40.347656 84.535156 41.480469 84.550781 42.917969 C 84.550781 43.109375 84.550781 43.304688 84.546875 43.5 C 84.550781 43.707031 84.550781 43.914062 84.550781 44.125 C 84.554688 44.804688 84.554688 45.484375 84.550781 46.164062 C 84.550781 46.636719 84.550781 47.109375 84.550781 47.585938 C 84.554688 48.578125 84.550781 49.570312 84.546875 50.5625 C 84.542969 51.703125 84.546875 52.847656 84.550781 53.992188 C 84.554688 55.09375 84.554688 56.199219 84.550781 57.304688 C 84.550781 57.769531 84.550781 58.238281 84.554688 58.707031 C 84.554688 59.363281 84.550781 60.015625 84.546875 60.671875 C 84.550781 60.863281 84.550781 61.054688 84.550781 61.253906 C 84.53125 62.980469 84.074219 64.472656 82.867188 65.746094 C 81.414062 66.929688 79.710938 67.089844 77.910156 67.078125 C 77.5625 67.078125 77.5625 67.078125 77.207031 67.082031 C 76.578125 67.085938 75.949219 67.082031 75.320312 67.082031 C 74.65625 67.078125 73.996094 67.082031 73.332031 67.082031 C 72.222656 67.082031 71.113281 67.082031 70 67.078125 C 68.722656 67.074219 67.441406 67.074219 66.160156 67.078125 C 65.058594 67.082031 63.953125 67.082031 62.847656 67.082031 C 62.191406 67.078125 61.535156 67.078125 60.878906 67.082031 C 60.144531 67.085938 59.410156 67.082031 58.679688 67.078125 C 58.464844 67.078125 58.25 67.082031 58.027344 67.082031 C 56.671875 67.066406 55.632812 66.851562 54.511719 66.058594 C 54.039062 65.554688 54.039062 65.554688 53.792969 65.160156 C 53.964844 65.160156 54.136719 65.160156 54.316406 65.15625 C 55.949219 65.152344 57.582031 65.140625 59.214844 65.125 C 60.050781 65.121094 60.890625 65.113281 61.730469 65.109375 C 62.542969 65.109375 63.355469 65.101562 64.164062 65.09375 C 64.472656 65.089844 64.78125 65.089844 65.089844 65.089844 C 68.074219 65.085938 70.828125 64.550781 73.113281 62.460938 C 74.054688 61.460938 74.589844 60.289062 75.132812 59.039062 C 75.199219 58.890625 75.265625 58.738281 75.332031 58.582031 C 75.726562 57.46875 75.699219 56.332031 75.707031 55.167969 C 75.707031 54.980469 75.710938 54.792969 75.710938 54.601562 C 75.71875 53.980469 75.722656 53.359375 75.726562 52.742188 C 75.730469 52.3125 75.734375 51.882812 75.738281 51.449219 C 75.746094 50.320312 75.753906 49.1875 75.765625 48.058594 C 75.773438 46.902344 75.785156 45.75 75.792969 44.59375 C 75.8125 42.328125 75.832031 40.066406 75.847656 37.800781 Z M 75.847656 37.800781 "/>
<path style=" stroke:none;fill-rule:nonzero;fill:rgb(46.27451%,71.372551%,27.450982%);fill-opacity:1;" d="M 17.460938 42.984375 C 17.625 42.988281 17.792969 42.992188 17.964844 42.992188 C 18.371094 43 18.777344 43.007812 19.1875 43.019531 C 19.1875 43.183594 19.1875 43.347656 19.1875 43.519531 C 19.191406 45.082031 19.199219 46.648438 19.210938 48.210938 C 19.214844 49.015625 19.21875 49.820312 19.222656 50.625 C 19.222656 51.402344 19.226562 52.179688 19.234375 52.960938 C 19.238281 53.253906 19.238281 53.546875 19.238281 53.84375 C 19.230469 56.605469 19.664062 59.28125 21.339844 61.558594 C 21.421875 61.683594 21.507812 61.808594 21.597656 61.9375 C 22.898438 63.644531 25.03125 64.570312 27.074219 64.980469 C 28.050781 65.070312 28.050781 65.070312 29.046875 65.160156 C 29.046875 66.703125 29.046875 68.25 29.046875 69.839844 C 27.34375 69.855469 25.636719 69.871094 23.933594 69.878906 C 23.140625 69.882812 22.347656 69.886719 21.554688 69.894531 C 20.792969 69.902344 20.027344 69.90625 19.261719 69.910156 C 18.96875 69.910156 18.679688 69.914062 18.386719 69.917969 C 16.597656 69.9375 15.265625 69.9375 13.851562 68.679688 C 13.71875 68.527344 13.585938 68.375 13.449219 68.21875 C 13.324219 68.078125 13.195312 67.9375 13.066406 67.792969 C 12.210938 66.589844 12.113281 65.585938 12.113281 64.144531 C 12.113281 63.957031 12.113281 63.765625 12.109375 63.574219 C 12.105469 62.953125 12.101562 62.328125 12.101562 61.707031 C 12.101562 61.273438 12.097656 60.839844 12.097656 60.40625 C 12.09375 59.5 12.09375 58.589844 12.09375 57.679688 C 12.09375 56.519531 12.085938 55.359375 12.078125 54.195312 C 12.070312 53.300781 12.070312 52.40625 12.070312 51.507812 C 12.070312 51.082031 12.066406 50.652344 12.0625 50.226562 C 12.058594 49.625 12.058594 49.027344 12.0625 48.425781 C 12.058594 48.25 12.054688 48.074219 12.054688 47.894531 C 12.074219 46.441406 12.59375 45.34375 13.601562 44.292969 C 14.800781 43.1875 15.863281 42.941406 17.460938 42.984375 Z M 17.460938 42.984375 "/>
<path style=" stroke:none;fill-rule:nonzero;fill:rgb(46.666667%,71.372551%,27.843139%);fill-opacity:1;" d="M 75.800781 19.175781 C 76.078125 19.171875 76.351562 19.164062 76.628906 19.15625 C 79.214844 19.0625 79.214844 19.0625 80.039062 19.796875 C 80.144531 19.914062 80.246094 20.027344 80.351562 20.148438 C 80.746094 20.582031 81.179688 20.894531 81.652344 21.242188 C 83.433594 22.667969 84.621094 23.953125 84.894531 26.253906 C 85.0625 28.386719 84.957031 30.40625 83.546875 32.097656 C 82.589844 33.171875 81.484375 34.070312 80.332031 34.921875 C 80.210938 35.023438 80.089844 35.125 79.96875 35.230469 C 79.523438 35.519531 79.246094 35.523438 78.71875 35.511719 C 78.550781 35.511719 78.386719 35.507812 78.210938 35.507812 C 78.039062 35.503906 77.863281 35.5 77.6875 35.492188 C 77.511719 35.492188 77.332031 35.488281 77.152344 35.488281 C 76.71875 35.480469 76.28125 35.472656 75.847656 35.460938 C 75.847656 35.269531 75.84375 35.078125 75.84375 34.882812 C 75.835938 34.167969 75.824219 33.449219 75.8125 32.734375 C 75.804688 32.425781 75.800781 32.117188 75.800781 31.808594 C 75.773438 28.894531 75.34375 26.417969 73.273438 24.207031 C 72.363281 23.347656 71.417969 22.683594 70.289062 22.140625 C 71.09375 21.054688 72.109375 20.277344 73.160156 19.441406 C 73.632812 18.964844 75.136719 19.1875 75.800781 19.175781 Z M 75.800781 19.175781 "/>
<path style=" stroke:none;fill-rule:nonzero;fill:rgb(45.882353%,70.980394%,28.627452%);fill-opacity:1;" d="M 58.753906 16.328125 C 59.023438 16.328125 59.292969 16.328125 59.566406 16.328125 C 60.277344 16.332031 60.984375 16.335938 61.695312 16.34375 C 62.421875 16.347656 63.148438 16.351562 63.875 16.355469 C 65.296875 16.359375 66.714844 16.367188 68.136719 16.378906 C 68.136719 17.984375 68.136719 19.585938 68.136719 21.238281 C 62.871094 21.238281 57.605469 21.238281 52.179688 21.238281 C 52.390625 19.328125 52.699219 18.425781 54.082031 17.199219 C 55.5625 16.238281 57.054688 16.308594 58.753906 16.328125 Z M 58.753906 16.328125 "/>
<path style=" stroke:none;fill-rule:nonzero;fill:rgb(98.039216%,98.431373%,97.647059%);fill-opacity:1;" d="M 60.484375 36.640625 C 61.785156 37.417969 62.710938 38.484375 63.117188 39.960938 C 63.320312 41.265625 63.050781 42.417969 62.398438 43.558594 C 61.75 44.417969 60.964844 45.140625 59.890625 45.359375 C 58.371094 45.542969 57.214844 45.46875 55.941406 44.574219 C 55.496094 44.207031 55.171875 43.875 54.867188 43.378906 C 54.804688 43.28125 54.738281 43.183594 54.667969 43.078125 C 54.039062 42.023438 53.976562 40.984375 54.152344 39.78125 C 54.636719 38.242188 55.523438 37.359375 56.875 36.5625 C 58.058594 36.210938 59.332031 36.121094 60.484375 36.640625 Z M 60.484375 36.640625 "/>
<path style=" stroke:none;fill-rule:nonzero;fill:rgb(98.039216%,98.431373%,98.039216%);fill-opacity:1;" d="M 38.128906 36.519531 C 39.449219 37.199219 40.304688 38.238281 40.882812 39.601562 C 41.082031 41.007812 40.992188 42.296875 40.277344 43.539062 C 39.796875 44.167969 39.226562 44.601562 38.550781 45 C 38.445312 45.066406 38.335938 45.132812 38.226562 45.203125 C 37.230469 45.601562 35.910156 45.507812 34.886719 45.25 C 33.699219 44.722656 32.933594 43.707031 32.285156 42.613281 C 31.917969 41.300781 31.894531 40.066406 32.464844 38.8125 C 32.929688 37.992188 33.476562 37.429688 34.25 36.898438 C 34.480469 36.734375 34.480469 36.734375 34.71875 36.5625 C 35.820312 36.195312 37.015625 36.144531 38.128906 36.519531 Z M 38.128906 36.519531 "/>
<path style=" stroke:none;fill-rule:nonzero;fill:rgb(98.039216%,98.823529%,97.647059%);fill-opacity:1;" d="M 43.394531 50.398438 C 43.765625 50.644531 44.101562 50.914062 44.449219 51.191406 C 45.839844 52.25 47.238281 52.390625 48.953125 52.199219 C 50.101562 51.921875 50.859375 51.414062 51.714844 50.617188 C 52 50.398438 52 50.398438 52.582031 50.296875 C 53.074219 50.398438 53.074219 50.398438 53.410156 50.601562 C 53.71875 51.113281 53.707031 51.433594 53.613281 52.019531 C 52.597656 53.378906 50.773438 54.273438 49.132812 54.539062 C 46.609375 54.800781 44.761719 54.261719 42.648438 52.835938 C 42.136719 52.40625 41.808594 52.046875 41.710938 51.378906 C 41.78125 50.941406 41.78125 50.941406 41.980469 50.613281 C 42.503906 50.28125 42.78125 50.296875 43.394531 50.398438 Z M 43.394531 50.398438 "/>
<path style=" stroke:none;fill-rule:nonzero;fill:rgb(45.490196%,71.764708%,29.019609%);fill-opacity:1;" d="M 44.46875 65.160156 C 44.582031 66.414062 44.316406 67.203125 43.574219 68.21875 C 42.800781 69.066406 41.855469 69.75 40.691406 69.882812 C 40.308594 69.894531 39.929688 69.886719 39.550781 69.875 C 39.417969 69.871094 39.285156 69.867188 39.152344 69.867188 C 38.832031 69.859375 38.511719 69.851562 38.191406 69.839844 C 38.925781 68.921875 39.734375 68.125 40.609375 67.347656 C 41.167969 66.84375 41.671875 66.320312 42.171875 65.757812 C 42.875 65.027344 43.496094 64.996094 44.46875 65.160156 Z M 44.46875 65.160156 "/>
<path style=" stroke:none;fill-rule:nonzero;fill:rgb(92.941177%,93.333334%,92.941177%);fill-opacity:1;" d="M 83.738281 64.800781 C 83.914062 64.917969 84.09375 65.039062 84.277344 65.160156 C 83.363281 66.394531 83.363281 66.394531 82.683594 66.5 C 82.558594 66.472656 82.433594 66.445312 82.304688 66.421875 C 82.679688 65.703125 83.085938 65.277344 83.738281 64.800781 Z M 83.738281 64.800781 "/>
<path style=" stroke:none;fill-rule:nonzero;fill:rgb(48.627451%,74.117649%,34.901962%);fill-opacity:1;" d="M 39.628906 68.21875 C 39.804688 68.28125 39.984375 68.339844 40.164062 68.398438 C 39.808594 68.757812 39.457031 69.113281 39.089844 69.480469 C 38.914062 69.421875 38.734375 69.359375 38.550781 69.300781 C 38.90625 68.945312 39.261719 68.585938 39.628906 68.21875 Z M 39.628906 68.21875 "/>
<path style=" stroke:none;fill-rule:nonzero;fill:rgb(48.235294%,73.725492%,31.37255%);fill-opacity:1;" d="M 43.214844 65.160156 C 42.980469 65.679688 42.738281 66.035156 42.316406 66.421875 C 42.140625 66.359375 41.960938 66.300781 41.78125 66.238281 C 41.949219 66.058594 42.121094 65.878906 42.292969 65.699219 C 42.390625 65.601562 42.484375 65.5 42.585938 65.394531 C 42.855469 65.160156 42.855469 65.160156 43.214844 65.160156 Z M 43.214844 65.160156 "/>
<path style=" stroke:none;fill-rule:nonzero;fill:rgb(94.901961%,96.078432%,96.078432%);fill-opacity:1;" d="M 83.917969 65.699219 C 83.320312 66.410156 83.320312 66.410156 82.707031 66.464844 C 82.574219 66.449219 82.441406 66.433594 82.304688 66.421875 C 82.363281 66.242188 82.421875 66.0625 82.484375 65.878906 C 83.453125 65.464844 83.453125 65.464844 83.917969 65.699219 Z M 83.917969 65.699219 "/>
</g>
</svg>
