<?xml version="1.0" encoding="UTF-8"?>
<svg version="1.1" xmlns="http://www.w3.org/2000/svg" width="1254" height="1254">
<path d="M0 0 C1.62063858 -0.00503792 1.62063858 -0.00503792 3.27401733 -0.01017761 C6.83910274 -0.01966225 10.40414105 -0.02162943 13.96923828 -0.02270508 C16.45256571 -0.0259192 18.93589294 -0.02928339 21.41921997 -0.03279114 C26.6225834 -0.03877605 31.82593024 -0.04063167 37.02929688 -0.04003906 C43.68939009 -0.03993743 50.3493394 -0.05359324 57.00941277 -0.07081127 C62.1378732 -0.08194126 67.26630793 -0.08395797 72.39477921 -0.08342934 C74.84990939 -0.0846078 77.30504027 -0.08902207 79.76015854 -0.0967617 C83.19695207 -0.10658231 86.63351509 -0.1036753 90.0703125 -0.09765625 C91.07940674 -0.10327576 92.08850098 -0.10889526 93.12817383 -0.11468506 C104.63480398 -0.063596 112.08203014 2.82671898 120.31298828 11.02026367 C120.88275391 11.59776367 121.45251953 12.17526367 122.03955078 12.77026367 C122.63251953 13.35549805 123.22548828 13.94073242 123.83642578 14.54370117 C128.16455078 18.89177145 128.16455078 18.89177145 128.16455078 21.14526367 C129.00759766 21.50104492 129.00759766 21.50104492 129.86767578 21.86401367 C132.6834912 23.43474064 134.64410494 25.35997832 136.91455078 27.64526367 C137.71376953 28.43932617 138.51298828 29.23338867 139.33642578 30.05151367 C141.16455078 32.14526367 141.16455078 32.14526367 141.16455078 34.14526367 C141.99986328 34.48557617 141.99986328 34.48557617 142.85205078 34.83276367 C145.82614666 36.52076403 147.88463943 38.61202884 150.16455078 41.14526367 C150.16455078 41.80526367 150.16455078 42.46526367 150.16455078 43.14526367 C151.06173828 43.53584961 151.06173828 43.53584961 151.97705078 43.93432617 C154.3283255 45.23592468 155.48207338 46.44345563 157.16455078 48.52026367 C159.39820577 51.19189022 161.69479836 53.69614707 164.21533203 56.09448242 C164.75222656 56.60897949 165.28912109 57.12347656 165.84228516 57.65356445 C166.91042081 58.66905901 167.98824449 59.6744854 169.07666016 60.66821289 C174.11776131 65.49628687 175.21770662 70.25239778 175.42524719 76.97084045 C175.44007035 78.83890573 175.44404714 80.70707749 175.43920898 82.57519531 C175.44431992 83.60045822 175.44943085 84.62572113 175.45469666 85.68205261 C175.46854849 89.05656845 175.46763958 92.43087911 175.46533203 95.80541992 C175.46922056 98.15758846 175.47355555 100.50975629 175.47831726 102.86192322 C175.48576938 107.78525065 175.48549487 112.70850635 175.48022461 117.63183594 C175.47442259 123.93904081 175.4913838 130.24595274 175.51456928 136.55310917 C175.52930136 141.40784927 175.53017917 146.26251865 175.52705956 151.11727715 C175.52757274 153.44288146 175.53280993 155.76848974 175.54287148 158.09407234 C175.55521197 161.34448444 175.5484588 164.59432359 175.53686523 167.84472656 C175.54450897 168.80333588 175.55215271 169.76194519 175.56002808 170.74960327 C175.49318108 179.23168523 173.01133929 183.68218149 166.95874023 189.69165039 C166.44136292 190.20946579 165.9239856 190.72728119 165.39093018 191.26078796 C163.69358326 192.95605909 161.98588996 194.64047829 160.27783203 196.32495117 C159.09319175 197.50399121 157.9092158 198.68369908 156.72587585 199.86404419 C153.62043575 202.95806937 150.50609053 206.04297617 147.38977051 209.1260376 C144.20703001 212.2780049 141.03284092 215.43855831 137.85791016 218.59838867 C131.63510319 224.78909066 125.40285726 230.97018085 119.16455078 237.14526367 C120.82227462 240.63269158 122.81980484 243.2164009 125.35205078 246.14526367 C133.37923876 255.87323627 138.55251278 266.07215035 142.16455078 278.14526367 C142.41329594 278.97040641 142.6620411 279.79554916 142.91832399 280.64569622 C145.13389809 288.62228859 145.59368291 296.02896738 145.55895996 304.27879333 C145.56385988 305.66837096 145.57005474 307.0579445 145.57741785 308.44751126 C145.59370218 312.23365045 145.59152311 316.01957986 145.58604288 319.80574167 C145.58335822 323.9021107 145.59793161 327.9984256 145.61013794 332.09477234 C145.63113684 340.1093148 145.63573586 348.12378483 145.63395005 356.13835155 C145.63263913 362.66010991 145.6364634 369.1818458 145.64387512 375.70359993 C145.64597449 377.58686242 145.64807209 379.47012492 145.65016794 381.35338742 C145.65173323 382.75975011 145.65173323 382.75975011 145.65333015 384.19452418 C145.67221168 401.90703154 145.67118931 419.61949744 145.66436082 437.33201069 C145.65879229 453.49637543 145.67958507 469.66058133 145.71272129 485.82490896 C145.74655129 502.45805642 145.7616147 519.091128 145.75700426 535.72431046 C145.75476826 545.04809693 145.759874 554.3717368 145.78489685 563.6954937 C145.80603113 571.63749571 145.80938332 579.57927082 145.79059726 587.52128255 C145.78151177 591.56452647 145.78007158 595.60734876 145.80095291 599.65055847 C145.94966615 630.52332401 141.92496494 655.397453 121.16455078 679.14526367 C120.49681641 679.91483398 119.82908203 680.6844043 119.14111328 681.47729492 C105.24333069 696.34264466 82.79032539 708.35766977 62.3078261 709.27291417 C61.30969832 709.27416067 60.31157053 709.27540717 59.28319645 709.27669144 C57.54442174 709.28245315 57.54442174 709.28245315 55.77052027 709.28833127 C54.50643428 709.28746479 53.24234829 709.28659831 51.93995667 709.28570557 C50.57603415 709.28829112 49.21211239 709.29130481 47.84819168 709.29470897 C44.10538065 709.30276021 40.36258883 709.3045675 36.61977017 709.30530643 C32.58069098 709.30716032 28.54162167 709.31470947 24.50254822 709.32144165 C15.67160085 709.3350134 6.84065803 709.34104823 -1.99029803 709.34545231 C-7.50855337 709.34821738 -13.02680696 709.35245528 -18.54506111 709.35695648 C-33.83448266 709.36914894 -49.12390282 709.37944745 -64.41332912 709.38283157 C-65.3915919 709.38305114 -66.36985468 709.38327071 -67.37776178 709.38349693 C-68.84860515 709.38382434 -68.84860515 709.38382434 -70.34916252 709.38415837 C-72.3360465 709.38460183 -74.32293048 709.3850484 -76.30981445 709.38549805 C-77.78814911 709.38583019 -77.78814911 709.38583019 -79.29634912 709.38616905 C-95.25170915 709.3901137 -111.20702342 709.40755768 -127.16236579 709.43085757 C-143.55797991 709.45460631 -159.9535711 709.46703507 -176.34920269 709.46819949 C-185.548775 709.46911441 -194.74828771 709.47482028 -203.94784355 709.4930191 C-211.7847104 709.50846787 -219.62149924 709.51351259 -227.45837843 709.505281 C-231.45213771 709.50139099 -235.44574014 709.50222269 -239.43947983 709.51633835 C-243.10580415 709.5291774 -246.77185538 709.52779333 -250.43817986 709.51574764 C-252.37137368 709.51289875 -254.30457268 709.52465027 -256.23772806 709.53716969 C-281.16340295 709.39828167 -302.13198877 700.07335465 -320.05810547 682.99291992 C-325.28413299 677.6345879 -329.12372851 672.10404936 -331.83544922 665.14526367 C-343.03446302 663.43328348 -354.20985216 662.37192412 -365.52294922 661.83276367 C-366.78125612 661.77225389 -366.78125612 661.77225389 -368.06498337 661.7105217 C-390.95403375 660.77572471 -408.04312666 664.10403359 -425.32763672 679.79370117 C-439.59825661 693.0309423 -452.55360898 707.97108558 -464.54911327 723.285182 C-465.60158039 724.60726164 -466.71304621 725.88201663 -467.83544922 727.14526367 C-468.49544922 727.14526367 -469.15544922 727.14526367 -469.83544922 727.14526367 C-470.04169922 727.67635742 -470.24794922 728.20745117 -470.46044922 728.75463867 C-472.41506114 732.15299803 -475.05668639 734.65582295 -477.83544922 737.39526367 C-478.65529297 738.22670898 -478.65529297 738.22670898 -479.49169922 739.07495117 C-483.58206252 743.14526367 -483.58206252 743.14526367 -485.83544922 743.14526367 C-485.83544922 743.80526367 -485.83544922 744.46526367 -485.83544922 745.14526367 C-486.49544922 745.14526367 -487.15544922 745.14526367 -487.83544922 745.14526367 C-487.83544922 745.80526367 -487.83544922 746.46526367 -487.83544922 747.14526367 C-488.49544922 747.14526367 -489.15544922 747.14526367 -489.83544922 747.14526367 C-489.83544922 747.80526367 -489.83544922 748.46526367 -489.83544922 749.14526367 C-497.46159591 756.65737452 -504.45773753 761.01822693 -515.14794922 761.64526367 C-523.90769096 761.33855003 -531.40438651 758.191938 -537.39794922 751.77026367 C-543.24990351 744.46139129 -544.96571634 737.44351376 -544.94897461 728.15185547 C-544.94912064 727.4683754 -544.94926666 726.78489532 -544.94941711 726.08070374 C-544.94872383 723.83526366 -544.94095896 721.5899079 -544.93310547 719.34448242 C-544.93123921 717.78221176 -544.92981629 716.21994052 -544.92881775 714.65766907 C-544.92500894 710.55596283 -544.91519268 706.45429228 -544.90411377 702.3526001 C-544.89386442 698.16305016 -544.88931259 693.97349442 -544.88427734 689.78393555 C-544.87356889 681.57102858 -544.85651219 673.35815058 -544.83544922 665.14526367 C-546.10960693 665.16621094 -547.38376465 665.1871582 -548.6965332 665.20874023 C-553.5067991 665.28214401 -558.31701758 665.32742157 -563.12768555 665.36499023 C-565.19417698 665.38488039 -567.26061387 665.41200241 -569.3269043 665.44702148 C-599.53482212 665.94547778 -625.53791346 657.58017963 -647.66333008 636.46630859 C-665.35119358 618.96345962 -677.02571977 595.2988315 -677.23229257 570.26220825 C-677.23684128 567.74347354 -677.22675503 565.22502832 -677.21640015 562.70631409 C-677.21986216 560.86128349 -677.22463036 559.01625497 -677.23058188 557.17123073 C-677.24304693 552.13107041 -677.23694201 547.0910816 -677.22762322 542.05092084 C-677.22081454 536.60364803 -677.231323 531.15640399 -677.23956299 525.70913696 C-677.25288339 515.04942639 -677.25003004 504.38977928 -677.24132507 493.73006625 C-677.23454191 485.06391947 -677.23363454 476.39779044 -677.23689651 467.73164177 C-677.23735621 466.49685878 -677.23781591 465.2620758 -677.23828954 463.98987515 C-677.23924875 461.48119632 -677.24022139 458.9725175 -677.24120732 456.46383869 C-677.24951278 433.62469665 -677.24090848 410.78558511 -677.22517953 387.94644883 C-677.2109455 367.11971691 -677.21221617 346.29304003 -677.2265625 325.46630859 C-677.24264484 302.04137087 -677.24893067 278.61646188 -677.23972571 255.1915192 C-677.23877009 252.69191325 -677.23782698 250.1923073 -677.23689651 247.69270134 C-677.23643369 246.46294886 -677.23597086 245.23319638 -677.23549401 243.96617867 C-677.23290745 235.31434944 -677.23726797 226.66253978 -677.24433517 218.01071358 C-677.25276319 207.46135577 -677.25044273 196.91206489 -677.23449294 186.36271472 C-677.22662753 180.98376975 -677.2234891 175.60493625 -677.2334404 170.2259922 C-677.24242373 165.29555709 -677.23739477 160.36533606 -677.22150774 155.43492018 C-677.21817528 153.6578192 -677.21981915 151.88069987 -677.22713511 150.10361082 C-677.28196704 135.66973967 -675.60225588 122.87024314 -669.64794922 109.52026367 C-669.05203979 108.16771484 -669.05203979 108.16771484 -668.4440918 106.7878418 C-659.04746124 85.99211212 -641.8479718 67.23782552 -621.21044922 57.14526367 C-620.51242187 56.80277588 -619.81439453 56.46028809 -619.09521484 56.10742188 C-600.74723477 47.23240189 -583.91452717 44.68699817 -563.80311584 44.76431274 C-561.82151595 44.7608492 -559.83991798 44.75607998 -557.85832399 44.75013101 C-552.45448533 44.73768704 -547.05080701 44.74376116 -541.64696801 44.75308967 C-535.80295966 44.75990708 -529.95897794 44.7493856 -524.11497498 44.7411499 C-512.68263399 44.72783878 -501.25035223 44.7306787 -489.81800897 44.73938783 C-480.52266936 44.74617462 -471.2273463 44.74707678 -461.93200493 44.74381638 C-461.27012543 44.74358722 -460.60824593 44.74335807 -459.92630948 44.74312197 C-457.23910688 44.74218786 -454.55190429 44.74123265 -451.86470172 44.74024267 C-426.68654408 44.73107772 -401.50841865 44.73936673 -376.33026599 44.75553337 C-353.99253962 44.76976719 -331.65486458 44.76849629 -309.31713867 44.75415039 C-284.1847667 44.73806341 -259.05242316 44.7317295 -233.92004675 44.74098718 C-231.23760093 44.74194924 -228.5551551 44.74288777 -225.87270927 44.74381638 C-223.89321775 44.74451062 -223.89321775 44.74451062 -221.87373649 44.74521888 C-212.59510362 44.74780405 -203.31648901 44.74344795 -194.03785896 44.73637772 C-182.72230337 44.72794456 -171.40681018 44.73028094 -160.09126169 44.74621995 C-154.32307556 44.75407845 -148.55499327 44.75723569 -142.78680801 44.74727249 C-137.49735897 44.73827471 -132.20810918 44.74334155 -126.91867798 44.75920515 C-125.0144269 44.76253156 -123.11015867 44.76090767 -121.2059188 44.75357778 C-106.49736187 44.70134381 -91.65580775 45.34849338 -78.02294922 51.45776367 C-73.50500727 53.66099013 -73.50500727 53.66099013 -68.65576172 53.60229492 C-66.34801987 51.75511099 -64.46618204 49.74997664 -62.52294922 47.52026367 C-61.73275391 46.62049805 -60.94255859 45.72073242 -60.12841797 44.79370117 C-59.37173828 43.9197168 -58.61505859 43.04573242 -57.83544922 42.14526367 C-56.66913622 40.81162097 -55.50250103 39.47825991 -54.33544922 38.14526367 C-53.77212891 37.4981543 -53.20880859 36.85104492 -52.62841797 36.18432617 C-50.65703879 33.94236554 -48.65382231 31.73140565 -46.64794922 29.52026367 C-44.00471353 26.60187887 -41.40787141 23.65512563 -38.87451172 20.64135742 C-26.87605289 6.36994577 -19.22103691 -0.00859771 0 0 Z " fill="#103518" transform="translate(920.83544921875,232.854736328125)"/>
<path d="M0 0 C1.62063858 -0.00503792 1.62063858 -0.00503792 3.27401733 -0.01017761 C6.83910274 -0.01966225 10.40414105 -0.02162943 13.96923828 -0.02270508 C16.45256571 -0.0259192 18.93589294 -0.02928339 21.41921997 -0.03279114 C26.6225834 -0.03877605 31.82593024 -0.04063167 37.02929688 -0.04003906 C43.68939009 -0.03993743 50.3493394 -0.05359324 57.00941277 -0.07081127 C62.1378732 -0.08194126 67.26630793 -0.08395797 72.39477921 -0.08342934 C74.84990939 -0.0846078 77.30504027 -0.08902207 79.76015854 -0.0967617 C83.19695207 -0.10658231 86.63351509 -0.1036753 90.0703125 -0.09765625 C91.07940674 -0.10327576 92.08850098 -0.10889526 93.12817383 -0.11468506 C104.63480398 -0.063596 112.08203014 2.82671898 120.31298828 11.02026367 C120.88275391 11.59776367 121.45251953 12.17526367 122.03955078 12.77026367 C122.63251953 13.35549805 123.22548828 13.94073242 123.83642578 14.54370117 C128.16455078 18.89177145 128.16455078 18.89177145 128.16455078 21.14526367 C129.00759766 21.50104492 129.00759766 21.50104492 129.86767578 21.86401367 C132.6834912 23.43474064 134.64410494 25.35997832 136.91455078 27.64526367 C137.71376953 28.43932617 138.51298828 29.23338867 139.33642578 30.05151367 C141.16455078 32.14526367 141.16455078 32.14526367 141.16455078 34.14526367 C141.99986328 34.48557617 141.99986328 34.48557617 142.85205078 34.83276367 C145.82614666 36.52076403 147.88463943 38.61202884 150.16455078 41.14526367 C150.16455078 41.80526367 150.16455078 42.46526367 150.16455078 43.14526367 C151.06173828 43.53584961 151.06173828 43.53584961 151.97705078 43.93432617 C154.3283255 45.23592468 155.48207338 46.44345563 157.16455078 48.52026367 C159.39820577 51.19189022 161.69479836 53.69614707 164.21533203 56.09448242 C164.75222656 56.60897949 165.28912109 57.12347656 165.84228516 57.65356445 C166.91042081 58.66905901 167.98824449 59.6744854 169.07666016 60.66821289 C174.11776131 65.49628687 175.21770662 70.25239778 175.42524719 76.97084045 C175.44007035 78.83890573 175.44404714 80.70707749 175.43920898 82.57519531 C175.44431992 83.60045822 175.44943085 84.62572113 175.45469666 85.68205261 C175.46854849 89.05656845 175.46763958 92.43087911 175.46533203 95.80541992 C175.46922056 98.15758846 175.47355555 100.50975629 175.47831726 102.86192322 C175.48576938 107.78525065 175.48549487 112.70850635 175.48022461 117.63183594 C175.47442259 123.93904081 175.4913838 130.24595274 175.51456928 136.55310917 C175.52930136 141.40784927 175.53017917 146.26251865 175.52705956 151.11727715 C175.52757274 153.44288146 175.53280993 155.76848974 175.54287148 158.09407234 C175.55521197 161.34448444 175.5484588 164.59432359 175.53686523 167.84472656 C175.54450897 168.80333588 175.55215271 169.76194519 175.56002808 170.74960327 C175.49318108 179.23168523 173.01133929 183.68218149 166.95874023 189.69165039 C166.44136292 190.20946579 165.9239856 190.72728119 165.39093018 191.26078796 C163.69358326 192.95605909 161.98588996 194.64047829 160.27783203 196.32495117 C159.09319175 197.50399121 157.9092158 198.68369908 156.72587585 199.86404419 C153.62043575 202.95806937 150.50609053 206.04297617 147.38977051 209.1260376 C144.20703001 212.2780049 141.03284092 215.43855831 137.85791016 218.59838867 C131.63510319 224.78909066 125.40285726 230.97018085 119.16455078 237.14526367 C120.82227462 240.63269158 122.81980484 243.2164009 125.35205078 246.14526367 C133.37923876 255.87323627 138.55251278 266.07215035 142.16455078 278.14526367 C142.41329594 278.97040641 142.6620411 279.79554916 142.91832399 280.64569622 C145.13389809 288.62228859 145.59368291 296.02896738 145.55895996 304.27879333 C145.56385988 305.66837096 145.57005474 307.0579445 145.57741785 308.44751126 C145.59370218 312.23365045 145.59152311 316.01957986 145.58604288 319.80574167 C145.58335822 323.9021107 145.59793161 327.9984256 145.61013794 332.09477234 C145.63113684 340.1093148 145.63573586 348.12378483 145.63395005 356.13835155 C145.63263913 362.66010991 145.6364634 369.1818458 145.64387512 375.70359993 C145.64597449 377.58686242 145.64807209 379.47012492 145.65016794 381.35338742 C145.65173323 382.75975011 145.65173323 382.75975011 145.65333015 384.19452418 C145.67221168 401.90703154 145.67118931 419.61949744 145.66436082 437.33201069 C145.65879229 453.49637543 145.67958507 469.66058133 145.71272129 485.82490896 C145.74655129 502.45805642 145.7616147 519.091128 145.75700426 535.72431046 C145.75476826 545.04809693 145.759874 554.3717368 145.78489685 563.6954937 C145.80603113 571.63749571 145.80938332 579.57927082 145.79059726 587.52128255 C145.78151177 591.56452647 145.78007158 595.60734876 145.80095291 599.65055847 C145.94966615 630.52332401 141.92496494 655.397453 121.16455078 679.14526367 C120.49681641 679.91483398 119.82908203 680.6844043 119.14111328 681.47729492 C105.24333069 696.34264466 82.79032539 708.35766977 62.3078261 709.27291417 C61.30969832 709.27416067 60.31157053 709.27540717 59.28319645 709.27669144 C57.54442174 709.28245315 57.54442174 709.28245315 55.77052027 709.28833127 C54.50643428 709.28746479 53.24234829 709.28659831 51.93995667 709.28570557 C50.57603415 709.28829112 49.21211239 709.29130481 47.84819168 709.29470897 C44.10538065 709.30276021 40.36258883 709.3045675 36.61977017 709.30530643 C32.58069098 709.30716032 28.54162167 709.31470947 24.50254822 709.32144165 C15.67160085 709.3350134 6.84065803 709.34104823 -1.99029803 709.34545231 C-7.50855337 709.34821738 -13.02680696 709.35245528 -18.54506111 709.35695648 C-33.83448266 709.36914894 -49.12390282 709.37944745 -64.41332912 709.38283157 C-65.3915919 709.38305114 -66.36985468 709.38327071 -67.37776178 709.38349693 C-68.84860515 709.38382434 -68.84860515 709.38382434 -70.34916252 709.38415837 C-72.3360465 709.38460183 -74.32293048 709.3850484 -76.30981445 709.38549805 C-77.78814911 709.38583019 -77.78814911 709.38583019 -79.29634912 709.38616905 C-95.25170915 709.3901137 -111.20702342 709.40755768 -127.16236579 709.43085757 C-143.55797991 709.45460631 -159.9535711 709.46703507 -176.34920269 709.46819949 C-185.548775 709.46911441 -194.74828771 709.47482028 -203.94784355 709.4930191 C-211.7847104 709.50846787 -219.62149924 709.51351259 -227.45837843 709.505281 C-231.45213771 709.50139099 -235.44574014 709.50222269 -239.43947983 709.51633835 C-243.10580415 709.5291774 -246.77185538 709.52779333 -250.43817986 709.51574764 C-252.37137368 709.51289875 -254.30457268 709.52465027 -256.23772806 709.53716969 C-281.16340295 709.39828167 -302.13198877 700.07335465 -320.05810547 682.99291992 C-325.28413299 677.6345879 -329.12372851 672.10404936 -331.83544922 665.14526367 C-343.03446302 663.43328348 -354.20985216 662.37192412 -365.52294922 661.83276367 C-366.78125612 661.77225389 -366.78125612 661.77225389 -368.06498337 661.7105217 C-390.95403375 660.77572471 -408.04312666 664.10403359 -425.32763672 679.79370117 C-439.59825661 693.0309423 -452.55360898 707.97108558 -464.54911327 723.285182 C-465.60158039 724.60726164 -466.71304621 725.88201663 -467.83544922 727.14526367 C-468.49544922 727.14526367 -469.15544922 727.14526367 -469.83544922 727.14526367 C-470.04169922 727.67635742 -470.24794922 728.20745117 -470.46044922 728.75463867 C-472.41506114 732.15299803 -475.05668639 734.65582295 -477.83544922 737.39526367 C-478.65529297 738.22670898 -478.65529297 738.22670898 -479.49169922 739.07495117 C-483.58206252 743.14526367 -483.58206252 743.14526367 -485.83544922 743.14526367 C-485.83544922 743.80526367 -485.83544922 744.46526367 -485.83544922 745.14526367 C-486.49544922 745.14526367 -487.15544922 745.14526367 -487.83544922 745.14526367 C-487.83544922 745.80526367 -487.83544922 746.46526367 -487.83544922 747.14526367 C-488.49544922 747.14526367 -489.15544922 747.14526367 -489.83544922 747.14526367 C-489.83544922 747.80526367 -489.83544922 748.46526367 -489.83544922 749.14526367 C-497.46159591 756.65737452 -504.45773753 761.01822693 -515.14794922 761.64526367 C-523.90769096 761.33855003 -531.40438651 758.191938 -537.39794922 751.77026367 C-543.24990351 744.46139129 -544.96571634 737.44351376 -544.94897461 728.15185547 C-544.94912064 727.4683754 -544.94926666 726.78489532 -544.94941711 726.08070374 C-544.94872383 723.83526366 -544.94095896 721.5899079 -544.93310547 719.34448242 C-544.93123921 717.78221176 -544.92981629 716.21994052 -544.92881775 714.65766907 C-544.92500894 710.55596283 -544.91519268 706.45429228 -544.90411377 702.3526001 C-544.89386442 698.16305016 -544.88931259 693.97349442 -544.88427734 689.78393555 C-544.87356889 681.57102858 -544.85651219 673.35815058 -544.83544922 665.14526367 C-546.10960693 665.16621094 -547.38376465 665.1871582 -548.6965332 665.20874023 C-553.5067991 665.28214401 -558.31701758 665.32742157 -563.12768555 665.36499023 C-565.19417698 665.38488039 -567.26061387 665.41200241 -569.3269043 665.44702148 C-599.53482212 665.94547778 -625.53791346 657.58017963 -647.66333008 636.46630859 C-665.35119358 618.96345962 -677.02571977 595.2988315 -677.23229257 570.26220825 C-677.23684128 567.74347354 -677.22675503 565.22502832 -677.21640015 562.70631409 C-677.21986216 560.86128349 -677.22463036 559.01625497 -677.23058188 557.17123073 C-677.24304693 552.13107041 -677.23694201 547.0910816 -677.22762322 542.05092084 C-677.22081454 536.60364803 -677.231323 531.15640399 -677.23956299 525.70913696 C-677.25288339 515.04942639 -677.25003004 504.38977928 -677.24132507 493.73006625 C-677.23454191 485.06391947 -677.23363454 476.39779044 -677.23689651 467.73164177 C-677.23735621 466.49685878 -677.23781591 465.2620758 -677.23828954 463.98987515 C-677.23924875 461.48119632 -677.24022139 458.9725175 -677.24120732 456.46383869 C-677.24951278 433.62469665 -677.24090848 410.78558511 -677.22517953 387.94644883 C-677.2109455 367.11971691 -677.21221617 346.29304003 -677.2265625 325.46630859 C-677.24264484 302.04137087 -677.24893067 278.61646188 -677.23972571 255.1915192 C-677.23877009 252.69191325 -677.23782698 250.1923073 -677.23689651 247.69270134 C-677.23643369 246.46294886 -677.23597086 245.23319638 -677.23549401 243.96617867 C-677.23290745 235.31434944 -677.23726797 226.66253978 -677.24433517 218.01071358 C-677.25276319 207.46135577 -677.25044273 196.91206489 -677.23449294 186.36271472 C-677.22662753 180.98376975 -677.2234891 175.60493625 -677.2334404 170.2259922 C-677.24242373 165.29555709 -677.23739477 160.36533606 -677.22150774 155.43492018 C-677.21817528 153.6578192 -677.21981915 151.88069987 -677.22713511 150.10361082 C-677.28196704 135.66973967 -675.60225588 122.87024314 -669.64794922 109.52026367 C-669.05203979 108.16771484 -669.05203979 108.16771484 -668.4440918 106.7878418 C-659.04746124 85.99211212 -641.8479718 67.23782552 -621.21044922 57.14526367 C-620.51242187 56.80277588 -619.81439453 56.46028809 -619.09521484 56.10742188 C-600.74723477 47.23240189 -583.91452717 44.68699817 -563.80311584 44.76431274 C-561.82151595 44.7608492 -559.83991798 44.75607998 -557.85832399 44.75013101 C-552.45448533 44.73768704 -547.05080701 44.74376116 -541.64696801 44.75308967 C-535.80295966 44.75990708 -529.95897794 44.7493856 -524.11497498 44.7411499 C-512.68263399 44.72783878 -501.25035223 44.7306787 -489.81800897 44.73938783 C-480.52266936 44.74617462 -471.2273463 44.74707678 -461.93200493 44.74381638 C-461.27012543 44.74358722 -460.60824593 44.74335807 -459.92630948 44.74312197 C-457.23910688 44.74218786 -454.55190429 44.74123265 -451.86470172 44.74024267 C-426.68654408 44.73107772 -401.50841865 44.73936673 -376.33026599 44.75553337 C-353.99253962 44.76976719 -331.65486458 44.76849629 -309.31713867 44.75415039 C-284.1847667 44.73806341 -259.05242316 44.7317295 -233.92004675 44.74098718 C-231.23760093 44.74194924 -228.5551551 44.74288777 -225.87270927 44.74381638 C-223.89321775 44.74451062 -223.89321775 44.74451062 -221.87373649 44.74521888 C-212.59510362 44.74780405 -203.31648901 44.74344795 -194.03785896 44.73637772 C-182.72230337 44.72794456 -171.40681018 44.73028094 -160.09126169 44.74621995 C-154.32307556 44.75407845 -148.55499327 44.75723569 -142.78680801 44.74727249 C-137.49735897 44.73827471 -132.20810918 44.74334155 -126.91867798 44.75920515 C-125.0144269 44.76253156 -123.11015867 44.76090767 -121.2059188 44.75357778 C-106.49736187 44.70134381 -91.65580775 45.34849338 -78.02294922 51.45776367 C-73.50500727 53.66099013 -73.50500727 53.66099013 -68.65576172 53.60229492 C-66.34801987 51.75511099 -64.46618204 49.74997664 -62.52294922 47.52026367 C-61.73275391 46.62049805 -60.94255859 45.72073242 -60.12841797 44.79370117 C-59.37173828 43.9197168 -58.61505859 43.04573242 -57.83544922 42.14526367 C-56.66913622 40.81162097 -55.50250103 39.47825991 -54.33544922 38.14526367 C-53.77212891 37.4981543 -53.20880859 36.85104492 -52.62841797 36.18432617 C-50.65703879 33.94236554 -48.65382231 31.73140565 -46.64794922 29.52026367 C-44.00471353 26.60187887 -41.40787141 23.65512563 -38.87451172 20.64135742 C-26.87605289 6.36994577 -19.22103691 -0.00859771 0 0 Z M-625.83544922 88.14526367 C-626.43615234 88.61448242 -627.03685547 89.08370117 -627.65576172 89.56713867 C-639.74051841 99.21326733 -648.65709158 114.35553243 -652.83544922 129.14526367 C-653.17620798 130.32637694 -653.51696674 131.50749022 -653.86805153 132.7243948 C-655.50743336 140.24772253 -655.1179944 148.01211931 -655.10287476 155.6721344 C-655.10661399 157.46691371 -655.11121659 159.2616914 -655.1166054 161.05646652 C-655.12881735 165.97634749 -655.12857705 170.89616037 -655.12621665 175.81605303 C-655.12580802 181.12709956 -655.13685213 186.43812439 -655.14633179 191.74916077 C-655.1629335 202.15072323 -655.16844098 212.55226303 -655.16955654 222.95383764 C-655.17050753 231.41172753 -655.17462036 239.86960995 -655.18095779 248.32749748 C-655.19856892 272.32043971 -655.20779701 296.31336407 -655.20629685 320.30631281 C-655.20621693 321.59935067 -655.20613702 322.89238854 -655.20605469 324.22460938 C-655.20597293 325.51923093 -655.20589116 326.81385249 -655.20580693 328.14770501 C-655.20499434 349.12023303 -655.22412536 370.09268917 -655.25233142 391.0651964 C-655.28108141 412.61264016 -655.29487051 434.1600489 -655.29314387 455.70751232 C-655.29248064 467.79945501 -655.29794347 479.89132237 -655.31949997 491.98324776 C-655.33773969 502.28049506 -655.34203625 512.5776329 -655.32848112 522.87488938 C-655.32196525 528.12447648 -655.32178428 533.37385376 -655.33918762 538.62342072 C-655.35498476 543.43821043 -655.35198724 548.25262511 -655.33461936 553.06740605 C-655.331564 554.80025178 -655.33512598 556.53312597 -655.34633951 558.26593811 C-655.47155995 579.00576993 -650.58849284 597.04985253 -636.83544922 613.14526367 C-636.07232422 614.15588867 -635.30919922 615.16651367 -634.52294922 616.20776367 C-620.98840192 631.00133863 -601.54431739 640.15904593 -581.60549927 641.33590698 C-578.19279719 641.41962607 -574.78431236 641.44760906 -571.37060547 641.45385742 C-568.83479556 641.47898531 -566.29898832 641.50438373 -563.76318359 641.5300293 C-559.81095908 641.55889206 -555.85878045 641.58294815 -551.90649414 641.6015625 C-548.06097855 641.62315985 -544.21595239 641.66255363 -540.37060547 641.70385742 C-538.59557396 641.70403114 -538.59557396 641.70403114 -536.78468323 641.70420837 C-535.13157387 641.72421654 -535.13157387 641.72421654 -533.44506836 641.74462891 C-532.479767 641.74969955 -531.51446564 641.7547702 -530.51991272 641.75999451 C-527.33069479 642.21770508 -525.4322154 643.26691243 -522.83544922 645.14526367 C-521.26469043 648.28678126 -521.69126486 651.64659152 -521.69360352 655.09570312 C-521.69012909 655.91701721 -521.68665466 656.7383313 -521.68307495 657.58453369 C-521.67571316 659.37153252 -521.67037004 661.15854052 -521.66678429 662.94555092 C-521.65962843 665.77417576 -521.64396833 668.60262617 -521.6254425 671.43119812 C-521.57293259 679.47477826 -521.52499333 687.51826388 -521.50952148 695.56201172 C-521.49944208 700.47930567 -521.47011752 705.39616259 -521.42820168 710.31328392 C-521.4158849 712.18751915 -521.41077165 714.06181609 -521.41300011 715.93609047 C-521.41535209 718.5600817 -521.39319494 721.18281884 -521.36547852 723.80664062 C-521.37207993 724.58033493 -521.37868134 725.35402924 -521.38548279 726.15116882 C-521.29973008 731.09774221 -520.32534443 733.63414226 -516.83544922 737.14526367 C-510.64098532 736.89460702 -508.03110141 734.02331281 -503.94726562 729.80883789 C-503.28624344 729.14693954 -502.62522125 728.4850412 -501.94416809 727.80308533 C-499.76319036 725.61353246 -497.60035896 723.40691344 -495.43701172 721.19995117 C-493.91892573 719.66999034 -492.39965066 718.14120853 -490.87924194 716.61355591 C-486.87651508 712.58607264 -482.88857441 708.54426551 -478.9039917 704.49884033 C-473.30279398 698.81733569 -467.68196796 693.1552409 -462.06307983 687.49124146 C-459.07282254 684.47690839 -456.08821182 681.45715618 -453.10806274 678.43283081 C-451.73287732 677.04121156 -450.35766507 675.64961881 -448.98242188 674.25805664 C-448.37540939 673.63959366 -447.76839691 673.02113068 -447.14299011 672.38392639 C-443.45260021 668.65649264 -439.63198759 665.14664261 -435.64966393 661.73239326 C-432.85469785 659.28727288 -430.24996082 656.66743703 -427.64794922 654.02026367 C-427.15359375 653.52139648 -426.65923828 653.0225293 -426.14990234 652.50854492 C-423.79043622 650.12731824 -421.43900619 647.73920648 -419.09716797 645.34057617 C-415.82418714 642.16369322 -414.17935669 642.01983919 -409.73184299 642.01497841 C-408.64434177 642.01135406 -407.55684054 642.00772971 -406.43638474 642.00399554 C-404.62957801 642.00559792 -404.62957801 642.00559792 -402.78627014 642.00723267 C-401.51417063 642.00441139 -400.24207111 642.00159011 -398.93142313 641.99868333 C-395.38848203 641.99090932 -391.84556028 641.9893098 -388.30261171 641.9886322 C-384.48576221 641.98679608 -380.66892413 641.97919102 -376.8520813 641.97215271 C-370.23268335 641.9606132 -363.61328797 641.95237591 -356.99388313 641.94603348 C-346.52694644 641.93571493 -336.06004158 641.91515192 -325.59312439 641.89291382 C-322.012807 641.88543345 -318.43248947 641.87801976 -314.8521719 641.87062645 C-313.95729864 641.86877588 -313.06242539 641.86692532 -312.14043476 641.86501867 C-301.94722328 641.84407951 -291.75400827 641.82525861 -281.56079102 641.80737305 C-280.16272201 641.80491577 -280.16272201 641.80491577 -278.73640918 641.80240886 C-263.64786673 641.77615006 -248.55932184 641.75749331 -233.47076625 641.74078114 C-217.9792811 641.72334572 -202.48784384 641.69448231 -186.99639696 641.65589178 C-177.442565 641.63251772 -167.88881116 641.61849953 -158.33495038 641.61656414 C-151.7811939 641.61445084 -145.22751497 641.60148884 -138.67379332 641.58008482 C-134.8952492 641.56808548 -131.11685901 641.56088451 -127.33829689 641.56679726 C-123.23454141 641.57310363 -119.13119756 641.55621889 -115.02748108 641.53726196 C-113.84301976 641.54279166 -112.65855844 641.54832135 -111.43820435 641.55401862 C-104.12549469 641.4958324 -97.77760498 640.43671177 -90.83544922 638.14526367 C-89.68173828 637.76885742 -88.52802734 637.39245117 -87.33935547 637.00463867 C-67.0704556 629.36006023 -50.57123904 615.88539806 -40.58544922 596.45776367 C-40.1276709 595.57858276 -40.1276709 595.57858276 -39.66064453 594.68164062 C-33.13244625 581.23531655 -31.09663788 568.62713021 -31.21398926 553.8568573 C-31.20965021 552.06484311 -31.20312516 550.27283313 -31.19462919 548.48083383 C-31.17776751 543.60115639 -31.19172742 538.7219983 -31.21114397 533.84234869 C-31.22665736 528.56286912 -31.21314708 523.28344964 -31.20339966 518.00396729 C-31.18891591 507.68050615 -31.20106293 497.35724252 -31.2225129 487.03380015 C-31.2465873 475.00356656 -31.24480466 462.97337761 -31.24220699 450.94312529 C-31.23852162 429.47701658 -31.25930306 408.01100066 -31.29345703 386.54492188 C-31.32656596 365.72784075 -31.34071125 344.91085693 -31.33447266 324.09375 C-31.32770589 301.40274488 -31.33017546 278.71178045 -31.34983206 256.02078134 C-31.35087154 254.82057792 -31.35191103 253.6203745 -31.35298201 252.38380129 C-31.35507285 249.97348453 -31.35718382 247.56316779 -31.35931519 245.15285107 C-31.36620391 236.77159218 -31.36688127 228.39034583 -31.36543274 220.0090847 C-31.36399186 209.79603733 -31.37370598 199.58306917 -31.3973791 189.37004807 C-31.4092232 184.1615813 -31.41637469 178.95322484 -31.41054153 173.74474525 C-31.40535619 168.97371017 -31.41410564 164.20290778 -31.43381613 159.43191246 C-31.43854155 157.70946719 -31.43827431 155.98699914 -31.43240577 154.26455738 C-31.40437335 145.15412576 -31.7701872 136.84205258 -34.83544922 128.14526367 C-35.30917969 126.61385742 -35.30917969 126.61385742 -35.79248047 125.05151367 C-43.48810474 103.40537417 -59.26664915 86.08551705 -79.96630859 75.9543457 C-85.3610664 73.61915404 -91.10183795 72.35485747 -96.83544922 71.14526367 C-97.56043413 70.96877173 -98.28541904 70.79227978 -99.03237319 70.6104396 C-102.68137895 70.00487999 -106.27483838 70.00383058 -109.96200943 70.01104259 C-110.77985837 70.00869036 -111.59770732 70.00633813 -112.44033957 70.00391462 C-115.19251914 69.99723514 -117.94465138 69.99768253 -120.69683838 69.99809265 C-122.68544199 69.99479335 -124.67404492 69.99106765 -126.66264701 69.98695117 C-132.13689255 69.9769302 -137.61112714 69.9732142 -143.08538055 69.97056186 C-148.98615485 69.966659 -154.88692046 69.95708052 -160.78768921 69.948349 C-174.37061113 69.92951662 -187.95353458 69.91932738 -201.53646613 69.91088832 C-208.25228454 69.90667982 -214.96810205 69.90145802 -221.68391971 69.89620379 C-244.68347457 69.87831185 -267.6830297 69.86331798 -290.68259048 69.8558836 C-292.12640027 69.85540884 -293.57021005 69.85493296 -295.01401983 69.85445594 C-296.08799935 69.85410137 -296.08799935 69.85410137 -297.18367542 69.85373965 C-300.81108961 69.85253847 -304.43850379 69.85132302 -308.06591797 69.85009766 C-309.14571776 69.84973743 -309.14571776 69.84973743 -310.24733169 69.84936993 C-333.56999035 69.84148274 -356.89259805 69.81806381 -380.21523448 69.78554171 C-404.88594021 69.7512028 -429.55661616 69.73152858 -454.22734618 69.72823936 C-456.93860993 69.72782184 -459.64987366 69.72734228 -462.36113739 69.72681618 C-463.02870353 69.72669299 -463.69626967 69.72656979 -464.38406509 69.72644287 C-474.44141425 69.7242595 -484.49870769 69.71090919 -494.5560379 69.69177818 C-506.00727376 69.67004603 -517.4584166 69.66203312 -528.90967074 69.67174497 C-534.74870259 69.67628257 -540.5875426 69.67443465 -546.426548 69.65498352 C-551.78123749 69.6373005 -557.13559592 69.63839132 -562.49028918 69.65388081 C-564.4184281 69.65624911 -566.34659025 69.65197419 -568.27469376 69.64005216 C-590.02901433 69.51396642 -608.87772891 73.57115867 -625.83544922 88.14526367 Z " fill="#F9FAF9" transform="translate(920.83544921875,232.854736328125)"/>
<path d="M0 0 C0.75312469 -0.00978378 1.50624939 -0.01956757 2.28219604 -0.02964783 C4.79227938 -0.05971748 7.30230789 -0.08104101 9.8125 -0.09985352 C10.67296936 -0.10642534 11.53343872 -0.11299717 12.41998291 -0.11976814 C16.99123488 -0.15244149 21.5624631 -0.17685039 26.13378906 -0.19628906 C29.89130632 -0.21396523 33.64805355 -0.24854863 37.40527344 -0.29882812 C41.95827585 -0.35968203 46.51057518 -0.38985636 51.06396484 -0.39946175 C52.78605314 -0.4079239 54.50812748 -0.42650742 56.22998047 -0.45620537 C75.82171705 -0.77539459 94.62168734 5.21723504 109.1875 18.89624023 C119.90996169 30.42860871 127.91223929 45.97622107 127.94951439 61.97707748 C127.9571262 63.71624062 127.9571262 63.71624062 127.96489179 65.49053836 C127.96538955 66.7600639 127.96588731 68.02958944 127.96640015 69.33758545 C127.9704173 70.70334474 127.97485594 72.06910284 127.9796797 73.43485951 C127.99162354 77.18746557 127.9972886 80.94005879 128.00186086 84.69268012 C128.00782552 88.74068017 128.01943344 92.78866494 128.03015137 96.83665466 C128.05465933 106.61448901 128.0693021 116.39232841 128.08221143 126.17018402 C128.08592516 128.93392938 128.08989826 131.69767424 128.0939641 134.46141911 C128.11920727 151.63827959 128.14125196 168.8151409 128.15369225 185.99201584 C128.15662177 189.96969353 128.15958345 193.9473712 128.16259766 197.92504883 C128.16334371 198.91363676 128.16408976 199.9022247 128.16485842 200.92076984 C128.17749809 216.91690812 128.21070303 232.91293489 128.25239949 248.90902111 C128.29489632 265.34755261 128.31839639 281.78602716 128.32361281 298.22461343 C128.32701862 307.44778949 128.33867517 316.67079145 128.37171555 325.89391327 C128.39982418 333.75310443 128.41066834 341.61208578 128.39952008 349.47132328 C128.39436052 353.47555871 128.39704199 357.47935556 128.42198563 361.48352623 C128.58304624 388.82330105 125.45416746 410.74115201 105.7265625 431.39233398 C91.96599605 444.51346891 74.26156705 451.01962017 55.46092224 450.8302002 C54.08438731 450.83454297 52.70785789 450.84107132 51.33134228 450.84956026 C47.59529761 450.86636796 43.85993462 450.8525014 40.12392676 450.83304548 C36.07682565 450.81749337 32.0298014 450.83105231 27.98269653 450.84078979 C20.07310581 450.85525525 12.16377335 450.84314455 4.25420719 450.82167655 C-4.97088806 450.7975648 -14.19592541 450.79938715 -23.42104518 450.80198246 C-39.88841615 450.80566597 -56.3556661 450.78490442 -72.82299805 450.75073242 C-88.77615415 450.71764004 -104.72918331 450.70347587 -120.68237305 450.7097168 C-138.08571632 450.71649162 -155.48900656 450.71399003 -172.89234203 450.6943574 C-174.27469198 450.69279817 -174.27469198 450.69279817 -175.68496818 450.69120744 C-177.535495 450.68911666 -179.38602179 450.68700569 -181.23654856 450.68487427 C-187.65620881 450.67799951 -194.07585266 450.67730588 -200.49551582 450.67875671 C-208.32562931 450.68020129 -216.15563977 450.67041706 -223.98571915 450.64681035 C-227.9753499 450.63500813 -231.96483764 450.62778643 -235.95448494 450.63364792 C-239.61548963 450.63886738 -243.27619375 450.6299661 -246.93714725 450.61037332 C-248.8696368 450.60348201 -250.80216177 450.61102249 -252.7346459 450.61929464 C-271.8549148 450.47236937 -287.21953773 444.96956368 -300.95703125 431.75952148 C-303.12579157 429.27931047 -303.58347682 428.29183485 -304.1875 425.20874023 C-302.58977989 425.2051577 -302.58977989 425.2051577 -300.9597826 425.2015028 C-275.00992696 425.14263734 -249.06016365 425.06671097 -223.11040974 424.97302532 C-210.56116388 424.92811172 -198.01194612 424.88868679 -185.46264648 424.86230469 C-174.52122365 424.83928873 -163.57989006 424.80585045 -152.63853806 424.76003867 C-146.8483249 424.73615507 -141.05819987 424.71739442 -135.26793861 424.71112633 C-129.8104566 424.7050535 -124.35319994 424.68497438 -118.89580154 424.65446472 C-116.90009441 424.64571965 -114.90435778 424.64195454 -112.90863228 424.64373207 C-98.00560617 424.65280932 -85.42324251 423.1137658 -71.625 417.02124023 C-70.71951416 416.62469238 -69.81402832 416.22814453 -68.88110352 415.81958008 C-45.07662298 405.12558622 -25.4894814 384.69417159 -15.95779359 360.28107381 C-9.09645845 341.82191058 -8.31340158 323.75385645 -8.42122233 304.31653142 C-8.43710251 300.23639299 -8.41779494 296.15638541 -8.40307617 292.07626343 C-8.38228192 285.03477942 -8.38284311 277.99356971 -8.398489 270.95207596 C-8.42099173 260.77066875 -8.40909604 250.58951903 -8.38905505 240.4081171 C-8.3573461 223.88150907 -8.3513315 207.35500005 -8.36254883 190.82836914 C-8.37336369 174.79254276 -8.3743526 158.75677253 -8.3605957 142.72094727 C-8.35975045 141.72989879 -8.3589052 140.73885031 -8.35803434 139.71777005 C-8.34859363 128.90605983 -8.33710168 118.094352 -8.32517719 107.28264427 C-8.3220597 104.41955515 -8.31896055 101.55646602 -8.31588342 98.69337685 C-8.31384703 96.80685253 -8.31177988 94.92032824 -8.30968145 93.03380398 C-8.29650835 81.02596598 -8.29214034 69.01816777 -8.29738748 57.01032376 C-8.29995391 50.9711246 -8.29932838 44.93192719 -8.2977524 38.89272781 C-8.29677058 34.10892801 -8.30000235 29.32515611 -8.30646725 24.54136089 C-8.30935315 21.65062857 -8.30816523 18.75990921 -8.30574302 15.86917691 C-8.30535343 13.90358689 -8.31000265 11.93799791 -8.31478184 9.97241366 C-8.31300759 8.82115256 -8.31123334 7.66989146 -8.30940533 6.48374367 C-8.30999972 5.48197834 -8.31059411 4.48021301 -8.31120652 3.44809115 C-8.0457098 -1.35796368 -3.82176522 0.03104772 0 0 Z " fill="#171D18" transform="translate(917.1875,469.791259765625)"/>
<path d="M0 0 C1.0709919 -0.01210762 1.0709919 -0.01210762 2.16362 -0.02445984 C3.67407825 -0.03827755 5.18456743 -0.04901004 6.69506836 -0.05688477 C8.2342244 -0.06840127 9.77334061 -0.08884823 11.31225586 -0.1184082 C13.54177862 -0.16122384 15.77011643 -0.17727197 18 -0.1875 C19.02218376 -0.21376213 19.02218376 -0.21376213 20.0650177 -0.24055481 C25.0756843 -0.21802145 27.89501896 1.02504511 31.69921875 4.23828125 C34.61934407 8.18952692 35.07151385 11.00565044 35.0599823 15.87580872 C35.06254557 16.52936567 35.06510885 17.18292261 35.0677498 17.85628432 C35.07267702 20.03831387 35.05621329 22.21964591 35.03979492 24.40161133 C35.03894842 25.96883121 35.03942425 27.53605229 35.04112244 29.10327148 C35.0419829 33.35294429 35.02434892 37.60236288 35.00340056 41.85197663 C34.98464227 46.29491527 34.98288399 50.73785978 34.97932434 55.18083191 C34.97000139 63.59201381 34.94538421 72.00307869 34.91527587 80.41420907 C34.88173966 89.99090986 34.86524781 99.56761624 34.85018957 109.14436114 C34.81883488 128.84239982 34.76606949 148.54033316 34.69921875 168.23828125 C36.00117187 168.20347656 37.303125 168.16867187 38.64453125 168.1328125 C40.37108079 168.10466224 42.09764436 168.07736341 43.82421875 168.05078125 C44.68015625 168.02564453 45.53609375 168.00050781 46.41796875 167.97460938 C52.88670894 167.89997007 57.11749788 168.92832047 62.07421875 173.36328125 C64.33622577 177.36529367 64.51557065 180.7401823 63.69921875 185.23828125 C61.54375147 188.85638704 59.53889972 190.63780509 55.69921875 192.23828125 C53.63723093 192.49128091 53.63723093 192.49128091 51.3947382 192.49555016 C50.10726927 192.50522349 50.10726927 192.50522349 48.79379088 192.51509225 C47.38646032 192.51044645 47.38646032 192.51044645 45.95069885 192.50570679 C44.45015855 192.51250346 44.45015855 192.51250346 42.91930431 192.51943743 C39.55756581 192.53212703 36.19598836 192.53045812 32.83422852 192.52880859 C30.42798656 192.53479093 28.02174653 192.54159579 25.61550903 192.54916382 C19.75224433 192.56502045 13.88901757 192.57127343 8.0257358 192.57238857 C3.26042162 192.57333884 -1.5048793 192.57744807 -6.27018929 192.58378983 C-19.77892957 192.60140181 -33.28763808 192.61062862 -46.79638993 192.60912888 C-47.52462862 192.60904897 -48.2528673 192.60896905 -49.00317383 192.60888672 C-50.09686442 192.60876408 -50.09686442 192.60876408 -51.21264977 192.60863896 C-63.033116 192.6078258 -74.85345488 192.62697111 -86.67388427 192.65516345 C-98.80924731 192.68387875 -110.94454821 192.69770454 -123.0799461 192.6959759 C-129.89381575 192.69531159 -136.70755185 192.700822 -143.52139091 192.722332 C-149.92767907 192.74242582 -156.3337578 192.74188399 -162.74006271 192.72729874 C-165.0939163 192.72520143 -167.44778728 192.72996601 -169.80161095 192.74201965 C-173.00983556 192.75738712 -176.21707529 192.74821975 -179.42527771 192.73275757 C-180.36126736 192.74304469 -181.297257 192.75333182 -182.26160997 192.76393068 C-186.47252366 192.71894363 -188.70003272 192.61623794 -192.33596897 190.32871437 C-194.9654766 187.53108841 -196.18753803 185.68921 -196.48828125 181.8359375 C-195.992262 175.12934391 -195.992262 175.12934391 -193.9609375 172.51171875 C-188.86725114 168.25245045 -185.0599711 168.10841561 -178.67578125 168.17578125 C-177.87398438 168.18029297 -177.0721875 168.18480469 -176.24609375 168.18945312 C-174.26429119 168.20124957 -172.28252692 168.2191852 -170.30078125 168.23828125 C-170.31410492 167.51466904 -170.32742859 166.79105682 -170.34115601 166.04551697 C-170.46169582 159.20489904 -170.55288863 152.36444111 -170.61165428 145.52303219 C-170.6428839 142.00618387 -170.68519719 138.49021765 -170.75341797 134.97387695 C-170.83146914 130.92521004 -170.86026758 126.87746028 -170.88671875 122.828125 C-170.91768646 121.57370102 -170.94865417 120.31927704 -170.9805603 119.02684021 C-170.98430987 109.25801494 -170.98430987 109.25801494 -167.45166016 104.95141602 C-163.43532252 100.94537066 -159.17856138 101.05620164 -153.78125 101 C-153.04505936 100.99192825 -152.30886871 100.98385651 -151.55036926 100.97554016 C-149.99283183 100.9617209 -148.43526438 100.9509891 -146.87768555 100.94311523 C-145.29002977 100.93159755 -143.70241265 100.91114878 -142.11499023 100.8815918 C-139.81597696 100.83879165 -137.51811286 100.82272997 -135.21875 100.8125 C-134.51542038 100.79499191 -133.81209076 100.77748383 -133.08744812 100.75944519 C-128.02791254 100.78151899 -125.14696049 101.98689776 -121.30078125 105.23828125 C-119.16030958 108.53606548 -119.05712903 111.22366251 -119.07373047 115.10839844 C-119.07388153 116.28932068 -119.07403259 117.47024292 -119.07418823 118.68695068 C-119.0845108 119.95685852 -119.09483337 121.22676636 -119.10546875 122.53515625 C-119.10829865 123.83906311 -119.11112854 125.14296997 -119.11404419 126.48638916 C-119.12166404 129.94537075 -119.14129817 133.40418318 -119.16345215 136.86309814 C-119.18394622 140.39568757 -119.19316323 143.92830526 -119.203125 147.4609375 C-119.22348341 154.38686792 -119.26263344 161.31233443 -119.30078125 168.23828125 C-110.39078125 168.23828125 -101.48078125 168.23828125 -92.30078125 168.23828125 C-92.33220215 164.88212646 -92.36362305 161.52597168 -92.39599609 158.06811523 C-92.49543928 146.97619483 -92.56169952 135.88425468 -92.61165428 124.79200649 C-92.64255694 118.06707938 -92.68466718 111.34257539 -92.75341797 104.61791992 C-92.81863726 98.1275032 -92.85449368 91.63752584 -92.87004471 85.14680672 C-92.88112615 82.67124579 -92.90276585 80.19570876 -92.93516159 77.72033501 C-92.97875619 74.25109888 -92.98471368 70.78367521 -92.98193359 67.31420898 C-93.00350525 66.2920932 -93.0250769 65.26997742 -93.04730225 64.21688843 C-92.9955052 58.23831384 -92.09971792 54.87352561 -87.97824287 50.46549702 C-84.83530697 48.16615351 -81.60279491 48.27741261 -77.83203125 48.37890625 C-77.03349731 48.37695251 -76.23496338 48.37499878 -75.41223145 48.37298584 C-73.7312393 48.37696962 -72.05020943 48.39813614 -70.36962891 48.43554688 C-67.80702311 48.48815311 -65.25046161 48.47670472 -62.6875 48.45703125 C-61.0481452 48.46884678 -59.40881197 48.48434867 -57.76953125 48.50390625 C-56.63022156 48.49813568 -56.63022156 48.49813568 -55.46789551 48.49224854 C-49.80226985 48.66683604 -47.27389791 50.19317674 -43.30078125 54.23828125 C-42.10846235 56.62291904 -42.17754994 58.06948957 -42.18052673 60.73074341 C-42.17846474 62.14844528 -42.17846474 62.14844528 -42.17636108 63.5947876 C-42.17995636 64.63487976 -42.18355164 65.67497192 -42.18725586 66.74658203 C-42.18710983 67.83927399 -42.18696381 68.93196594 -42.18681335 70.05776978 C-42.18751211 73.68306437 -42.19530283 77.30830809 -42.203125 80.93359375 C-42.20498931 83.44180269 -42.20641315 85.950012 -42.20741272 88.45822144 C-42.21084564 94.39387924 -42.21873361 100.32952062 -42.22876221 106.26516998 C-42.2410262 113.68458922 -42.24640496 121.10401072 -42.25195312 128.5234375 C-42.26268866 141.76172991 -42.28028465 155.00000035 -42.30078125 168.23828125 C-33.72078125 168.23828125 -25.14078125 168.23828125 -16.30078125 168.23828125 C-16.32076675 165.25485939 -16.32076675 165.25485939 -16.34115601 162.21116638 C-16.46376432 143.47977635 -16.55305581 124.74843923 -16.61165428 106.01673794 C-16.64258265 96.38624154 -16.68474361 86.75603973 -16.75341797 77.12573242 C-16.81325128 68.73121078 -16.85193781 60.3369025 -16.86531222 51.94217354 C-16.8731294 47.49776009 -16.89147971 43.05395699 -16.93516159 38.6097393 C-16.97596513 34.42435479 -16.98843494 30.2398305 -16.97942734 26.05426598 C-16.98107455 24.52039155 -16.99296433 22.98648761 -17.0160141 21.45278549 C-17.20208241 8.43047673 -17.20208241 8.43047673 -13.44570923 3.83314514 C-9.4752695 -0.00230666 -5.25943173 0.0565083 0 0 Z " fill="#F9FAFA" transform="translate(514.30078125,631.76171875)"/>
<path d="M0 0 C2.36446083 -0.09621164 4.72891176 -0.19266719 7.09335327 -0.28935242 C14.63224827 -0.55613568 22.16800846 -0.63894134 29.7109375 -0.69921875 C30.97995911 -0.71645996 32.24898071 -0.73370117 33.55645752 -0.75146484 C88.79179005 -1.45696641 88.79179005 -1.45696641 106.3800354 14.16349792 C113.85093647 21.47721811 120.12575833 29.86317155 125.2890625 38.94140625 C128.2259707 44.09900695 131.90056692 49.25831084 136.72108459 52.82215881 C138.97300171 55.77739249 138.93230204 59.25729408 139.25170898 62.84936523 C139.37585552 64.11597913 139.37585552 64.11597913 139.50251007 65.40818119 C140.5414713 76.60133762 141.13145302 87.81813552 141.5234375 99.05078125 C141.56260284 100.13043781 141.60176819 101.21009438 141.64212036 102.3224678 C142.48298579 128.62545925 141.79820625 151.11629421 123.3846283 171.28785706 C119.94324183 174.88971825 116.31397336 178.24915222 112.5859375 181.55078125 C111.98060558 182.09146618 111.37527367 182.63215111 110.75159836 183.18922043 C89.4818746 202.02788809 89.4818746 202.02788809 81.4765625 202.16357422 C78.48214485 201.67758506 76.27899319 201.14228474 73.5859375 199.80078125 C61.04238832 194.33707646 47.34108777 194.15338378 33.8984375 194.1015625 C32.21735369 194.08466324 30.5362821 194.06650624 28.85522461 194.04716492 C24.48905262 194.00022708 20.12293016 193.97005789 15.7565918 193.94372559 C10.48647762 193.90831527 5.21655379 193.85146746 -0.05340576 193.79833221 C-8.00693159 193.72047989 -15.9602198 193.66937596 -23.9140625 193.61328125 C-23.9140625 172.82328125 -23.9140625 152.03328125 -23.9140625 130.61328125 C-20.92846174 133.59888201 -18.89625615 135.91352742 -16.6640625 139.36328125 C-16.14328125 140.1625 -15.6225 140.96171875 -15.0859375 141.78515625 C-14.69921875 142.3884375 -14.3125 142.99171875 -13.9140625 143.61328125 C-9.60809129 142.91683721 -6.59199064 141.45625256 -2.87890625 139.2578125 C-0.9140625 138.61328125 -0.9140625 138.61328125 1.0546875 139.34375 C1.725 139.76269531 2.3953125 140.18164062 3.0859375 140.61328125 C3.80652344 141.01546875 4.52710938 141.41765625 5.26953125 141.83203125 C6.77016767 142.68507934 8.27017018 143.53924354 9.76953125 144.39453125 C12.0795426 145.71527793 12.0795426 145.71527793 14.79296875 146.359375 C17.0859375 147.61328125 17.0859375 147.61328125 17.9765625 150.6171875 C18.09515625 151.79152344 18.21375 152.96585938 18.3359375 154.17578125 C18.42753602 158.2164348 18.42753602 158.2164348 20.0859375 161.61328125 C21.75805147 161.71265559 23.43431191 161.74408218 25.109375 161.74609375 C26.1303125 161.74738281 27.15125 161.74867188 28.203125 161.75 C29.27820313 161.74613281 30.35328125 161.74226562 31.4609375 161.73828125 C33.06195312 161.74408203 33.06195312 161.74408203 34.6953125 161.75 C35.71882812 161.74871094 36.74234375 161.74742187 37.796875 161.74609375 C38.73837402 161.74496582 39.67987305 161.74383789 40.64990234 161.74267578 C43.22652789 161.71389694 43.22652789 161.71389694 46.0859375 160.61328125 C46.0859375 156.32328125 46.0859375 152.03328125 46.0859375 147.61328125 C50.75260417 145.27994792 55.41927083 142.94661458 60.0859375 140.61328125 C60.79105469 140.15953125 61.49617187 139.70578125 62.22265625 139.23828125 C64.0859375 138.61328125 64.0859375 138.61328125 66.55859375 139.51171875 C67.41324219 139.99898437 68.26789063 140.48625 69.1484375 140.98828125 C72.87552855 143.15263292 72.87552855 143.15263292 77.0859375 143.61328125 C79.53228983 140.81996636 81.37215497 137.57104509 83.3359375 134.42578125 C83.903125 133.56146484 84.4703125 132.69714844 85.0546875 131.80664062 C85.58578125 130.96552734 86.116875 130.12441406 86.6640625 129.2578125 C87.15293945 128.48800049 87.64181641 127.71818848 88.14550781 126.92504883 C89.34697041 123.97160922 89.24820942 122.5720961 88.0859375 119.61328125 C86.05452086 118.13227676 86.05452086 118.13227676 83.59765625 117.01171875 C80.72196744 115.22476104 79.34305795 114.3284193 78.18603516 111.11035156 C77.83507053 108.10252771 77.78879148 105.26436707 77.8984375 102.23828125 C77.91326172 101.20566162 77.92808594 100.17304199 77.94335938 99.10913086 C78.19995945 94.27430626 78.56461132 91.37050978 81.34765625 87.328125 C83.85590193 85.3565938 86.16053301 83.87224997 89.0859375 82.61328125 C88.70837569 76.55293018 85.83044556 72.61002846 82.5234375 67.73828125 C81.74323242 66.56265625 81.74323242 66.56265625 80.94726562 65.36328125 C79.66919033 63.44030558 78.38202487 61.52414256 77.0859375 59.61328125 C73.36608412 60.10576888 70.57702121 60.62643305 67.4609375 62.73828125 C64.0859375 64.61328125 64.0859375 64.61328125 62.3203125 64.3984375 C61.58296875 64.13933594 60.845625 63.88023437 60.0859375 63.61328125 C58.96960938 63.23816406 57.85328125 62.86304688 56.703125 62.4765625 C52.71691938 60.90104964 49.47596987 59.28692942 46.0859375 56.61328125 C44.32957489 51.9141046 44.15930991 47.58926491 44.0859375 42.61328125 C43.05879089 41.36274995 43.05879089 41.36274995 40.86108398 41.49975586 C39.90274658 41.50499268 38.94440918 41.51022949 37.95703125 41.515625 C36.92255859 41.51884766 35.88808594 41.52207031 34.82226562 41.52539062 C33.73365234 41.53376953 32.64503906 41.54214844 31.5234375 41.55078125 C30.43095703 41.55529297 29.33847656 41.55980469 28.21289062 41.56445312 C25.50385255 41.57628299 22.79492151 41.59276582 20.0859375 41.61328125 C18.62196135 45.0660215 18.01141033 47.31962325 18.2109375 51.05078125 C18.0234375 53.390625 18.0234375 53.390625 17.0859375 55.61328125 C12.50154601 58.89466861 7.40687634 60.83963497 2.0859375 62.61328125 C2.0859375 63.27328125 2.0859375 63.93328125 2.0859375 64.61328125 C-1.28658612 64.20449051 -3.58834692 63.28140492 -6.4140625 61.48828125 C-9.62642654 59.37650761 -9.62642654 59.37650761 -12.44970703 59.75488281 C-15.46643912 60.80568824 -16.18723563 61.77938298 -17.84375 64.47265625 C-18.3284375 65.25898438 -18.813125 66.0453125 -19.3125 66.85546875 C-19.79976562 67.68304688 -20.28703125 68.510625 -20.7890625 69.36328125 C-21.29953125 70.17539062 -21.81 70.9875 -22.3359375 71.82421875 C-25.19854151 76.23782225 -25.19854151 76.23782225 -25.67651367 81.30981445 C-25.13398888 83.78625384 -25.13398888 83.78625384 -22.84765625 84.859375 C-22.02394531 85.25253906 -21.20023438 85.64570313 -20.3515625 86.05078125 C-17.53765081 88.05878863 -16.14761987 89.57709703 -15.37939453 92.98535156 C-15.05737291 95.89848793 -14.94096166 98.74520094 -14.9140625 101.67578125 C-14.89013428 102.64636475 -14.86620605 103.61694824 -14.84155273 104.61694336 C-14.94165003 108.54298158 -15.02177645 111.45739065 -17.47265625 114.63232422 C-21.96626806 118.61328125 -21.96626806 118.61328125 -24.9140625 118.61328125 C-25.06101562 117.65550781 -25.20796875 116.69773437 -25.359375 115.7109375 C-29.67457224 89.40894197 -41.778345 63.5946737 -63.9140625 47.61328125 C-62.49667761 44.36121033 -60.78879838 42.29967058 -58.2265625 39.86328125 C-55.59322109 37.29589115 -53.06285047 34.71356186 -50.6640625 31.92578125 C-47.13234052 27.82416776 -43.47228269 23.85180547 -39.79199219 19.8840332 C-39.32180664 19.37702881 -38.85162109 18.87002441 -38.3671875 18.34765625 C-37.85509735 17.82499176 -37.3430072 17.30232727 -36.81539917 16.76382446 C-34.79395335 14.58033814 -34.79395335 14.58033814 -33.01132202 11.71546936 C-24.40149737 -0.06505686 -13.74976814 0.3877543 0 0 Z " fill="#0F3418" transform="translate(933.9140625,255.38671875)"/>
<path d="M0 0 C0.00546844 1.84376472 0.00546844 1.84376472 0.01104736 3.72477722 C0.04797828 15.30498472 0.10573029 26.88492583 0.18390274 38.46493053 C0.22342264 44.41844478 0.2555891 50.3718101 0.27099609 56.32543945 C0.28613276 62.0703551 0.32052557 67.81486147 0.36830902 73.55959511 C0.38315362 75.75201168 0.39104277 77.94448668 0.39188385 80.13695335 C0.39424593 83.20657433 0.42126536 86.27505726 0.45410156 89.34448242 C0.4490712 90.25222916 0.44404083 91.15997589 0.43885803 92.0952301 C0.50282201 95.95654306 0.78067222 98.53655182 2.44921875 102.06225586 C6.28292589 104.97459636 9.65918818 104.70483259 14.35839844 104.65942383 C15.30507889 104.66990753 16.25175934 104.68039124 17.22712708 104.69119263 C20.35487478 104.71998398 23.4815183 104.71364616 26.609375 104.70703125 C28.77843618 104.72014377 30.94748514 104.73544661 33.11651611 104.75285339 C38.82446714 104.79276814 44.53209921 104.80289805 50.24017334 104.80688477 C56.06516231 104.81620394 61.88996291 104.85360988 67.71484375 104.88867188 C79.14322032 104.95331379 90.57145662 104.98649977 102 105 C102.03225862 106.58840677 102.05518393 108.17700473 102.07421875 109.765625 C102.08799561 110.65024414 102.10177246 111.53486328 102.1159668 112.44628906 C101.97942477 115.45308821 101.16315622 117.94154261 99.96875 120.6953125 C98.7399193 123.61874036 97.80520815 126.61333811 96.8125 129.625 C88.68453345 152.31051857 71.70582836 171.59034321 49.86181641 182.02099609 C44.97833925 184.20302101 40.00954733 186.12998394 35 188 C34.11183594 188.350625 33.22367188 188.70125 32.30859375 189.0625 C10.80795645 197.06273714 -16.28953643 192.43773668 -36.56079102 183.22460938 C-60.15778433 171.73550128 -77.52370471 150.89357522 -86.3125 126.33203125 C-92.15864201 106.96668585 -92.21619322 89.33717343 -87 70 C-86.566875 68.37578125 -86.566875 68.37578125 -86.125 66.71875 C-82.50908363 54.70874206 -76.20762333 43.45546328 -68 34 C-67.01966797 32.80503906 -67.01966797 32.80503906 -66.01953125 31.5859375 C-49.92636726 12.64935474 -25.07631037 -0.16466214 0 0 Z " fill="#FAFAFA" transform="translate(701,622)"/>
<path d="M0 0 C21.74762169 0 42.57810858 9.91574437 59 24 C59.60070312 24.45632813 60.20140625 24.91265625 60.8203125 25.3828125 C72.98721603 34.83338408 81.31401362 50.07124159 86.8125 64.125 C87.10278076 64.83350098 87.39306152 65.54200195 87.69213867 66.27197266 C90.89419555 74.92480149 90.91507022 82.23563197 92 92 C61.64 92 31.28 92 0 92 C0 61.64 0 31.28 0 0 Z " fill="#F8F9F8" transform="translate(720,615)"/>
<path d="M0 0 C0.7827832 0.00354492 1.56556641 0.00708984 2.37207031 0.01074219 C11.80190362 0.27795307 19.78690459 3.77250817 27.25 9.5 C27.82234375 9.92925781 28.3946875 10.35851562 28.984375 10.80078125 C33.57146691 14.43712975 36.46124196 18.38385934 39.25 23.5 C39.8275 24.551875 40.405 25.60375 41 26.6875 C44.79785159 35.23266607 44.8403905 48.50230438 42.1875 57.4375 C36.51236033 70.93584623 28.31094301 78.54596402 15.10546875 84.3359375 C6.40769873 87.88167685 -4.81534956 87.93359482 -13.75 84.875 C-26.87257835 79.20843208 -35.43493029 70.77918374 -40.75 57.5 C-41.76395839 54.17188776 -42.38189216 50.95676269 -42.75 47.5 C-42.87375 46.44619141 -42.87375 46.44619141 -43 45.37109375 C-43.6700405 34.00134409 -39.16789487 22.92805535 -31.75 14.5 C-23.04623509 5.60776774 -12.59903477 -0.1036733 0 0 Z " fill="#FAFAFA" transform="translate(453.75,396.5)"/>
<path d="M0 0 C11.26059657 7.80642584 17.85832903 16.09843114 20.52734375 29.69921875 C21.87941075 39.1413395 21.38944603 46.46724509 17 55 C16.57589844 55.845625 16.15179687 56.69125 15.71484375 57.5625 C9.60322799 68.73024356 0.78550633 74.58806822 -11 79 C-22.42547491 81.91411802 -33.84079963 80.20069637 -43.94921875 74.26953125 C-53.72552373 67.58750015 -59.8468002 59.43857808 -63.5859375 48.24609375 C-65.78168714 36.33518769 -64.51223045 24.05413997 -57.875 13.875 C-44.54920001 -3.92067001 -20.08937937 -12.57352155 0 0 Z " fill="#FAFAFA" transform="translate(730,403)"/>
<path d="M0 0 C3.50540344 2.49992426 6.51299584 5.53149092 9.5703125 8.55078125 C20.96142539 19.1691302 33.75807719 21.4901279 48.71484375 21.2734375 C55.04522992 21.04826793 60.30137643 19.78728032 66 17 C67.50240234 16.27103516 67.50240234 16.27103516 69.03515625 15.52734375 C74.67821178 12.50962884 78.82766274 9.30971476 83.125 4.5625 C86.41250279 1.09529449 88.39528069 -0.70563281 93.25 -0.9375 C97.0536497 -0.47554254 100.25384036 0.3390966 102.97265625 3.13671875 C105.48570968 7.69461414 105.35932585 12.08053501 104 17 C94.15760685 31.86328248 76.85366553 41.02137753 59.95141602 45.41552734 C54.86617042 46.42256498 49.85744401 46.48811149 44.6875 46.4375 C43.58881592 46.42920166 42.49013184 46.42090332 41.3581543 46.41235352 C22.45818804 46.01985551 5.30705521 38.37129984 -8.0625 24.92578125 C-12.19019622 20.41111351 -15.38841482 16.19383373 -16.5625 10.0625 C-15.75484458 5.66526494 -13.31473428 2.92761203 -10 0 C-6.04638861 -1.31787046 -4.05226317 -1.0628887 0 0 Z " fill="#F6F8F7" transform="translate(539,518)"/>
<path d="M0 0 C7.71220491 3.60996826 13.20863639 7.56769182 16.9375 15.375 C18.85294556 21.12133668 18.59576324 26.47239485 16.25 32.0625 C12.67560801 39.21128398 8.45830785 43.45937867 0.9375 46.375 C-5.44232174 48.27618688 -11.79657749 48.40840932 -17.8125 45.375 C-22.36113318 42.54921195 -25.30711831 38.91912128 -28.0625 34.375 C-28.43890625 33.76398438 -28.8153125 33.15296875 -29.203125 32.5234375 C-31.41693783 26.98890543 -31.05991146 18.97426427 -28.875 13.4375 C-22.07602069 1.94956944 -13.27184038 -2.70853885 0 0 Z " fill="#113719" transform="translate(972.0625,333.625)"/>
<path d="M0 0 C0.81276398 0.00990463 1.62552795 0.01980927 2.46292114 0.03001404 C5.04227243 0.06899828 7.61726284 0.15677208 10.1953125 0.24609375 C11.95045907 0.28122906 13.70567281 0.3131642 15.4609375 0.34179688 C19.74905929 0.41870563 24.0339484 0.53936245 28.3203125 0.68359375 C28.3203125 1.01359375 28.3203125 1.34359375 28.3203125 1.68359375 C27.25594971 1.68246582 26.19158691 1.68133789 25.0949707 1.68017578 C21.13414615 1.6838555 17.17453538 1.7267227 13.21411133 1.78125 C11.50227694 1.7993835 9.79029645 1.80698328 8.07836914 1.80371094 C5.61230037 1.80084591 3.14924426 1.83623476 0.68359375 1.87890625 C-0.07805588 1.86981232 -0.83970551 1.86071838 -1.62443542 1.85134888 C-5.54506922 1.95784599 -7.40973354 2.44681515 -10.38049316 5.05249023 C-13.78142235 9.45550022 -13.3845569 14.19934196 -13.33911133 19.55419922 C-13.34959503 20.63772171 -13.36007874 21.7212442 -13.37088013 22.83760071 C-13.3996165 26.40895268 -13.39333977 29.97933443 -13.38671875 33.55078125 C-13.39983453 36.03086562 -13.41513837 38.51093932 -13.43254089 40.99099731 C-13.4724171 47.51104357 -13.48258312 54.03081054 -13.48657227 60.55096436 C-13.49321821 67.20723411 -13.53330921 73.86336192 -13.56835938 80.51953125 C-13.63296218 93.57420409 -13.66713424 106.62877241 -13.6796875 119.68359375 C-14.0096875 119.68359375 -14.3396875 119.68359375 -14.6796875 119.68359375 C-14.82001859 105.20164721 -14.92533758 90.71980652 -14.99056053 76.23731899 C-15.02146319 69.51239188 -15.06357343 62.78788789 -15.13232422 56.06323242 C-15.19754351 49.5728157 -15.23339993 43.08283834 -15.24895096 36.59211922 C-15.2600324 34.11655829 -15.2816721 31.64102126 -15.31406784 29.16564751 C-15.35766244 25.69641138 -15.36361993 22.22898771 -15.36083984 18.75952148 C-15.3824115 17.7374057 -15.40398315 16.71528992 -15.4262085 15.66220093 C-15.37443364 9.68618755 -14.47701117 6.31658272 -10.36644745 1.90306091 C-7.15915825 -0.41569456 -3.81844072 -0.1772394 0 0 Z " fill="#DAE5DF" transform="translate(436.6796875,680.31640625)"/>
<path d="M0 0 C6.6 0 13.2 0 20 0 C19.67 0.99 19.34 1.98 19 3 C12.73 3 6.46 3 0 3 C0 2.01 0 1.02 0 0 Z " fill="#1D3F24" transform="translate(575,564)"/>
<path d="M0 0 C0.81417892 0.00707474 1.62835785 0.01414948 2.46720886 0.0214386 C5.05591518 0.04932527 7.64242148 0.11204809 10.23046875 0.17578125 C11.99020303 0.20087175 13.74997138 0.22368361 15.50976562 0.24414062 C19.81334171 0.29913253 24.11528285 0.38536133 28.41796875 0.48828125 C28.41796875 0.81828125 28.41796875 1.14828125 28.41796875 1.48828125 C27.35360596 1.48715332 26.28924316 1.48602539 25.19262695 1.48486328 C21.2318024 1.488543 17.27219163 1.5314102 13.31176758 1.5859375 C11.59993319 1.604071 9.8879527 1.61167078 8.17602539 1.60839844 C5.70995662 1.60553341 3.24690051 1.64092226 0.78125 1.68359375 C0.01960037 1.67449982 -0.74204926 1.66540588 -1.52677917 1.65603638 C-4.51803596 1.7372886 -6.88093554 1.89072532 -9.21182251 3.87738037 C-10.78382952 5.69197006 -10.78382952 5.69197006 -12.58203125 8.48828125 C-12.91203125 7.49828125 -13.24203125 6.50828125 -13.58203125 5.48828125 C-9.33059783 0.14161345 -6.40205282 -0.21086046 0 0 Z " fill="#E2EAE5" transform="translate(436.58203125,680.51171875)"/>
<path d="M0 0 C12.21 0 24.42 0 37 0 C37.495 1.485 37.495 1.485 38 3 C37.50145508 2.84152588 37.00291016 2.68305176 36.48925781 2.51977539 C33.06371173 1.8044961 29.65752883 1.76415926 26.171875 1.68359375 C25.42286926 1.66281265 24.67386353 1.64203156 23.90216064 1.62062073 C21.51819712 1.55542912 19.13412688 1.49638217 16.75 1.4375 C15.13019746 1.39428584 13.51040557 1.35067063 11.890625 1.30664062 C7.92719168 1.19977904 3.9636514 1.09842667 0 1 C0 0.67 0 0.34 0 0 Z " fill="#2F5238" transform="translate(353,732)"/>
<path d="M0 0 C0.66 0.33 1.32 0.66 2 1 C-2.76814854 6.53105231 -9.18188945 8.19111353 -16 10 C-12.96086531 6.63052458 -9.93142307 4.69577825 -5.875 2.6875 C-4.29332031 1.88892578 -4.29332031 1.88892578 -2.6796875 1.07421875 C-1.79539062 0.71972656 -0.91109375 0.36523438 0 0 Z " fill="#2E5537" transform="translate(316,308)"/>
<path d="M0 0 C0.66 0.66 1.32 1.32 2 2 C-3.5 6 -3.5 6 -8 6 C-8 6.66 -8 7.32 -8 8 C-9.875 8.625 -9.875 8.625 -12 9 C-12.66 8.34 -13.32 7.68 -14 7 C-9.38 4.69 -4.76 2.38 0 0 Z " fill="#244D2E" transform="translate(624,552)"/>
<path d="M0 0 C0.66 0.33 1.32 0.66 2 1 C0.50079488 4.11373372 -1.08152136 7.12228205 -3 10 C-3.66 10 -4.32 10 -5 10 C-3.84414715 6.08788267 -2.64465038 3.1254959 0 0 Z " fill="#22482B" transform="translate(279,339)"/>
<path d="M0 0 C0.99 0.495 0.99 0.495 2 1 C1.01 1.495 1.01 1.495 0 2 C0 1.34 0 0.68 0 0 Z M-4 1 C-2.68 1.66 -1.36 2.32 0 3 C-2.52788007 5.79872437 -4.20411134 7.45773019 -8 8 C-6.79618552 5.50638429 -5.54571278 3.31856917 -4 1 Z " fill="#204729" transform="translate(952,339)"/>
<path d="M0 0 C0.89203125 0.01804687 1.7840625 0.03609375 2.703125 0.0546875 C3.71632813 0.08949219 3.71632813 0.08949219 4.75 0.125 C4.75 0.455 4.75 0.785 4.75 1.125 C-0.695 1.62 -0.695 1.62 -6.25 2.125 C-6.58 3.115 -6.91 4.105 -7.25 5.125 C-8.9 5.125 -10.55 5.125 -12.25 5.125 C-8.55714116 1.06285527 -5.48009547 -0.14421304 0 0 Z " fill="#4B6E55" transform="translate(964.25,332.875)"/>
<path d="M0 0 C0.66 1.32 1.32 2.64 2 4 C0.35 5.32 -1.3 6.64 -3 8 C-3.66 7.67 -4.32 7.34 -5 7 C-3.35 4.69 -1.7 2.38 0 0 Z " fill="#2A5333" transform="translate(492,460)"/>
<path d="M0 0 C1.8125 0.1875 1.8125 0.1875 4 1 C5.75 3.5625 5.75 3.5625 7 6 C6.01 6 5.02 6 4 6 C0 1.54285714 0 1.54285714 0 0 Z " fill="#202522" transform="translate(613,896)"/>
<path d="M0 0 C0.33 0.99 0.66 1.98 1 3 C-0.98 4.32 -2.96 5.64 -5 7 C-5.66 6.34 -6.32 5.68 -7 5 C-4.69 3.35 -2.38 1.7 0 0 Z " fill="#244C2D" transform="translate(768,792)"/>
<path d="M0 0 C0.33 0 0.66 0 1 0 C1.38133299 1.9914056 1.71325582 3.99279077 2 6 C1.67 6.33 1.34 6.66 1 7 C0.76807135 8.51469448 0.58784762 10.03754562 0.4375 11.5625 C0.35371094 12.38878906 0.26992188 13.21507812 0.18359375 14.06640625 C0.12300781 14.70449219 0.06242188 15.34257812 0 16 C-0.33 16 -0.66 16 -1 16 C-1.02725341 14.2709226 -1.04650987 12.54171824 -1.0625 10.8125 C-1.07410156 9.84957031 -1.08570313 8.88664062 -1.09765625 7.89453125 C-1.00486622 5.14423487 -0.62111685 2.67520409 0 0 Z " fill="#C1CFC5" transform="translate(918,346)"/>
<path d="M0 0 C2.56687367 3.8503105 1.83288724 5.58569763 1 10 C0.34 10 -0.32 10 -1 10 C-0.67 6.7 -0.34 3.4 0 0 Z " fill="#232823" transform="translate(909,799)"/>
<path d="M0 0 C0.66 0.66 1.32 1.32 2 2 C0.35 3.65 -1.3 5.3 -3 7 C-3 3 -3 3 -1.5 1.25 C-1.005 0.8375 -0.51 0.425 0 0 Z " fill="#E9EEEA" transform="translate(891,275)"/>
<path d="M0 0 C0.66 0.33 1.32 0.66 2 1 C-1.625 5.875 -1.625 5.875 -5 7 C-3.70700306 4.11562221 -2.34058637 2.12780579 0 0 Z " fill="#DAE5DE" transform="translate(504,633)"/>
<path d="M0 0 C-3.51187196 2.40814077 -5.72656908 3.36629408 -10 3 C-4.375 -1.3125 -4.375 -1.3125 0 0 Z " fill="#254E2F" transform="translate(479,478)"/>
<path d="M0 0 C0.66 1.32 1.32 2.64 2 4 C0.625 6 0.625 6 -1 8 C-1.66 8 -2.32 8 -3 8 C-2.690625 7.236875 -2.38125 6.47375 -2.0625 5.6875 C-1.32106407 3.81210323 -0.63771783 1.91315348 0 0 Z " fill="#274C30" transform="translate(748,454)"/>
<path d="" fill="#FFFFFF" transform="translate(0,0)"/>
</svg>
